<svg width="830" height="621" viewBox="0 0 830 621" fill="none" xmlns="http://www.w3.org/2000/svg">
<g clip-path="url(#clip0_315_3)">
<path d="M722.748 330.131V510.74C722.75 512.122 722.479 513.489 721.949 514.766C721.42 516.042 720.643 517.202 719.664 518.178C718.684 519.155 717.521 519.929 716.24 520.457C714.96 520.984 713.587 521.255 712.202 521.253H473.142C471.756 521.255 470.384 520.985 469.103 520.457C467.823 519.93 466.659 519.155 465.68 518.179C464.7 517.202 463.923 516.042 463.394 514.766C462.865 513.49 462.593 512.122 462.596 510.74V330.131" fill="white"/>
<path d="M712.202 523.192H473.142C471.501 523.193 469.877 522.871 468.361 522.245C466.845 521.619 465.468 520.702 464.308 519.546C463.148 518.39 462.228 517.017 461.6 515.506C460.973 513.995 460.65 512.376 460.65 510.741V330.131H464.542V510.741C464.542 513.014 465.449 515.194 467.061 516.801C468.674 518.409 470.861 519.312 473.142 519.313H712.202C714.483 519.312 716.67 518.409 718.282 516.801C719.895 515.194 720.801 513.014 720.802 510.741V330.131H724.694V510.741C724.69 514.042 723.373 517.207 721.031 519.541C718.689 521.876 715.514 523.189 712.202 523.192Z" fill="#F9D5FF"/>
<path d="M721.036 296.034C719.88 294.872 718.504 293.951 716.987 293.324C715.47 292.698 713.844 292.38 712.202 292.387H473.142C469.83 292.391 466.655 293.704 464.313 296.038C461.971 298.373 460.654 301.538 460.65 304.839V332.07H724.694V304.839C724.705 303.202 724.387 301.58 723.759 300.067C723.131 298.555 722.205 297.183 721.036 296.034Z" fill="#F9D5FF"/>
<path d="M482.092 319.036C485.875 319.036 488.942 315.979 488.942 312.209C488.942 308.438 485.875 305.382 482.092 305.382C478.31 305.382 475.243 308.438 475.243 312.209C475.243 315.979 478.31 319.036 482.092 319.036Z" fill="#F94F74"/>
<path d="M505.481 319.036C509.263 319.036 512.33 315.979 512.33 312.209C512.33 308.438 509.263 305.382 505.481 305.382C501.698 305.382 498.632 308.438 498.632 312.209C498.632 315.979 501.698 319.036 505.481 319.036Z" fill="#F5B870"/>
<path d="M528.908 319.036C532.691 319.036 535.757 315.979 535.757 312.209C535.757 308.438 532.691 305.382 528.908 305.382C525.126 305.382 522.059 308.438 522.059 312.209C522.059 315.979 525.126 319.036 528.908 319.036Z" fill="#6FB895"/>
<path d="M712.202 523.192H473.142C471.501 523.192 469.877 522.87 468.361 522.245C466.845 521.619 465.468 520.702 464.308 519.546C463.148 518.389 462.228 517.016 461.6 515.506C460.973 513.995 460.65 512.375 460.65 510.74V438.125H464.542V510.741C464.542 513.015 465.449 515.195 467.061 516.802C468.674 518.41 470.861 519.313 473.142 519.314H712.202C714.483 519.313 716.67 518.41 718.282 516.802C719.895 515.195 720.801 513.015 720.802 510.741V438.125H724.694V510.741C724.69 514.042 723.372 517.207 721.031 519.541C718.689 521.875 715.514 523.188 712.202 523.192Z" fill="#F9D5FF"/>
<path d="M360.649 337.63V519.454C360.651 520.845 360.378 522.222 359.846 523.507C359.313 524.792 358.532 525.959 357.547 526.942C356.561 527.926 355.391 528.705 354.103 529.236C352.815 529.767 351.435 530.04 350.041 530.038H109.572C108.178 530.04 106.798 529.767 105.51 529.236C104.222 528.705 103.051 527.926 102.066 526.943C101.08 525.96 100.299 524.792 99.7664 523.507C99.2341 522.222 98.9612 520.845 98.9633 519.454V337.63" fill="white"/>
<path d="M350.041 531.99H109.572C107.922 531.99 106.287 531.666 104.763 531.036C103.238 530.406 101.853 529.483 100.686 528.319C99.5191 527.155 98.5936 525.773 97.9622 524.252C97.3308 522.731 97.006 521.101 97.0063 519.454V337.63H100.921V519.454C100.922 521.743 101.833 523.938 103.455 525.556C105.078 527.174 107.278 528.084 109.572 528.085H350.041C352.335 528.084 354.535 527.174 356.157 525.556C357.779 523.938 358.691 521.743 358.692 519.454V337.63H362.606V519.454C362.603 522.778 361.278 525.964 358.922 528.314C356.566 530.664 353.372 531.986 350.041 531.99Z" fill="#F9D5FF"/>
<path d="M358.927 303.303C357.764 302.133 356.38 301.206 354.854 300.576C353.328 299.945 351.692 299.625 350.041 299.632H109.572C106.24 299.636 103.046 300.958 100.691 303.308C98.3349 305.658 97.0099 308.844 97.0063 312.168V339.581H362.606V312.168C362.618 310.52 362.298 308.886 361.666 307.364C361.034 305.841 360.102 304.461 358.927 303.303Z" fill="#F9D5FF"/>
<path d="M118.575 326.46C122.38 326.46 125.465 323.383 125.465 319.587C125.465 315.791 122.38 312.714 118.575 312.714C114.77 312.714 111.686 315.791 111.686 319.587C111.686 323.383 114.77 326.46 118.575 326.46Z" fill="#F94F74"/>
<path d="M142.101 326.46C145.906 326.46 148.991 323.383 148.991 319.587C148.991 315.791 145.906 312.714 142.101 312.714C138.296 312.714 135.212 315.791 135.212 319.587C135.212 323.383 138.296 326.46 142.101 326.46Z" fill="#F5B870"/>
<path d="M165.667 326.46C169.472 326.46 172.557 323.383 172.557 319.587C172.557 315.791 169.472 312.714 165.667 312.714C161.862 312.714 158.778 315.791 158.778 319.587C158.778 323.383 161.862 326.46 165.667 326.46Z" fill="#6FB895"/>
<path d="M350.041 531.99H109.572C107.922 531.99 106.287 531.666 104.763 531.036C103.238 530.406 101.853 529.483 100.686 528.319C99.5191 527.155 98.5936 525.773 97.9622 524.252C97.3308 522.731 97.006 521.101 97.0063 519.454V446.351H100.921V519.456C100.922 521.744 101.833 523.939 103.455 525.557C105.078 527.176 107.278 528.085 109.572 528.086H350.041C352.335 528.085 354.535 527.176 356.157 525.557C357.779 523.939 358.691 521.744 358.692 519.456V446.351H362.606V519.456C362.602 522.779 361.277 525.965 358.922 528.315C356.566 530.665 353.372 531.986 350.041 531.99Z" fill="#F9D5FF"/>
<path d="M212.037 456.683L247.293 541.753L243.848 535.913L294.179 609.239C296.656 612.84 297.679 617.242 297.043 621.565C296.407 625.887 294.16 629.81 290.751 632.547C287.342 635.283 283.024 636.632 278.662 636.322C274.299 636.012 270.215 634.067 267.229 630.876L206.376 565.966C205.147 564.66 204.167 563.14 203.484 561.482L202.93 560.13L167.67 475.061C166.442 472.148 165.803 469.021 165.789 465.859C165.775 462.698 166.386 459.566 167.588 456.641C168.79 453.717 170.558 451.059 172.792 448.819C175.026 446.58 177.68 444.804 180.603 443.593C183.526 442.382 186.66 441.76 189.825 441.763C192.989 441.766 196.122 442.394 199.042 443.61C201.963 444.827 204.614 446.608 206.844 448.851C209.073 451.094 210.837 453.756 212.033 456.683H212.037Z" fill="#8670BD"/>
<path d="M222.004 516.736C219.851 492.518 203.301 495.1 208.283 478.258C213.271 461.478 203.854 439.288 185.271 440.889C170.935 442.181 169.893 441.627 163.859 442.181C158.075 442.672 146.446 449.802 142.08 452.691C131.866 459.391 135.435 469.779 140.357 482.254C140.357 482.254 130.574 476.476 130.943 481.947C131.312 487.418 132.912 508.87 134.389 525.466L222.004 516.736Z" fill="#8670BD"/>
<path d="M221.697 519.869C224.589 532.531 226.684 555.888 228.526 568.674C230.369 581.459 231.852 594.244 233.142 607.09L234.003 616.741L234.433 621.535L234.803 626.329L235.541 635.98L236.157 645.63L236.464 650.486L236.714 655.342L237.206 664.993C237.636 671.447 237.39 677.901 237.329 684.355C236.898 710.232 235.975 736.173 234.314 762.11L233.699 771.822L232.96 781.533C232.711 784.791 232.406 788.049 232.16 791.245L231.729 796.101L231.237 800.957L230.253 810.668C230.068 812.267 229.945 813.926 229.761 815.525L229.207 820.38C228.837 823.638 228.468 826.896 228.038 830.092C227.607 833.35 227.176 836.607 226.625 839.808L180.108 842.758L170.32 690.072C169.766 677.284 167.981 664.686 166.566 652.024L162.198 614.038L153.522 538.127L221.697 519.869Z" fill="url(#paint0_linear_315_3)"/>
<path d="M188.41 607.953C195.485 660.445 184.595 670.28 191.055 708.39C197.824 748.158 178.626 770.102 178.133 814.051L165.767 636.289L188.41 607.953Z" fill="#2B2B2B"/>
<path d="M207.73 544.948C205.392 558.163 202.192 571.132 198.808 584.102C195.362 597.01 191.629 609.836 187.609 622.58C183.61 635.368 179.242 648.027 174.808 660.628L161.025 698.43C151.798 723.632 101.034 841.586 97.8956 847.672L51.9981 841.219L96.6071 680.975C98.4534 674.521 100.237 668.067 102.084 661.613L107.744 642.312L129.71 571.561L134.325 525.522L207.73 544.948Z" fill="url(#paint1_linear_315_3)"/>
<path d="M134.325 525.526C135.432 538.314 147.738 553.862 170.012 552.079L187.979 550.05C208.283 548.453 223.051 528.906 221.82 515.138L134.325 525.526Z" fill="url(#paint2_linear_315_3)"/>
<path d="M191.794 426.872L174.996 427.486C170.821 427.624 166.762 426.104 163.706 423.258C160.651 420.413 158.848 416.474 158.693 412.304L157.831 386.976C157.698 383.669 158.22 380.368 159.368 377.263C160.515 374.158 162.265 371.311 164.518 368.883C166.77 366.456 169.481 364.498 172.493 363.12C175.506 361.743 178.761 360.973 182.072 360.856C188.754 360.623 195.255 363.05 200.146 367.602C205.038 372.155 207.921 378.461 208.16 385.136L208.96 408.37C209.057 410.713 208.69 413.052 207.878 415.252C207.067 417.452 205.827 419.47 204.232 421.19C202.636 422.91 200.716 424.297 198.581 425.272C196.446 426.248 194.14 426.791 191.794 426.872Z" fill="#EA7068"/>
<path d="M208.529 395.216C207.883 395.091 207.298 394.748 206.873 394.245C206.448 393.742 206.207 393.109 206.191 392.45C206.199 391.825 206.416 391.22 206.805 390.73C207.195 390.241 207.737 389.894 208.345 389.746L208.529 395.216Z" fill="#2B2B2B"/>
<path d="M157.644 448.877L197.824 473.525L189.332 441.87L157.644 448.877Z" fill="white"/>
<path d="M179.549 456.069L157.706 448.877L158.26 400.871L185.087 399.948L189.332 448.323C189.433 449.553 189.228 450.788 188.736 451.919C188.245 453.05 187.481 454.043 186.514 454.809C185.546 455.575 184.404 456.091 183.189 456.311C181.974 456.53 180.724 456.447 179.549 456.069Z" fill="#EA7068"/>
<path d="M202.376 401.363C202.241 401.366 202.108 401.334 201.989 401.269C201.87 401.205 201.77 401.11 201.7 400.994C201.643 400.905 201.605 400.806 201.587 400.702C201.569 400.599 201.571 400.492 201.595 400.389C201.618 400.287 201.661 400.189 201.722 400.103C201.783 400.017 201.86 399.944 201.949 399.888L204.165 398.476C204.283 398.38 204.379 398.258 204.443 398.12C204.507 397.981 204.538 397.83 204.534 397.677C204.544 397.52 204.522 397.363 204.469 397.215C204.416 397.067 204.333 396.931 204.226 396.816L200.472 392.698C200.348 392.532 200.29 392.325 200.31 392.119C200.331 391.913 200.427 391.721 200.582 391.583C200.736 391.444 200.937 391.368 201.144 391.37C201.352 391.372 201.551 391.451 201.703 391.592L205.456 395.71C205.941 396.274 206.204 396.995 206.194 397.738C206.173 398.116 206.075 398.485 205.905 398.823C205.736 399.161 205.5 399.461 205.21 399.705L205.149 399.766L202.872 401.242C202.724 401.333 202.55 401.376 202.376 401.363Z" fill="#2B2B2B"/>
<path d="M187.425 427.056L176.719 425.581L188.41 437.874L187.425 427.056Z" fill="#2B2B2B"/>
<path d="M192.655 395.953C194.218 395.953 195.485 394.688 195.485 393.126C195.485 391.564 194.218 390.298 192.655 390.298C191.092 390.298 189.824 391.564 189.824 393.126C189.824 394.688 191.092 395.953 192.655 395.953Z" fill="#2B2B2B"/>
<path d="M229.388 536.774L248.709 538.311C253.069 538.651 257.14 540.622 260.11 543.829C263.079 547.037 264.729 551.245 264.729 555.614C264.729 559.983 263.079 564.191 260.11 567.399C257.14 570.606 253.069 572.577 248.709 572.917L229.327 574.453" fill="#EA7068"/>
<path d="M284.176 594.684L295.519 610.384C298.082 613.924 299.214 618.299 298.69 622.635C298.166 626.972 296.024 630.952 292.692 633.781C289.36 636.609 285.082 638.079 280.713 637.896C276.345 637.713 272.205 635.891 269.122 632.793L255.399 619.034L284.176 594.684Z" fill="#EA7068"/>
<path d="M133.464 506.963C137.771 518.642 139.431 570.643 139.431 570.643C139.428 573.258 139.992 575.842 141.086 578.218C142.179 580.594 143.775 582.705 145.763 584.405C147.752 586.105 150.086 587.354 152.604 588.067C155.123 588.779 157.766 588.937 160.352 588.53L226.437 574.453C226.437 574.453 169.153 547.531 168.846 547.9C168.538 548.269 140.478 519.869 133.464 506.963Z" fill="#2B2B2B"/>
<path d="M229.327 574.453L164.043 579.617C158.429 580.063 152.856 578.343 148.473 574.81C144.089 571.277 141.228 566.2 140.478 560.623L140.228 558.779L129.522 477.09C129.11 473.966 129.318 470.792 130.133 467.748C130.949 464.705 132.357 461.851 134.277 459.351C136.197 456.852 138.591 454.754 141.322 453.178C144.053 451.602 147.069 450.579 150.196 450.168C153.323 449.756 156.5 449.964 159.547 450.779C162.594 451.594 165.45 453 167.953 454.918C170.455 456.836 172.555 459.227 174.132 461.956C175.71 464.684 176.734 467.697 177.146 470.82L187.914 552.509L164.105 531.611L229.45 536.774" fill="#8670BD"/>
<path d="M182.749 384.767L208.16 383.355L210.191 378.871C211.102 376.851 211.492 374.635 211.324 372.426C211.156 370.217 210.436 368.085 209.23 366.225C208.024 364.366 206.371 362.838 204.421 361.782C202.471 360.726 200.288 360.175 198.07 360.18H164.105C162.205 360.178 160.328 360.585 158.6 361.373C156.871 362.161 155.333 363.311 154.09 364.746C152.846 366.181 151.927 367.866 151.393 369.687C150.86 371.509 150.726 373.423 150.999 375.301L157.952 424.106L172.535 397.737L173.458 412.365H173.519L173.704 419.803C173.765 421.783 174.596 423.66 176.02 425.037C177.445 426.414 179.351 427.183 181.333 427.179L191.732 427.118C193.962 427.118 196.171 426.68 198.232 425.828C200.292 424.975 202.165 423.726 203.742 422.15C205.319 420.575 206.57 418.704 207.423 416.646C208.276 414.587 208.715 412.381 208.714 410.153V405.604C208.718 404.537 208.3 403.512 207.551 402.753C206.802 401.993 205.782 401.559 204.715 401.547H198.07C196.757 401.551 195.467 401.892 194.325 402.538C193.183 403.184 192.226 404.113 191.548 405.235L191.486 405.358C190.824 406.445 189.893 407.343 188.783 407.968C187.674 408.592 186.422 408.921 185.149 408.923L182.134 408.985C180.995 409.003 179.895 408.576 179.067 407.795C178.239 407.014 177.75 405.941 177.703 404.805L177.088 391.221C177.03 390.425 177.131 389.625 177.385 388.868C177.639 388.112 178.041 387.413 178.568 386.812C179.095 386.212 179.735 385.722 180.453 385.371C181.171 385.02 181.951 384.815 182.749 384.767Z" fill="#2B2B2B"/>
<path d="M197.455 408.985C197.455 413.779 204.715 413.288 204.715 408.309L197.455 408.985Z" fill="white"/>
<path d="M173.519 408.493L169.397 408.8C168.85 408.844 168.299 408.778 167.778 408.607C167.257 408.435 166.776 408.16 166.362 407.799C165.949 407.438 165.613 406.998 165.373 406.505C165.133 406.012 164.995 405.475 164.966 404.928L164.536 398.474C164.491 397.927 164.557 397.378 164.729 396.857C164.901 396.336 165.176 395.856 165.538 395.443C165.899 395.03 166.34 394.694 166.833 394.455C167.327 394.215 167.864 394.077 168.412 394.049C168.959 394.004 169.509 394.07 170.03 394.242C170.552 394.414 171.033 394.688 171.446 395.05C171.859 395.411 172.196 395.851 172.435 396.344C172.675 396.837 172.814 397.373 172.842 397.921L173.519 408.493Z" fill="#EA7068"/>
<path d="M221.881 516.183C221.657 516.183 221.44 516.102 221.271 515.956C221.101 515.809 220.99 515.606 220.959 515.384C219.79 504.135 206.806 482.745 206.683 482.5C206.554 482.288 206.514 482.033 206.572 481.792C206.631 481.551 206.782 481.343 206.994 481.213C207.205 481.083 207.46 481.042 207.701 481.099C207.943 481.155 208.152 481.306 208.283 481.516C208.837 482.377 221.574 503.46 222.804 515.139C222.821 515.257 222.813 515.377 222.782 515.492C222.75 515.606 222.695 515.713 222.62 515.806C222.545 515.898 222.451 515.974 222.345 516.028C222.239 516.083 222.123 516.115 222.004 516.122C221.943 516.183 221.943 516.183 221.881 516.183Z" fill="#2B2B2B"/>
<path d="M183.241 519.564C183.019 519.554 182.808 519.47 182.64 519.325C182.473 519.18 182.359 518.982 182.318 518.765L179.426 495.407C179.393 495.162 179.458 494.915 179.608 494.718C179.758 494.522 179.979 494.393 180.224 494.36C180.469 494.327 180.717 494.393 180.913 494.542C181.109 494.692 181.238 494.913 181.271 495.158L184.163 518.516C184.19 518.759 184.121 519.003 183.973 519.198C183.824 519.392 183.606 519.522 183.364 519.56L183.241 519.564Z" fill="#2B2B2B"/>
<path d="M168.843 677.902C168.737 677.918 168.628 677.896 168.536 677.841C168.422 677.8 168.318 677.738 168.229 677.658C168.14 677.577 168.067 677.48 168.016 677.371C167.964 677.263 167.935 677.145 167.929 677.025C167.923 676.905 167.941 676.785 167.981 676.672C183.425 636.104 196.777 588.037 196.962 587.545C197.029 587.319 197.183 587.129 197.39 587.016C197.597 586.902 197.84 586.875 198.067 586.94C198.294 587.004 198.486 587.156 198.602 587.361C198.717 587.567 198.747 587.81 198.685 588.037C198.562 588.529 185.149 636.658 169.705 677.287C169.641 677.465 169.525 677.619 169.371 677.729C169.217 677.839 169.033 677.9 168.843 677.902Z" fill="#2B2B2B"/>
<path d="M602.131 558.073C614.241 535.735 604.258 531.058 624.879 509.697C645.5 488.388 632.407 440.994 637.753 416.695C639.499 408.596 647.027 396.312 650.736 384.679C655.373 370.057 638.568 358.099 626.133 367.068C621.963 370.154 618.237 373.795 615.059 377.889C613.791 379.488 612.215 380.819 610.423 381.802C604.749 385.009 599.021 388.108 591.111 392.565C563.671 408.056 569.29 439.8 556.689 455.291C544.088 470.782 502.901 463.933 479.661 499.261C429.364 575.685 549.051 656.185 602.131 558.073Z" fill="url(#paint3_linear_315_3)"/>
<path d="M505.354 395.659C505.354 395.659 501.372 453.167 508.464 464.853C511.503 469.912 516.267 473.712 521.885 475.561L524.34 476.377L608.678 497.521C615.232 499.67 622.374 499.135 628.533 496.037C634.691 492.938 639.363 487.528 641.518 480.998C643.674 474.467 643.138 467.351 640.028 461.214C636.918 455.078 631.489 450.424 624.935 448.276L540.595 427.131L548.015 472.518L544.523 389.952" fill="url(#paint4_linear_315_3)"/>
<path d="M544.578 389.898L541.469 379.026C540.173 374.56 537.259 370.732 533.293 368.284C529.327 365.835 524.589 364.941 519.999 365.773C515.408 366.605 511.291 369.106 508.445 372.789C505.598 376.473 504.225 381.078 504.592 385.713L505.354 395.659L544.578 389.898Z" fill="#FDC068"/>
<path d="M462.586 544.158C434.438 592.426 406.889 709.345 402.47 716.085L458.549 711.193L516.429 582.208L654.5 560.084L589.147 519.916L510.701 517.905C501.043 517.507 491.459 519.741 482.981 524.367C474.502 528.993 467.451 535.836 462.586 544.158Z" fill="url(#paint5_linear_315_3)"/>
<path d="M588.874 521.546C593.402 495.781 610.205 499.478 606.713 481.215C603.221 462.952 615.005 439.742 633.989 442.565C648.664 444.739 649.755 444.25 655.919 445.174C675.448 448.055 690.232 468.275 681.231 486.919C681.231 486.919 674.03 493.606 673.103 499.475C672.175 505.345 684.45 515.945 681.34 533.664L588.874 521.546Z" fill="url(#paint6_linear_315_3)"/>
<path d="M661.592 446.592C663.338 448.494 663.067 454.42 655.592 456.811C648.172 459.257 635.135 464.258 630.334 464.149C625.533 464.04 618.824 458.876 620.242 451.484L629.297 443.385L657.883 445.396L661.592 446.592Z" fill="white"/>
<path d="M588.874 522.307H588.765C588.571 522.269 588.399 522.157 588.287 521.994C588.175 521.832 588.131 521.631 588.165 521.437C590.456 508.446 595.857 502.793 600.167 498.227C601.529 496.874 602.786 495.42 603.928 493.879C604.044 493.72 604.218 493.614 604.413 493.583C604.607 493.553 604.805 493.6 604.965 493.716C605.124 493.831 605.23 494.005 605.261 494.198C605.292 494.392 605.244 494.59 605.128 494.749C603.943 496.356 602.63 497.865 601.2 499.26C596.997 503.663 591.818 509.207 589.581 521.709C589.555 521.876 589.469 522.029 589.339 522.139C589.209 522.248 589.045 522.308 588.874 522.307Z" fill="#2B2B2B"/>
<path d="M626.952 526.547L540.541 540.135C523.412 542.364 511.465 555.355 504.755 571.281C484.135 620.418 533.504 738.316 533.777 740.651L580.964 725.649L571.525 597.642L674.956 583.89L626.952 526.547Z" fill="url(#paint7_linear_315_3)"/>
<path d="M681.722 530.841C680.522 544.756 672.175 565.792 645.826 562.584L624.661 559.377C600.658 556.438 587.893 534.916 589.148 519.969L681.722 530.841Z" fill="url(#paint8_linear_315_3)"/>
<path d="M640.153 525.949L650.027 568.074L668.738 554.323L654.991 527.688L640.153 525.949Z" fill="#2B2B2B"/>
<path d="M636.389 457.08L612.332 448.116C612.332 448.116 617.35 442.082 630.225 442.082L636.389 457.08Z" fill="#2B2B2B"/>
<path d="M636.717 619.223C638.135 618.897 664.047 611.508 686.25 602.97C694.163 599.937 700.835 594.361 705.211 587.126C709.588 579.891 711.419 571.408 710.416 563.02C706.707 531.874 695.414 484.041 694.76 481.867L693.233 476.866C692.741 475.397 692.305 473.876 691.814 472.409C687.231 458.657 671.957 450.884 658.264 455.667C652.512 457.696 647.652 461.664 644.524 466.884C641.396 472.105 640.198 478.251 641.135 484.258C641.408 485.998 641.735 487.683 642.062 489.423L643.045 494.586C643.699 498.01 644.463 501.435 645.227 504.859C646.754 511.708 660.883 554.377 660.883 554.377C660.883 554.377 620.897 580.087 620.187 580.467" fill="url(#paint9_linear_315_3)"/>
<path d="M620.242 580.413C618.114 581.772 615.987 583.132 613.859 584.544L609.713 587.316C608.35 588.295 606.931 589.219 605.622 590.197C602.009 592.801 599.427 596.584 598.326 600.889C597.224 605.194 597.673 609.748 599.595 613.757C601.516 617.766 604.788 620.977 608.84 622.83C612.893 624.682 617.469 625.06 621.772 623.897C623.409 623.462 624.991 622.974 626.573 622.484L631.373 621.015C633.174 620.471 634.974 619.873 636.774 619.275" fill="#FDC068"/>
<path d="M627.279 421.424L644.244 422.347C646.334 422.463 648.425 422.166 650.399 421.473C652.373 420.781 654.19 419.707 655.746 418.313C657.303 416.919 658.567 415.233 659.467 413.351C660.367 411.468 660.886 409.427 660.992 407.345L661.92 386.962C662.519 375.113 651.882 360.98 637.805 360.215C634.459 360.036 631.111 360.516 627.951 361.626C624.791 362.737 621.881 364.457 619.389 366.688C616.896 368.92 614.87 371.619 613.424 374.631C611.979 377.643 611.143 380.909 610.965 384.243L610.148 402.507C610.024 404.87 610.369 407.234 611.163 409.465C611.958 411.695 613.185 413.747 614.777 415.504C616.368 417.261 618.291 418.689 620.436 419.704C622.581 420.72 624.907 421.304 627.279 421.424Z" fill="#FDC068"/>
<path d="M614.569 394.627C616.166 394.627 617.46 393.337 617.46 391.746C617.46 390.154 616.166 388.865 614.569 388.865C612.972 388.865 611.677 390.154 611.677 391.746C611.677 393.337 612.972 394.627 614.569 394.627Z" fill="#2B2B2B"/>
<path d="M634.862 457.624L654.064 450.775C655.132 450.398 656.067 449.719 656.755 448.822C657.443 447.924 657.854 446.847 657.937 445.72L660.937 408.106C659.738 401.801 633.388 400.823 633.388 400.823L625.533 449.144C625.346 450.375 625.467 451.631 625.884 452.804C626.301 453.977 627.002 455.029 627.924 455.867C628.847 456.705 629.962 457.304 631.172 457.611C632.382 457.917 633.65 457.922 634.862 457.624Z" fill="#FDC068"/>
<path d="M621.333 400.66C621.198 400.656 621.066 400.619 620.95 400.551L618.605 399.028C618.321 398.795 618.087 398.506 617.918 398.18C617.749 397.854 617.649 397.496 617.624 397.13C617.598 396.764 617.648 396.396 617.77 396.05C617.891 395.703 618.083 395.385 618.333 395.115L622.094 390.984C622.155 390.901 622.232 390.832 622.322 390.782C622.411 390.731 622.51 390.699 622.613 390.689C622.715 390.678 622.819 390.69 622.916 390.721C623.014 390.753 623.104 390.805 623.181 390.874C623.257 390.942 623.318 391.026 623.36 391.12C623.402 391.214 623.424 391.315 623.425 391.417C623.425 391.52 623.404 391.622 623.362 391.715C623.321 391.809 623.26 391.894 623.184 391.963L619.423 396.094C619.205 396.33 619.087 396.642 619.096 396.963C619.093 397.125 619.132 397.284 619.208 397.427C619.285 397.569 619.396 397.69 619.532 397.779L621.769 399.248C621.93 399.36 622.043 399.529 622.084 399.721C622.125 399.913 622.092 400.113 621.99 400.281C621.928 400.4 621.833 400.498 621.716 400.565C621.6 400.632 621.467 400.665 621.333 400.66Z" fill="#2B2B2B"/>
<path d="M621.442 409.356H621.169C619.314 409.248 617.35 407.887 617.077 405.063C617.056 404.868 617.113 404.673 617.236 404.52C617.359 404.366 617.537 404.268 617.733 404.247C617.929 404.225 618.125 404.282 618.278 404.404C618.432 404.527 618.531 404.705 618.552 404.9C618.562 405.63 618.839 406.331 619.331 406.872C619.823 407.412 620.497 407.755 621.225 407.835C622.589 407.943 624.175 407.02 624.717 404.791C624.742 404.695 624.786 404.604 624.846 404.524C624.906 404.445 624.981 404.378 625.067 404.327C625.154 404.277 625.249 404.243 625.348 404.23C625.447 404.216 625.548 404.221 625.645 404.246C625.742 404.271 625.833 404.315 625.912 404.375C625.992 404.435 626.06 404.51 626.11 404.596C626.161 404.682 626.194 404.777 626.208 404.875C626.222 404.974 626.217 405.075 626.192 405.171C625.533 408.107 623.406 409.356 621.442 409.356Z" fill="#2B2B2B"/>
<path d="M630.061 421.533L640.972 420.88L628.316 432.132L630.061 421.533Z" fill="#2B2B2B"/>
<path d="M631.098 395.442C632.695 395.442 633.99 394.153 633.99 392.561C633.99 390.97 632.695 389.68 631.098 389.68C629.501 389.68 628.206 390.97 628.206 392.561C628.206 394.153 629.501 395.442 631.098 395.442Z" fill="#2B2B2B"/>
<path d="M641.899 360.274C639.88 367.558 615.987 380.82 610.532 381.636C610.532 381.636 611.513 358.534 641.899 360.274Z" fill="url(#paint10_linear_315_3)"/>
<path d="M641.899 360.274C641.899 360.274 645.554 418.598 645.554 432.132C645.554 445.666 658.21 442.079 671.084 451.483C687.722 440.774 690.723 409.465 674.902 399.954C661.538 391.909 665.465 387.778 659.408 375.17C653.35 362.563 641.899 360.274 641.899 360.274Z" fill="url(#paint11_linear_315_3)"/>
<path d="M652.1 528.124C651.939 528.12 651.783 528.066 651.656 527.968C651.528 527.87 651.435 527.734 651.391 527.58L643.699 501.274C643.671 501.181 643.661 501.084 643.67 500.987C643.679 500.891 643.707 500.797 643.753 500.711C643.798 500.625 643.86 500.549 643.935 500.487C644.011 500.425 644.097 500.379 644.19 500.35C644.283 500.322 644.381 500.312 644.478 500.321C644.575 500.33 644.669 500.358 644.756 500.403C644.842 500.449 644.918 500.511 644.98 500.585C645.042 500.66 645.089 500.746 645.118 500.839L652.809 527.145C652.863 527.332 652.841 527.533 652.75 527.705C652.658 527.878 652.504 528.008 652.318 528.069C652.254 528.112 652.177 528.132 652.1 528.124Z" fill="#2B2B2B"/>
<path d="M547.087 451.101C546.897 451.092 546.716 451.015 546.577 450.886C546.437 450.757 546.348 450.583 546.324 450.395L545.342 428.544C545.335 428.349 545.405 428.159 545.538 428.016C545.672 427.873 545.856 427.789 546.052 427.782C546.248 427.775 546.438 427.845 546.581 427.978C546.725 428.11 546.809 428.294 546.817 428.489L547.799 450.341C547.804 450.437 547.789 450.534 547.756 450.625C547.722 450.716 547.671 450.799 547.605 450.87C547.539 450.941 547.459 450.998 547.371 451.037C547.282 451.077 547.187 451.099 547.09 451.101H547.087Z" fill="#2B2B2B"/>
<path d="M669.993 573.891C669.853 573.891 669.716 573.849 669.6 573.772C669.483 573.694 669.392 573.584 669.339 573.456L660.283 554.645C660.24 554.559 660.215 554.466 660.208 554.37C660.201 554.275 660.213 554.179 660.243 554.088C660.274 553.997 660.322 553.913 660.385 553.841C660.448 553.769 660.524 553.709 660.61 553.666C660.696 553.624 660.79 553.598 660.886 553.591C660.982 553.584 661.078 553.596 661.169 553.627C661.26 553.657 661.345 553.705 661.417 553.768C661.49 553.83 661.549 553.907 661.592 553.992L670.647 572.799C670.694 572.913 670.714 573.036 670.704 573.159C670.695 573.282 670.657 573.401 670.593 573.506C670.53 573.612 670.443 573.701 670.339 573.767C670.234 573.833 670.116 573.874 669.993 573.887V573.891Z" fill="#2B2B2B"/>
<path d="M500.664 619.984C500.479 619.986 500.3 619.921 500.159 619.801C500.019 619.681 499.927 619.515 499.9 619.332L496.736 588.838C495.686 578.795 498.388 568.719 504.326 560.536C510.264 552.353 519.021 546.639 528.922 544.485L581.51 532.961C581.698 532.918 581.896 532.951 582.059 533.053C582.223 533.155 582.339 533.318 582.383 533.505C582.426 533.692 582.393 533.889 582.29 534.053C582.188 534.216 582.025 534.331 581.837 534.375L529.247 545.898C519.711 547.97 511.276 553.475 505.559 561.358C499.842 569.241 497.244 578.948 498.262 588.621L501.426 619.115C501.437 619.211 501.429 619.309 501.402 619.402C501.375 619.495 501.33 619.582 501.269 619.658C501.208 619.734 501.133 619.797 501.047 619.843C500.962 619.89 500.868 619.919 500.771 619.93C500.744 619.96 500.705 619.98 500.664 619.984Z" fill="#2B2B2B"/>
<path d="M571.527 598.405C571.342 598.407 571.162 598.342 571.022 598.222C570.882 598.102 570.79 597.935 570.763 597.753L569.726 586.827C569.716 586.731 569.724 586.633 569.751 586.54C569.778 586.447 569.824 586.36 569.884 586.284C569.945 586.208 570.021 586.145 570.106 586.098C570.191 586.051 570.285 586.022 570.382 586.011C570.479 586 570.577 586.009 570.67 586.036C570.764 586.063 570.851 586.108 570.927 586.168C571.004 586.229 571.067 586.304 571.114 586.389C571.161 586.474 571.191 586.568 571.201 586.664L572.234 597.59C572.245 597.686 572.237 597.784 572.21 597.877C572.183 597.971 572.138 598.058 572.077 598.134C572.016 598.209 571.941 598.273 571.855 598.319C571.77 598.366 571.676 598.395 571.579 598.405H571.527Z" fill="#2B2B2B"/>
<path d="M363.076 368.977C363.363 367.07 365.626 349.987 358.543 341.233L353.019 345.68C357.41 351.046 356.701 363.542 355.993 367.918L363.076 368.977Z" fill="#A4E9B8"/>
<path d="M251.105 246.299C255.497 235.714 250.185 225.473 249.971 225.049L243.739 228.368L246.855 226.747L243.739 228.368C243.81 228.438 247.706 236.133 244.589 243.616L251.105 246.299Z" fill="#E8928A"/>
<path d="M314.062 211.336L320.861 209.429L317.462 210.417L320.861 209.499C320.861 209.429 318.661 201.098 323.341 194.462L317.533 190.44C310.945 199.759 313.92 210.842 314.062 211.336Z" fill="#98C2FE"/>
<path d="M212.573 211.918L212.286 212.624C211.746 214 210.926 215.25 209.878 216.295C208.83 217.34 207.576 218.158 206.195 218.696L205.487 218.982C205.315 219.048 205.167 219.164 205.062 219.315C204.957 219.466 204.902 219.646 204.902 219.829C204.902 220.013 204.957 220.192 205.062 220.344C205.167 220.495 205.315 220.611 205.487 220.677L206.195 220.963C207.576 221.501 208.83 222.318 209.878 223.363C210.926 224.407 211.746 225.657 212.286 227.034L212.573 227.739C212.639 227.911 212.755 228.059 212.907 228.163C213.059 228.267 213.239 228.323 213.423 228.323C213.607 228.323 213.787 228.267 213.939 228.163C214.091 228.059 214.208 227.911 214.273 227.739L214.56 227.034C215.099 225.657 215.918 224.406 216.966 223.36C218.014 222.314 219.268 221.495 220.648 220.956L221.356 220.67C221.528 220.604 221.676 220.488 221.78 220.337C221.884 220.185 221.94 220.006 221.94 219.823C221.94 219.639 221.884 219.46 221.78 219.309C221.676 219.157 221.528 219.041 221.356 218.975L220.648 218.689C219.268 218.151 218.013 217.334 216.965 216.289C215.917 215.244 215.097 213.994 214.556 212.617L214.269 211.912C214.202 211.742 214.085 211.596 213.933 211.494C213.781 211.392 213.602 211.337 213.419 211.338C213.236 211.339 213.057 211.395 212.906 211.498C212.755 211.602 212.639 211.748 212.573 211.918Z" fill="#FDE545"/>
<path d="M320.224 281.014L319.937 281.721C319.397 283.097 318.577 284.347 317.529 285.392C316.48 286.436 315.226 287.254 313.845 287.792L313.137 288.078C312.965 288.143 312.817 288.259 312.712 288.411C312.608 288.562 312.552 288.741 312.552 288.925C312.552 289.109 312.608 289.288 312.712 289.439C312.817 289.591 312.965 289.707 313.137 289.772L313.845 290.058C315.226 290.597 316.48 291.414 317.529 292.459C318.577 293.503 319.397 294.753 319.937 296.129L320.224 296.836C320.29 297.007 320.407 297.155 320.558 297.259C320.71 297.363 320.89 297.418 321.074 297.418C321.258 297.418 321.438 297.363 321.589 297.259C321.741 297.155 321.858 297.007 321.924 296.836L322.211 296.129C322.751 294.753 323.571 293.503 324.619 292.459C325.668 291.414 326.922 290.597 328.303 290.058L329.011 289.772C329.182 289.706 329.33 289.59 329.434 289.439C329.539 289.288 329.594 289.109 329.594 288.925C329.594 288.742 329.539 288.562 329.434 288.411C329.33 288.26 329.182 288.144 329.011 288.078L328.303 287.792C326.922 287.254 325.668 286.436 324.619 285.392C323.571 284.347 322.751 283.097 322.211 281.721L321.924 281.014C321.858 280.843 321.741 280.695 321.589 280.592C321.438 280.488 321.258 280.432 321.074 280.432C320.89 280.432 320.71 280.488 320.558 280.592C320.407 280.695 320.29 280.843 320.224 281.014Z" fill="#FDE545"/>
<path d="M546.859 515.094H648.956V527.734H546.859V515.094Z" fill="#F9D5FF"/>
<path d="M537.387 410.377H426.401C425.469 410.343 424.539 410.494 423.667 410.822C422.795 411.149 421.998 411.646 421.322 412.283C420.646 412.921 420.106 413.686 419.733 414.533C419.36 415.381 419.162 416.294 419.15 417.218C419.124 417.609 419.163 418.001 419.264 418.379L431.074 519.848C431.354 522.054 432.434 524.083 434.113 525.556C435.792 527.029 437.954 527.844 440.196 527.85H559.139L546.392 418.382C546.061 416.219 544.982 414.237 543.339 412.776C541.696 411.315 539.591 410.467 537.387 410.377Z" fill="#F9D5FF"/>
<path d="M478.135 476.375C473.673 472.198 473.113 465.603 476.882 461.644C480.652 457.686 487.324 457.864 491.786 462.041C496.247 466.218 496.808 472.813 493.038 476.772C489.269 480.73 482.596 480.552 478.135 476.375Z" fill="white"/>
<path d="M258.069 518.019H158.738V530.325H258.069V518.019Z" fill="#D5DBFF"/>
<path d="M267.285 416.07H375.264C376.171 416.037 377.075 416.184 377.924 416.502C378.772 416.821 379.548 417.305 380.206 417.925C380.863 418.546 381.388 419.291 381.751 420.116C382.114 420.941 382.307 421.83 382.319 422.73C382.344 423.11 382.306 423.492 382.207 423.86L370.717 522.647C370.446 524.795 369.395 526.77 367.761 528.204C366.128 529.638 364.024 530.432 361.843 530.437H246.121L258.524 423.863C258.845 421.757 259.895 419.827 261.494 418.405C263.092 416.983 265.14 416.157 267.285 416.07Z" fill="#D5DBFF"/>
<path d="M324.932 480.323C329.272 476.256 329.818 469.835 326.15 465.982C322.483 462.128 315.991 462.301 311.65 466.368C307.31 470.435 306.764 476.855 310.432 480.709C314.099 484.563 320.591 484.39 324.932 480.323Z" fill="#DBFFFF"/>
<path d="M183.651 109.683C181.876 87.7106 179.411 66.0818 177.931 43.9617C192.723 52.3182 208.007 59.6914 222.898 67.7996L183.651 109.683Z" fill="url(#paint12_radial_315_3)"/>
<path d="M230.294 127.968C228.174 107.915 225.215 87.7592 222.75 67.6052C238.035 73.9956 253.813 78.9106 268.604 85.7924C262.195 92.6729 255.785 99.556 249.572 106.438C239.958 117.006 230.294 127.968 230.294 127.968Z" fill="url(#paint13_radial_315_3)"/>
<path d="M284.333 142.912C279.008 123.643 274.076 104.472 268.653 85.3015C284.431 90.2152 300.702 92.672 315.987 98.0824C310.073 104.964 305.633 112.829 300.209 120.104C292.271 131.41 284.333 142.912 284.333 142.912Z" fill="url(#paint14_radial_315_3)"/>
<path d="M336.005 151.661C329.25 133.965 322.347 115.778 315.937 97.5898C331.716 99.556 347.986 102.014 363.764 104.472C359.326 112.337 353.903 119.71 349.811 128.067C342.909 139.818 336.005 151.661 336.005 151.661Z" fill="url(#paint15_radial_315_3)"/>
<path d="M387.283 155.25C379.098 138.39 371.703 121.676 363.813 104.964C379.591 103.981 395.862 105.455 411.64 105.947C407.202 113.812 403.258 122.168 399.362 130.623C393.298 142.961 387.283 155.25 387.283 155.25Z" fill="url(#paint16_radial_315_3)"/>
<path d="M639.136 109.584C641.355 87.2182 643.327 65.5901 644.806 43.47C630.014 51.8265 614.729 58.7083 599.889 66.3272L639.136 109.584Z" fill="url(#paint17_radial_315_3)"/>
<path d="M592.444 127.035C595.007 106.881 596.98 86.2358 599.938 66.0818C584.653 72.4722 568.875 77.3879 554.084 83.7756C560.493 90.6574 566.903 98.0312 573.165 104.912C582.829 115.781 592.444 127.035 592.444 127.035Z" fill="url(#paint18_radial_315_3)"/>
<path d="M538.457 141.585C543.785 122.611 548.219 102.948 554.136 83.7773C538.358 87.2182 522.58 91.6425 506.802 95.5748C511.731 103.44 517.65 110.813 522.629 118.432C530.516 129.935 538.457 141.585 538.457 141.585Z" fill="url(#paint19_radial_315_3)"/>
<path d="M486.733 150.58C493.931 132.441 499.847 113.763 506.75 95.575C490.972 98.5245 474.702 100.489 458.924 103.44C463.853 111.305 468.292 119.17 472.927 126.936C479.83 138.734 486.733 150.58 486.733 150.58Z" fill="url(#paint20_radial_315_3)"/>
<path d="M435.504 154.856C443.639 138.34 450.542 120.644 458.924 103.931C443.106 103.524 427.28 104.345 411.59 106.388C415.535 114.253 419.972 122.118 423.424 130.376C429.489 142.666 435.504 154.856 435.504 154.856Z" fill="url(#paint21_radial_315_3)"/>
<path d="M667.043 346.725C667.341 344.751 669.685 327.074 662.347 318.016L656.624 322.617C661.174 328.17 660.439 341.1 659.706 345.629L667.043 346.725Z" fill="#A4E9B8"/>
<path d="M551.047 219.78C555.597 208.826 550.094 198.23 549.873 197.791L543.416 201.225L546.644 199.547L543.416 201.225C543.489 201.298 547.525 209.26 544.296 217.004L551.047 219.78Z" fill="#E8928A"/>
<path d="M616.267 183.6L623.311 181.627L619.789 182.649L623.311 181.7C623.311 181.627 621.031 173.006 625.879 166.14L619.863 161.978C613.038 171.621 616.12 183.089 616.267 183.6Z" fill="#98C2FE"/>
<path d="M511.13 184.203L510.832 184.933C510.273 186.358 509.424 187.651 508.338 188.732C507.252 189.814 505.953 190.66 504.523 191.216L503.789 191.513C503.611 191.58 503.457 191.7 503.349 191.857C503.241 192.014 503.183 192.199 503.183 192.389C503.183 192.579 503.241 192.765 503.349 192.922C503.457 193.078 503.611 193.198 503.789 193.266L504.523 193.562C505.953 194.119 507.252 194.964 508.338 196.046C509.424 197.127 510.273 198.42 510.832 199.844L511.13 200.574C511.198 200.752 511.319 200.905 511.476 201.013C511.633 201.12 511.82 201.178 512.011 201.178C512.201 201.178 512.388 201.12 512.545 201.013C512.702 200.905 512.823 200.752 512.891 200.574L513.189 199.844C513.747 198.419 514.595 197.125 515.681 196.042C516.766 194.96 518.065 194.113 519.496 193.555L520.229 193.259C520.407 193.191 520.56 193.071 520.668 192.914C520.776 192.758 520.834 192.572 520.834 192.382C520.834 192.193 520.776 192.007 520.668 191.851C520.56 191.694 520.407 191.574 520.229 191.506L519.496 191.21C518.065 190.653 516.766 189.807 515.68 188.725C514.594 187.644 513.744 186.351 513.185 184.927L512.887 184.196C512.817 184.021 512.696 183.87 512.539 183.764C512.382 183.658 512.196 183.602 512.006 183.603C511.816 183.604 511.631 183.661 511.475 183.768C511.319 183.875 511.198 184.027 511.13 184.203Z" fill="#FDE545"/>
<path d="M622.651 255.702L622.354 256.433C621.794 257.857 620.944 259.151 619.858 260.232C618.772 261.313 617.473 262.159 616.043 262.715L615.309 263.011C615.131 263.079 614.977 263.199 614.869 263.356C614.761 263.512 614.703 263.698 614.703 263.888C614.703 264.078 614.761 264.264 614.869 264.421C614.977 264.577 615.131 264.697 615.309 264.765L616.043 265.061C617.473 265.618 618.772 266.463 619.858 267.545C620.944 268.626 621.794 269.919 622.354 271.343L622.651 272.074C622.719 272.252 622.84 272.404 622.997 272.512C623.154 272.619 623.34 272.677 623.531 272.677C623.722 272.677 623.908 272.619 624.065 272.512C624.222 272.404 624.343 272.252 624.411 272.074L624.709 271.343C625.268 269.919 626.118 268.626 627.204 267.545C628.29 266.463 629.589 265.618 631.019 265.061L631.753 264.765C631.931 264.697 632.084 264.577 632.192 264.42C632.3 264.263 632.358 264.078 632.358 263.888C632.358 263.698 632.3 263.513 632.192 263.356C632.084 263.2 631.931 263.08 631.753 263.011L631.019 262.715C629.589 262.159 628.29 261.313 627.204 260.232C626.118 259.151 625.268 257.857 624.709 256.433L624.411 255.702C624.343 255.525 624.222 255.372 624.065 255.265C623.908 255.157 623.722 255.1 623.531 255.1C623.34 255.1 623.154 255.157 622.997 255.265C622.84 255.372 622.719 255.525 622.651 255.702Z" fill="#FDE545"/>
</g>
<defs>
<linearGradient id="paint0_linear_315_3" x1="195.487" y1="838.33" x2="195.487" y2="544.501" gradientUnits="userSpaceOnUse">
<stop stop-color="#D96359"/>
<stop offset="0.322" stop-color="#90979D"/>
<stop offset="0.501" stop-color="#7E9DAE"/>
<stop offset="0.683" stop-color="#B8C1FC"/>
<stop offset="1" stop-color="#D2D4D4"/>
</linearGradient>
<linearGradient id="paint1_linear_315_3" x1="15417.2" y1="-68468.8" x2="15417.2" y2="-182837" gradientUnits="userSpaceOnUse">
<stop stop-color="#D96359"/>
<stop offset="0.322" stop-color="#90979D"/>
<stop offset="0.501" stop-color="#7E9DAE"/>
<stop offset="0.683" stop-color="#B8C1FC"/>
<stop offset="1" stop-color="#D2D4D4"/>
</linearGradient>
<linearGradient id="paint2_linear_315_3" x1="13431.9" y1="-7495.49" x2="13431.9" y2="-20622.2" gradientUnits="userSpaceOnUse">
<stop stop-color="#D96359"/>
<stop offset="0.322" stop-color="#90979D"/>
<stop offset="0.501" stop-color="#7E9DAE"/>
<stop offset="0.683" stop-color="#B8C1FC"/>
<stop offset="1" stop-color="#D2D4D4"/>
</linearGradient>
<linearGradient id="paint3_linear_315_3" x1="533.2" y1="394.802" x2="591.033" y2="545.646" gradientUnits="userSpaceOnUse">
<stop stop-color="#9774AC"/>
<stop offset="0.401" stop-color="#47A6D3"/>
<stop offset="0.501" stop-color="#A7A7AE"/>
<stop offset="0.591" stop-color="#E89AC0"/>
<stop offset="1" stop-color="#BFE7D1"/>
</linearGradient>
<linearGradient id="paint4_linear_315_3" x1="573.533" y1="529.102" x2="573.533" y2="430.175" gradientUnits="userSpaceOnUse">
<stop stop-color="#F89D9A"/>
<stop offset="0.409" stop-color="#F5943B"/>
<stop offset="0.499" stop-color="#F05052"/>
<stop offset="0.599" stop-color="#ECE674"/>
<stop offset="1" stop-color="#E1EEC3"/>
</linearGradient>
<linearGradient id="paint5_linear_315_3" x1="528.485" y1="732.239" x2="528.485" y2="516.964" gradientUnits="userSpaceOnUse">
<stop stop-color="#FFE0C2"/>
<stop offset="0.401" stop-color="#7AAEFC"/>
<stop offset="0.591" stop-color="#B8C1FC"/>
<stop offset="1" stop-color="#D2D4D4"/>
</linearGradient>
<linearGradient id="paint6_linear_315_3" x1="34543.9" y1="-50954.7" x2="34543.9" y2="-62914.5" gradientUnits="userSpaceOnUse">
<stop stop-color="#F89D9A"/>
<stop offset="0.409" stop-color="#F5943B"/>
<stop offset="0.499" stop-color="#F05052"/>
<stop offset="0.599" stop-color="#ECE674"/>
<stop offset="1" stop-color="#E1EEC3"/>
</linearGradient>
<linearGradient id="paint7_linear_315_3" x1="51435.8" y1="-60633.9" x2="51435.8" y2="-123361" gradientUnits="userSpaceOnUse">
<stop stop-color="#FFE0C2"/>
<stop offset="0.401" stop-color="#7AAEFC"/>
<stop offset="0.591" stop-color="#B8C1FC"/>
<stop offset="1" stop-color="#D2D4D4"/>
</linearGradient>
<linearGradient id="paint8_linear_315_3" x1="33560" y1="-11746.9" x2="33560" y2="-24327.9" gradientUnits="userSpaceOnUse">
<stop stop-color="#FFE0C2"/>
<stop offset="0.401" stop-color="#7AAEFC"/>
<stop offset="0.591" stop-color="#B8C1FC"/>
<stop offset="1" stop-color="#D2D4D4"/>
</linearGradient>
<linearGradient id="paint9_linear_315_3" x1="36509" y1="-93390.3" x2="36509" y2="-113194" gradientUnits="userSpaceOnUse">
<stop stop-color="#F89D9A"/>
<stop offset="0.409" stop-color="#F5943B"/>
<stop offset="0.499" stop-color="#F05052"/>
<stop offset="0.599" stop-color="#ECE674"/>
<stop offset="1" stop-color="#E1EEC3"/>
</linearGradient>
<linearGradient id="paint10_linear_315_3" x1="11381.6" y1="-16425.4" x2="11381.6" y2="-11708.8" gradientUnits="userSpaceOnUse">
<stop stop-color="#9774AC"/>
<stop offset="0.401" stop-color="#47A6D3"/>
<stop offset="0.501" stop-color="#A7A7AE"/>
<stop offset="0.591" stop-color="#E89AC0"/>
<stop offset="1" stop-color="#BFE7D1"/>
</linearGradient>
<linearGradient id="paint11_linear_315_3" x1="17745.2" y1="-72885.9" x2="17745.2" y2="-52836" gradientUnits="userSpaceOnUse">
<stop stop-color="#9774AC"/>
<stop offset="0.401" stop-color="#47A6D3"/>
<stop offset="0.501" stop-color="#A7A7AE"/>
<stop offset="0.591" stop-color="#E89AC0"/>
<stop offset="1" stop-color="#BFE7D1"/>
</linearGradient>
<radialGradient id="paint12_radial_315_3" cx="0" cy="0" r="1" gradientUnits="userSpaceOnUse" gradientTransform="translate(386.229 193.252) rotate(20.9426) scale(166.036 165.66)">
<stop offset="0.004" stop-color="white"/>
<stop offset="0.234" stop-color="#FAFCFF"/>
<stop offset="0.512" stop-color="#EBF4FE"/>
<stop offset="0.814" stop-color="#D3E7FD"/>
<stop offset="1" stop-color="#C0DDFC"/>
</radialGradient>
<radialGradient id="paint13_radial_315_3" cx="0" cy="0" r="1" gradientUnits="userSpaceOnUse" gradientTransform="translate(41402.1 -69342) rotate(15.5369) scale(11432.9 15057.1)">
<stop offset="0.004" stop-color="white"/>
<stop offset="0.234" stop-color="#FAFCFF"/>
<stop offset="0.512" stop-color="#EBF4FE"/>
<stop offset="0.814" stop-color="#D3E7FD"/>
<stop offset="1" stop-color="#C0DDFC"/>
</radialGradient>
<radialGradient id="paint14_radial_315_3" cx="0" cy="0" r="1" gradientUnits="userSpaceOnUse" gradientTransform="translate(28934.1 -54271.4) rotate(8.05274) scale(11803.6 14368.1)">
<stop offset="0.004" stop-color="white"/>
<stop offset="0.234" stop-color="#FAFCFF"/>
<stop offset="0.512" stop-color="#EBF4FE"/>
<stop offset="0.814" stop-color="#D3E7FD"/>
<stop offset="1" stop-color="#C0DDFC"/>
</radialGradient>
<radialGradient id="paint15_radial_315_3" cx="0" cy="0" r="1" gradientUnits="userSpaceOnUse" gradientTransform="translate(22957.8 -44193) rotate(3.8124) scale(11927.2 13484.8)">
<stop offset="0.004" stop-color="white"/>
<stop offset="0.234" stop-color="#FAFCFF"/>
<stop offset="0.512" stop-color="#EBF4FE"/>
<stop offset="0.814" stop-color="#D3E7FD"/>
<stop offset="1" stop-color="#C0DDFC"/>
</radialGradient>
<radialGradient id="paint16_radial_315_3" cx="0" cy="0" r="1" gradientUnits="userSpaceOnUse" gradientTransform="translate(18642.4 -36045) rotate(0.263196) scale(11927.4 12623.2)">
<stop offset="0.004" stop-color="white"/>
<stop offset="0.234" stop-color="#FAFCFF"/>
<stop offset="0.512" stop-color="#EBF4FE"/>
<stop offset="0.814" stop-color="#D3E7FD"/>
<stop offset="1" stop-color="#C0DDFC"/>
</radialGradient>
<radialGradient id="paint17_radial_315_3" cx="0" cy="0" r="1" gradientUnits="userSpaceOnUse" gradientTransform="translate(138258 -56013.3) rotate(159.087) scale(11200.4 16498.7)">
<stop offset="0.004" stop-color="white"/>
<stop offset="0.234" stop-color="#FAFCFF"/>
<stop offset="0.512" stop-color="#EBF4FE"/>
<stop offset="0.814" stop-color="#D3E7FD"/>
<stop offset="1" stop-color="#C0DDFC"/>
</radialGradient>
<radialGradient id="paint18_radial_315_3" cx="0" cy="0" r="1" gradientUnits="userSpaceOnUse" gradientTransform="translate(148357 -53917.2) rotate(164.438) scale(11431.3 15202.1)">
<stop offset="0.004" stop-color="white"/>
<stop offset="0.234" stop-color="#FAFCFF"/>
<stop offset="0.512" stop-color="#EBF4FE"/>
<stop offset="0.814" stop-color="#D3E7FD"/>
<stop offset="1" stop-color="#C0DDFC"/>
</radialGradient>
<radialGradient id="paint19_radial_315_3" cx="0" cy="0" r="1" gradientUnits="userSpaceOnUse" gradientTransform="translate(163522 -48306.9) rotate(171.975) scale(11802 14415.1)">
<stop offset="0.004" stop-color="white"/>
<stop offset="0.234" stop-color="#FAFCFF"/>
<stop offset="0.512" stop-color="#EBF4FE"/>
<stop offset="0.814" stop-color="#D3E7FD"/>
<stop offset="1" stop-color="#C0DDFC"/>
</radialGradient>
<radialGradient id="paint20_radial_315_3" cx="0" cy="0" r="1" gradientUnits="userSpaceOnUse" gradientTransform="translate(170883 -43052.1) rotate(176.171) scale(11930 13721.2)">
<stop offset="0.004" stop-color="white"/>
<stop offset="0.234" stop-color="#FAFCFF"/>
<stop offset="0.512" stop-color="#EBF4FE"/>
<stop offset="0.814" stop-color="#D3E7FD"/>
<stop offset="1" stop-color="#C0DDFC"/>
</radialGradient>
<radialGradient id="paint21_radial_315_3" cx="0" cy="0" r="1" gradientUnits="userSpaceOnUse" gradientTransform="translate(173345 -36342.3) rotate(179.714) scale(11804.6 12725.5)">
<stop offset="0.004" stop-color="white"/>
<stop offset="0.234" stop-color="#FAFCFF"/>
<stop offset="0.512" stop-color="#EBF4FE"/>
<stop offset="0.814" stop-color="#D3E7FD"/>
<stop offset="1" stop-color="#C0DDFC"/>
</radialGradient>
<clipPath id="clip0_315_3">
<rect width="830" height="621" fill="white"/>
</clipPath>
</defs>
</svg>
