<svg width="995" height="663" viewBox="0 0 995 663" fill="none" xmlns="http://www.w3.org/2000/svg">
<path d="M617.893 391.408H611.775V588.886H617.893V391.408Z" fill="#F9D5FF"/>
<path d="M699.443 589.498H530.225L549.129 585.521C569.928 581.123 591.129 578.909 612.387 578.913H617.281C638.54 578.909 659.741 581.123 680.539 585.521L699.443 589.498Z" fill="#F9D5FF"/>
<path d="M699.443 592.556H530.225C529.464 592.56 528.729 592.281 528.163 591.771C527.597 591.262 527.242 590.56 527.166 589.803C527.08 589.054 527.278 588.3 527.719 587.689C528.16 587.078 528.814 586.654 529.552 586.499L548.456 582.522C569.458 578.098 590.863 575.863 612.326 575.854H617.219C638.683 575.86 660.087 578.095 681.089 582.522L699.993 586.499C700.731 586.654 701.385 587.078 701.826 587.689C702.267 588.3 702.464 589.054 702.379 589.803C702.351 590.556 702.027 591.267 701.477 591.783C700.927 592.298 700.197 592.576 699.443 592.556ZM560.508 586.438H669.099C651.964 583.479 634.609 581.985 617.22 581.972H612.326C594.958 581.99 577.623 583.484 560.508 586.438Z" fill="#F9D5FF"/>
<path d="M717.674 409.268L557.515 391.405L606.151 242.439C608.739 234.532 613.757 227.643 620.491 222.755C627.225 217.867 635.329 215.23 643.65 215.219H726.119C732.35 215.216 738.493 216.69 744.045 219.52C749.597 222.35 754.399 226.455 758.058 231.499C761.717 236.542 764.129 242.381 765.096 248.537C766.062 254.693 765.557 260.99 763.621 266.913L717.674 409.268Z" fill="white"/>
<path d="M717.674 412.334H717.309L557.149 394.47C556.7 394.417 556.268 394.262 555.887 394.018C555.505 393.774 555.184 393.447 554.947 393.062C554.702 392.674 554.547 392.237 554.494 391.781C554.441 391.326 554.491 390.864 554.641 390.431L603.21 241.464C605.99 232.933 611.401 225.503 618.666 220.238C625.932 214.974 634.678 212.146 643.65 212.16H726.119C732.838 212.116 739.469 213.688 745.453 216.744C751.437 219.8 756.599 224.249 760.504 229.718C764.477 235.141 767.094 241.436 768.137 248.077C769.18 254.718 768.618 261.512 766.499 267.892L720.55 410.25C720.351 410.855 719.965 411.383 719.449 411.757C718.933 412.131 718.312 412.333 717.674 412.334ZM561.609 388.777L715.533 405.968L760.683 265.996C762.469 260.536 762.935 254.731 762.045 249.057C761.154 243.382 758.931 237.999 755.559 233.349C752.186 228.699 747.76 224.914 742.642 222.305C737.524 219.696 731.861 218.337 726.117 218.339H643.65C635.968 218.329 628.482 220.759 622.27 225.278C616.058 229.797 611.441 236.171 609.085 243.483L561.609 388.777Z" fill="#F9D5FF"/>
<path d="M505.326 419.182H704.399C707.391 419.176 710.302 418.21 712.703 416.426C715.104 414.642 716.87 412.134 717.739 409.271C718.36 407.195 718.487 405.003 718.109 402.869C717.731 400.735 716.859 398.72 715.563 396.984C714.266 395.248 712.581 393.839 710.643 392.871C708.704 391.902 706.566 391.401 704.399 391.408H505.326C501.646 391.416 498.119 392.882 495.516 395.483C492.914 398.085 491.448 401.612 491.438 405.292C491.431 407.117 491.785 408.927 492.481 410.615C493.176 412.303 494.199 413.837 495.49 415.128C496.781 416.419 498.314 417.442 500.002 418.138C501.691 418.834 503.5 419.189 505.326 419.182Z" fill="white"/>
<path d="M704.399 422.24H505.326C503.076 422.279 500.841 421.869 498.752 421.035C496.662 420.201 494.76 418.959 493.155 417.381C491.551 415.804 490.277 413.923 489.407 411.849C488.537 409.774 488.089 407.546 488.089 405.297C488.089 403.047 488.537 400.82 489.407 398.745C490.277 396.67 491.551 394.789 493.155 393.212C494.76 391.635 496.662 390.393 498.752 389.559C500.841 388.724 503.076 388.315 505.326 388.353H704.399C707.04 388.348 709.646 388.961 712.008 390.142C714.371 391.323 716.424 393.04 718.005 395.156C719.586 397.272 720.65 399.728 721.113 402.328C721.576 404.928 721.425 407.601 720.672 410.132C719.605 413.622 717.451 416.679 714.523 418.858C711.596 421.036 708.048 422.221 704.399 422.24ZM505.326 394.466C502.47 394.491 499.74 395.643 497.729 397.671C495.719 399.699 494.591 402.439 494.591 405.295C494.591 408.15 495.719 410.89 497.729 412.918C499.74 414.946 502.47 416.098 505.326 416.123H704.399C706.405 416.129 708.373 415.577 710.083 414.53C711.794 413.483 713.18 411.981 714.087 410.192C714.995 408.403 715.387 406.397 715.221 404.398C715.055 402.4 714.337 400.486 713.147 398.871C712.142 397.497 710.824 396.381 709.304 395.615C707.783 394.849 706.102 394.455 704.399 394.466H505.326Z" fill="#F9D5FF"/>
<path d="M677.877 299.118L679.186 351.365C679.318 356.64 678.39 361.888 676.456 366.797C674.523 371.707 671.624 376.179 667.931 379.947C664.238 383.715 659.826 386.704 654.957 388.736C650.088 390.767 644.86 391.801 639.585 391.774L597.928 391.566L631.896 285.969L677.877 299.118Z" fill="#EDAD94"/>
<path d="M575.869 110.674C572.031 126.377 549.214 153.803 555.355 176.414C559.053 190.023 560.378 207.958 549.214 231.475C541.609 247.456 580.404 244.874 597.429 227.916C614.453 210.958 607.337 155.407 607.337 155.407L575.869 110.674Z" fill="#2B2B2B"/>
<path d="M478.951 235.385L543.354 247.736L520.541 251.507L578.315 211.31C581.211 209.294 584.475 207.868 587.922 207.113C591.368 206.359 594.929 206.29 598.402 206.913C601.875 207.535 605.192 208.835 608.162 210.739C611.133 212.643 613.699 215.113 615.715 218.009C617.731 220.905 619.157 224.17 619.911 227.617C620.666 231.064 620.734 234.626 620.112 238.1C619.49 241.573 618.19 244.89 616.286 247.861C614.383 250.832 611.912 253.399 609.017 255.415L551.243 295.613L549.428 296.87C546.402 298.952 542.913 300.263 539.265 300.688C535.617 301.114 531.92 300.641 528.496 299.312L469.535 276.212L478.951 235.385Z" fill="url(#paint0_linear_315_499)"/>
<path d="M561.077 302.24C560.866 270.906 582.427 272.164 573.915 251.156C566.656 233.148 572.45 208.865 589.405 202.095C592.408 200.929 595.603 200.337 598.825 200.351C617.385 200.211 618.641 199.444 626.456 199.374C630.514 199.365 634.545 200.025 638.387 201.328C656.392 207.679 667.275 228.266 661.553 247.946C660.356 251.974 659.815 256.168 659.95 260.368C660.159 267.487 677.672 277.811 677.882 299.307L561.077 302.24Z" fill="url(#paint1_linear_315_499)"/>
<path d="M638.527 201.328C638.016 205.449 636.441 209.366 633.958 212.694C631.475 216.023 628.169 218.647 624.364 220.31L606.502 228.197C604.674 228.995 602.677 229.327 600.689 229.164C598.701 229.001 596.785 228.347 595.112 227.262C593.439 226.176 592.061 224.692 591.102 222.943C590.143 221.194 589.632 219.235 589.616 217.24L589.476 202.096C592.479 200.929 595.675 200.338 598.896 200.351C617.457 200.212 618.712 199.444 626.528 199.375C630.61 199.337 634.668 199.997 638.527 201.328Z" fill="white"/>
<path d="M627.642 252.482L608.454 288.702L652.901 297.216L660.716 282.561L627.642 252.482Z" fill="#2B2B2B"/>
<path d="M570.147 274.605C570.017 274.611 569.888 274.589 569.767 274.54C569.647 274.491 569.538 274.417 569.449 274.322C569.255 274.131 569.14 273.875 569.127 273.603C569.114 273.331 569.204 273.065 569.38 272.857C572.086 270.12 573.891 266.622 574.552 262.83C575.213 259.038 574.699 255.134 573.078 251.643C573.009 251.524 572.965 251.392 572.949 251.255C572.932 251.118 572.943 250.98 572.981 250.847C573.018 250.715 573.082 250.592 573.168 250.484C573.255 250.377 573.362 250.288 573.483 250.223C573.604 250.158 573.737 250.117 573.874 250.104C574.011 250.091 574.149 250.106 574.281 250.147C574.412 250.189 574.534 250.256 574.639 250.345C574.744 250.434 574.829 250.543 574.891 250.666C574.961 250.806 581.241 263.228 570.914 274.254C570.714 274.467 570.439 274.592 570.147 274.605Z" fill="#2B2B2B"/>
<path d="M639.576 391.652L550.683 391.36L586.127 353.674L582.922 572.946L530.799 572.179C529.962 567.572 529.334 563.033 528.567 558.431L526.61 544.682C525.285 535.537 524.168 526.398 523.051 517.186C520.888 498.901 519.005 480.547 517.329 462.263C516.562 453.118 515.727 443.979 515.028 434.837L513.978 421.093L513.001 407.344C511.744 389.06 510.674 370.776 509.791 352.492C509.385 344.288 511.905 336.206 516.902 329.688C521.898 323.17 529.047 318.638 537.074 316.9L544.819 315.225C552.005 313.689 559.192 312.364 566.379 311.178C573.566 310.061 580.823 309.084 588.01 308.386C595.268 307.688 602.527 307.199 609.779 307.129H615.221C617.035 307.199 618.849 307.199 620.663 307.27C622.478 307.34 624.292 307.409 626.175 307.553L628.897 307.835L630.293 307.975L678.024 304.984L679.333 350.881C679.483 356.191 678.565 361.477 676.633 366.425C674.701 371.374 671.794 375.883 668.086 379.686C664.377 383.489 659.943 386.508 655.045 388.563C650.148 390.619 644.887 391.669 639.576 391.652Z" fill="url(#paint2_linear_315_499)"/>
<path d="M591.742 360.711L636.078 391.774H641.152L646.567 391.345L651.803 390.081L657.744 387.583L662.2 384.782L664.909 383.089L662.886 348.963L591.742 360.711Z" fill="#2B2B2B"/>
<path d="M664.909 383.089L538.818 342.717L581.662 328.62L451.738 492.97L412.385 455.634C419.502 439.932 459.554 386.265 467.857 371.471C472.043 364.073 476.16 356.676 480.488 349.348L486.838 338.322L493.327 327.365C501.979 312.78 510.771 298.31 519.702 283.957C523.486 277.889 529.071 273.154 535.676 270.414C542.28 267.674 549.576 267.066 556.543 268.674L562.056 270C574.615 272.931 587.037 276.141 599.455 279.421C611.876 282.841 624.226 286.261 636.436 290.099C648.717 293.87 678.027 304.974 678.027 304.974L664.909 383.089Z" fill="url(#paint3_linear_315_499)"/>
<path d="M493.604 440.001L509.791 364.142L520.676 405.806L493.604 440.001Z" fill="#2B2B2B"/>
<path d="M546.423 332.737C546.132 332.726 545.856 332.6 545.656 332.389L537.911 323.945C537.726 323.741 537.629 323.472 537.642 323.197C537.655 322.922 537.777 322.664 537.981 322.479C538.185 322.294 538.453 322.197 538.728 322.211C539.003 322.224 539.261 322.346 539.446 322.549L547.191 330.993C547.286 331.092 547.36 331.21 547.408 331.338C547.456 331.467 547.477 331.604 547.471 331.741C547.464 331.878 547.43 332.012 547.37 332.136C547.31 332.259 547.225 332.369 547.121 332.458C547.032 332.553 546.924 332.627 546.803 332.675C546.682 332.723 546.553 332.744 546.423 332.737Z" fill="#2B2B2B"/>
<path d="M588.777 183.114L610.407 181.788C613.07 181.629 615.675 180.947 618.074 179.78C620.472 178.613 622.617 176.985 624.387 174.989C626.156 172.992 627.514 170.667 628.384 168.145C629.254 165.623 629.618 162.954 629.456 160.291L627.503 127.631C627.248 123.369 626.156 119.199 624.289 115.359C622.422 111.519 619.817 108.085 616.622 105.253C613.427 102.421 609.706 100.246 605.67 98.8535C601.635 97.461 597.364 96.8778 593.103 97.1371C588.841 97.3912 584.672 98.483 580.832 100.35C576.993 102.217 573.559 104.822 570.727 108.018C567.895 111.213 565.721 114.935 564.328 118.971C562.936 123.008 562.352 127.279 562.611 131.541L564.425 161.479C564.603 164.499 565.375 167.455 566.695 170.176C568.015 172.898 569.859 175.333 572.12 177.342C574.382 179.351 577.017 180.894 579.875 181.885C582.733 182.875 585.758 183.293 588.777 183.114Z" fill="#FDC068"/>
<path d="M608.104 219.124L635.317 207.191L628.688 145.638L594.15 147.731L594.708 210.401C594.713 211.987 595.113 213.547 595.871 214.94C596.629 216.333 597.722 217.516 599.051 218.381C600.38 219.247 601.903 219.768 603.484 219.897C605.064 220.027 606.652 219.761 608.104 219.124Z" fill="#FDC068"/>
<path d="M566.798 144.661C568.84 144.661 570.496 143.005 570.496 140.962C570.496 138.92 568.84 137.264 566.798 137.264C564.755 137.264 563.1 138.92 563.1 140.962C563.1 143.005 564.755 144.661 566.798 144.661Z" fill="#2B2B2B"/>
<path d="M576.357 151.5C576.214 151.512 576.07 151.487 575.939 151.43L572.801 149.755C572.414 149.506 572.084 149.179 571.831 148.794C571.579 148.409 571.41 147.976 571.335 147.522C571.19 146.59 571.416 145.638 571.964 144.87L576.22 139.078C576.288 138.979 576.374 138.895 576.475 138.831C576.575 138.766 576.688 138.722 576.806 138.702C576.923 138.681 577.044 138.684 577.161 138.71C577.277 138.737 577.387 138.786 577.484 138.856C577.582 138.925 577.664 139.013 577.727 139.115C577.79 139.217 577.832 139.33 577.85 139.448C577.869 139.566 577.864 139.687 577.836 139.803C577.807 139.919 577.756 140.028 577.685 140.124L573.428 145.917C573.294 146.094 573.2 146.298 573.151 146.514C573.102 146.731 573.1 146.955 573.146 147.173C573.172 147.372 573.241 147.563 573.35 147.732C573.458 147.901 573.603 148.044 573.773 148.151L576.774 149.753C576.988 149.873 577.149 150.068 577.227 150.3C577.304 150.532 577.292 150.785 577.193 151.009C577.102 151.151 576.979 151.27 576.834 151.355C576.689 151.441 576.525 151.49 576.357 151.5Z" fill="#2B2B2B"/>
<path d="M576.706 164.481H576.148C575.216 164.343 574.322 164.018 573.519 163.526C572.715 163.035 572.019 162.386 571.472 161.619C571.408 161.518 571.365 161.406 571.344 161.288C571.323 161.17 571.326 161.05 571.352 160.933C571.378 160.816 571.427 160.706 571.495 160.608C571.564 160.51 571.651 160.427 571.752 160.363C571.853 160.299 571.965 160.255 572.083 160.234C572.201 160.214 572.321 160.216 572.438 160.242C572.554 160.268 572.665 160.317 572.763 160.386C572.86 160.454 572.944 160.542 573.008 160.642C573.814 161.744 575.014 162.494 576.357 162.736C577.822 162.876 579.358 162.108 580.962 160.503C581.13 160.341 581.354 160.251 581.587 160.253C581.82 160.255 582.043 160.349 582.207 160.513C582.372 160.678 582.465 160.901 582.467 161.134C582.469 161.367 582.38 161.591 582.218 161.759C580.404 163.574 578.52 164.481 576.706 164.481Z" fill="#2B2B2B"/>
<path d="M587.87 143.544C589.912 143.544 591.568 141.888 591.568 139.845C591.568 137.802 589.912 136.146 587.87 136.146C585.828 136.146 584.172 137.802 584.172 139.845C584.172 141.888 585.828 143.544 587.87 143.544Z" fill="#2B2B2B"/>
<path d="M649.621 244.178L713.326 237.548L698.533 286.818L641.109 248.993C638.144 247.063 635.591 244.566 633.594 241.646C631.597 238.726 630.197 235.44 629.473 231.977C628.75 228.514 628.718 224.942 629.379 221.466C630.04 217.991 631.381 214.68 633.325 211.725C635.269 208.769 637.778 206.227 640.707 204.244C643.636 202.261 646.928 200.876 650.394 200.17C653.86 199.463 657.431 199.448 660.903 200.126C664.375 200.804 667.678 202.161 670.624 204.12L728.049 241.944L730.351 243.48C735.238 246.693 738.905 251.455 740.764 257.001C742.624 262.547 742.568 268.557 740.605 274.067C738.642 279.578 734.887 284.269 729.94 287.391C724.994 290.512 719.143 291.882 713.326 291.281L655.063 284.93L649.621 244.178Z" fill="url(#paint4_linear_315_499)"/>
<path d="M660.715 255.134C660.534 255.141 660.355 255.099 660.196 255.014C660.036 254.928 659.902 254.801 659.809 254.646L649.9 239.363C649.82 239.249 649.764 239.12 649.734 238.983C649.705 238.847 649.704 238.706 649.73 238.57C649.757 238.433 649.81 238.303 649.888 238.187C649.966 238.071 650.066 237.973 650.183 237.897C650.418 237.75 650.699 237.698 650.971 237.75C651.243 237.803 651.484 237.956 651.648 238.179L661.552 253.458C661.632 253.572 661.689 253.701 661.718 253.837C661.747 253.973 661.748 254.114 661.722 254.251C661.696 254.387 661.642 254.517 661.564 254.633C661.487 254.748 661.386 254.847 661.27 254.923C661.119 255.063 660.921 255.138 660.715 255.134Z" fill="#2B2B2B"/>
<path d="M677.741 264.489C677.744 268.809 676.644 273.057 674.543 276.832C672.442 280.606 669.412 283.78 665.739 286.053L655.063 284.866C655.063 284.866 646.621 274.049 646.621 265.675C646.621 255.346 649.621 244.179 649.621 244.179L665.111 242.576C668.949 244.804 672.136 248 674.352 251.845C676.568 255.691 677.737 260.05 677.741 264.489Z" fill="white"/>
<path d="M516.28 592.556H573.148C575.566 592.555 577.886 591.603 579.609 589.906C581.332 588.209 582.319 585.903 582.357 583.484L582.567 571.341L529.887 571.829L515.094 583.345C509.721 584.673 510.699 592.556 516.28 592.556Z" fill="#2B2B2B"/>
<path d="M373.73 448.096L430.108 501.344C431.82 503.047 434.133 504.009 436.548 504.022C438.963 504.035 441.286 503.098 443.016 501.414L451.738 492.97L412.385 455.634L379.381 440.703C374.636 437.907 369.822 444.192 373.73 448.096Z" fill="#2B2B2B"/>
<path d="M585.009 98.043C583.544 107.603 569.38 125.05 562.611 126.935C562.681 126.935 563.867 102.579 585.009 98.043Z" fill="#2B2B2B"/>
<path d="M515.373 440.001C515.373 434.977 511.603 401.967 509.372 372.866C508.666 363.401 511.524 354.014 517.386 346.55C523.248 339.085 531.689 334.084 541.051 332.528C546.479 331.641 552.036 331.946 557.335 333.421C562.634 334.897 567.549 337.508 571.738 341.074C575.927 344.639 579.29 349.074 581.594 354.07C583.897 359.066 585.087 364.503 585.079 370.005L585.009 422.275L515.373 440.001Z" fill="url(#paint5_linear_315_499)"/>
<path d="M567.914 338.879L604.686 371.749L581.311 372.307L567.914 338.879Z" fill="url(#paint6_linear_315_499)"/>
<path d="M585.218 390.8C584.943 390.794 584.681 390.681 584.486 390.486C584.291 390.291 584.179 390.029 584.172 389.754V376.425C584.172 376.147 584.282 375.881 584.478 375.685C584.675 375.489 584.941 375.378 585.218 375.378C585.496 375.378 585.762 375.489 585.958 375.685C586.154 375.881 586.265 376.147 586.265 376.425V389.754C586.258 390.029 586.146 390.291 585.951 390.486C585.756 390.681 585.494 390.794 585.218 390.8Z" fill="#2B2B2B"/>
<path d="M577.891 100.835C566.518 109.98 587.799 126.103 601.476 136.147C618.43 148.639 597.498 200.142 624.013 226.521C650.527 252.901 662.945 216.752 690.299 217.519C696.858 217.659 676.972 209.982 669.715 176.695C664.413 152.409 639.572 150.107 637.13 139.642C636.363 136.222 633.782 117.031 621.222 104.818C609.5 93.4374 593.173 88.5517 577.891 100.835Z" fill="#2B2B2B"/>
<path d="M469.531 276.28L451.877 269.371C447.362 267.605 443.67 264.216 441.524 259.868C439.379 255.52 438.935 250.527 440.281 245.868C441.627 241.21 444.665 237.223 448.798 234.689C452.932 232.156 457.863 231.259 462.624 232.174L479.021 235.315L469.531 276.28Z" fill="#FDC068"/>
<path d="M651.365 284.794L641.388 283.747C630.782 282.631 622.688 273.282 623.666 262.601C624.069 258.108 626.024 253.895 629.194 250.686C632.364 247.477 636.553 245.472 641.04 245.015L649.618 244.108C653.166 243.759 656.717 244.728 659.596 246.83L661.829 248.432C665.313 251.005 667.828 254.678 668.967 258.857C670.107 263.036 669.804 267.477 668.109 271.463L666.085 276.138C664.892 278.976 662.815 281.351 660.162 282.911C657.51 284.471 654.424 285.131 651.365 284.794Z" fill="#FDC068"/>
<path d="M519.42 253.529C519.257 253.534 519.096 253.498 518.95 253.425C518.804 253.352 518.678 253.244 518.583 253.111C518.426 252.885 518.359 252.609 518.398 252.336C518.437 252.064 518.578 251.817 518.793 251.645L528.561 244.668C528.784 244.501 529.063 244.43 529.338 244.469C529.612 244.508 529.86 244.655 530.027 244.877C530.193 245.1 530.265 245.379 530.225 245.654C530.186 245.929 530.039 246.177 529.817 246.343L520.048 253.32C519.865 253.451 519.646 253.524 519.42 253.529Z" fill="#2B2B2B"/>
<path d="M667.135 243.41C666.88 243.41 666.635 243.319 666.442 243.152C666.25 242.986 666.124 242.755 666.088 242.503C666.068 242.369 666.077 242.233 666.113 242.103C666.149 241.972 666.212 241.851 666.297 241.746C666.382 241.641 666.488 241.555 666.609 241.493C666.729 241.431 666.86 241.395 666.995 241.386L700.837 237.827C700.971 237.808 701.107 237.816 701.238 237.852C701.368 237.888 701.489 237.951 701.594 238.036C701.699 238.122 701.785 238.228 701.847 238.348C701.909 238.468 701.945 238.6 701.953 238.735C701.979 239.003 701.898 239.27 701.729 239.479C701.559 239.688 701.314 239.821 701.046 239.851L667.205 243.41H667.135Z" fill="#2B2B2B"/>
<path d="M478.951 235.385L469.531 276.28L480.904 280.746L490.115 237.548L478.951 235.385Z" fill="white"/>
<path d="M508.605 371.19C508.33 371.184 508.068 371.071 507.873 370.876C507.678 370.682 507.566 370.419 507.559 370.144C507.489 351.232 521.863 334.694 540.981 331.551H541.121C545.937 330.847 550.846 331.913 554.936 334.552L594.29 359.82C594.411 359.892 594.518 359.988 594.602 360.101C594.686 360.215 594.747 360.344 594.781 360.481C594.815 360.619 594.821 360.761 594.8 360.901C594.778 361.041 594.728 361.175 594.654 361.296C594.58 361.416 594.483 361.521 594.368 361.603C594.253 361.685 594.122 361.744 593.984 361.775C593.846 361.807 593.704 361.811 593.564 361.786C593.425 361.762 593.292 361.71 593.173 361.634L553.82 336.366C550.117 333.991 545.685 333.025 541.33 333.645H541.19C523.118 336.646 509.582 352.278 509.652 370.144C509.645 370.419 509.532 370.682 509.338 370.876C509.143 371.071 508.881 371.184 508.605 371.19Z" fill="#2B2B2B"/>
<path d="M592.684 185.138C592.44 185.142 592.201 185.06 592.01 184.907C591.82 184.754 591.688 184.54 591.638 184.3C591.594 184.032 591.657 183.758 591.814 183.536C591.97 183.314 592.208 183.162 592.475 183.113L602.732 181.369C602.866 181.344 603.004 181.345 603.137 181.373C603.27 181.402 603.397 181.456 603.509 181.534C603.621 181.611 603.716 181.711 603.79 181.826C603.863 181.941 603.913 182.069 603.936 182.203C603.959 182.338 603.955 182.475 603.925 182.608C603.894 182.741 603.837 182.867 603.758 182.977C603.678 183.088 603.577 183.182 603.461 183.253C603.345 183.324 603.216 183.372 603.081 183.393L592.824 185.138H592.684Z" fill="#2B2B2B"/>
<path d="M354.082 296.42H339.863V592.556H354.082V296.42Z" fill="#F9D5FF"/>
<path d="M278.723 296.42H264.504V592.556H278.723V296.42Z" fill="#F9D5FF"/>
<path d="M278.723 293.646H264.504V314.057H278.723V293.646Z" fill="#2B2B2B"/>
<path d="M354.082 293.646H339.863V314.057H354.082V293.646Z" fill="#2B2B2B"/>
<path d="M798.487 286.748H264.504V296.42H798.487V286.748Z" fill="#2B2B2B"/>
<path d="M798.061 296.42H783.842V592.556H798.061V296.42Z" fill="#F9D5FF"/>
<path d="M722.701 296.42H708.483V592.556H722.701V296.42Z" fill="#F9D5FF"/>
<path d="M722.701 293.646H708.483V314.057H722.701V293.646Z" fill="#2B2B2B"/>
<path d="M798.061 293.646H783.842V314.057H798.061V293.646Z" fill="#2B2B2B"/>
<path d="M559.488 69.7107H333.982C332.213 69.7087 330.461 70.0564 328.826 70.7341C327.191 71.4118 325.706 72.4061 324.455 73.66C323.204 74.914 322.212 76.4029 321.536 78.0417C320.86 79.6804 320.513 81.4366 320.516 83.2099V229.781C320.513 231.555 320.86 233.311 321.536 234.95C322.212 236.588 323.204 238.077 324.455 239.331C325.706 240.585 327.191 241.58 328.826 242.257C330.461 242.935 332.213 243.283 333.982 243.281H559.583C563.141 243.265 566.548 241.834 569.054 239.303C571.561 236.772 572.964 233.348 572.954 229.781V83.2099C572.956 81.4366 572.61 79.6804 571.934 78.0417C571.258 76.4029 570.266 74.914 569.015 73.66C567.764 72.4061 566.279 71.4118 564.644 70.7341C563.009 70.0564 561.257 69.7087 559.488 69.7107Z" fill="#2B2B2B"/>
<path d="M546.116 241.845H321.661C320.005 241.846 318.365 241.521 316.835 240.886C315.304 240.251 313.914 239.321 312.743 238.147C311.572 236.973 310.643 235.579 310.01 234.045C309.377 232.511 309.052 230.867 309.053 229.207V83.6883C309.051 82.0282 309.376 80.3841 310.009 78.85C310.642 77.316 311.571 75.9221 312.742 74.7483C313.913 73.5744 315.304 72.6436 316.834 72.0091C318.365 71.3746 320.005 71.0488 321.661 71.0505H546.116C547.772 71.049 549.412 71.3749 550.942 72.0094C552.473 72.644 553.863 73.5748 555.034 74.7486C556.206 75.9225 557.134 77.3163 557.767 78.8502C558.4 80.3842 558.725 82.0283 558.724 83.6883V229.207C558.695 232.55 557.357 235.747 554.999 238.111C552.64 240.475 549.451 241.815 546.116 241.845Z" fill="white"/>
<path d="M546.116 243.281H321.661C317.94 243.274 314.372 241.789 311.74 239.151C309.109 236.514 307.627 232.938 307.621 229.207V83.6884C307.627 79.9579 309.109 76.3821 311.74 73.7442C314.372 71.1063 317.94 69.6215 321.661 69.615H546.116C549.837 69.6215 553.405 71.1063 556.037 73.7442C558.668 76.3821 560.15 79.9579 560.156 83.6884V229.207C560.116 232.927 558.624 236.484 556 239.114C553.375 241.745 549.827 243.241 546.116 243.281ZM321.661 72.4876C320.192 72.4815 318.736 72.767 317.378 73.3277C316.019 73.8884 314.785 74.7132 313.746 75.7545C312.707 76.7959 311.884 78.0331 311.325 79.3948C310.765 80.7565 310.481 82.2158 310.487 83.6884V229.207C310.481 230.68 310.765 232.139 311.325 233.501C311.884 234.863 312.707 236.1 313.746 237.141C314.785 238.182 316.019 239.007 317.378 239.568C318.736 240.129 320.192 240.414 321.661 240.408H546.116C549.068 240.372 551.889 239.18 553.977 237.087C556.065 234.995 557.254 232.167 557.29 229.207V83.6884C557.296 82.2158 557.012 80.7565 556.452 79.3948C555.893 78.0331 555.07 76.7959 554.031 75.7545C552.992 74.7132 551.758 73.8884 550.399 73.3277C549.041 72.767 547.585 72.4815 546.116 72.4876H321.661Z" fill="#2B2B2B"/>
<path d="M458.817 155.108C458.489 155.047 458.15 155.099 457.855 155.256C457.561 155.412 457.327 155.664 457.193 155.97L422.236 241.271C422.155 241.488 422.122 241.72 422.138 241.951C422.155 242.182 422.221 242.407 422.331 242.611C422.456 242.805 422.624 242.968 422.824 243.084C423.023 243.201 423.247 243.268 423.477 243.281H458.435C458.812 243.272 459.171 243.118 459.438 242.85C459.705 242.583 459.859 242.223 459.868 241.845V156.543C459.898 156.216 459.808 155.89 459.614 155.626C459.42 155.361 459.137 155.177 458.817 155.108Z" fill="#2B2B2B"/>
<path d="M489.095 287.798H390.144C388.578 287.797 387.032 287.439 385.624 286.752C384.216 286.064 382.982 285.065 382.016 283.829C381.05 282.593 380.377 281.153 380.048 279.618C379.718 278.083 379.742 276.494 380.115 274.969L409.149 156.543H458.53L431.31 267.406C430.93 268.939 430.906 270.539 431.239 272.082C431.572 273.626 432.254 275.072 433.231 276.311C434.209 277.549 435.456 278.547 436.878 279.227C438.3 279.907 439.859 280.252 441.434 280.234L490.432 280.139C491.101 280.139 490.432 285.787 490.432 286.458C490.436 286.635 490.405 286.811 490.339 286.976C490.273 287.14 490.175 287.29 490.05 287.415C489.925 287.54 489.776 287.639 489.612 287.705C489.448 287.771 489.272 287.802 489.095 287.798Z" fill="white"/>
<path d="M489.095 289.234H390.144C388.359 289.247 386.594 288.848 384.988 288.068C383.381 287.288 381.975 286.147 380.879 284.734C379.775 283.337 379.01 281.701 378.645 279.957C378.281 278.212 378.326 276.406 378.777 274.682L408.1 155.203H460.441L432.742 267.885C432.407 269.201 432.379 270.576 432.661 271.905C432.943 273.233 433.526 274.478 434.367 275.543C435.194 276.625 436.267 277.493 437.496 278.076C438.725 278.659 440.075 278.939 441.434 278.895L490.432 278.799C490.645 278.797 490.857 278.838 491.054 278.921C491.251 279.003 491.429 279.124 491.578 279.277C492.246 279.947 492.342 281.193 491.965 285.596C491.954 285.917 491.922 286.237 491.87 286.554C491.849 287.276 491.547 287.961 491.028 288.462C490.51 288.963 489.816 289.24 489.095 289.234ZM410.297 157.98L381.548 275.352C381.208 276.652 381.178 278.014 381.46 279.328C381.741 280.642 382.328 281.871 383.171 282.916C383.995 283.983 385.051 284.847 386.258 285.445C387.466 286.042 388.793 286.356 390.139 286.363H488.995C488.993 285.977 489.025 285.592 489.09 285.213C489.186 284.447 489.281 282.626 489.281 281.576L441.429 281.671C439.635 281.714 437.856 281.339 436.231 280.574C434.607 279.81 433.182 278.678 432.068 277.267C430.951 275.858 430.171 274.21 429.791 272.45C429.41 270.69 429.439 268.866 429.875 267.119L456.62 158.076H410.296L410.297 157.98Z" fill="#2B2B2B"/>
<defs>
<linearGradient id="paint0_linear_315_499" x1="545.017" y1="327.783" x2="545.017" y2="137.262" gradientUnits="userSpaceOnUse">
<stop stop-color="#EA979A"/>
<stop offset="0.409" stop-color="#F2D38B"/>
<stop offset="0.499" stop-color="#7E9DAE"/>
<stop offset="0.599" stop-color="#90979D"/>
<stop offset="1" stop-color="#7EBDDB"/>
</linearGradient>
<linearGradient id="paint1_linear_315_499" x1="31189.8" y1="-55726" x2="31189.8" y2="-76512.7" gradientUnits="userSpaceOnUse">
<stop stop-color="#EA979A"/>
<stop offset="0.409" stop-color="#F2D38B"/>
<stop offset="0.499" stop-color="#7E9DAE"/>
<stop offset="0.599" stop-color="#90979D"/>
<stop offset="1" stop-color="#7EBDDB"/>
</linearGradient>
<linearGradient id="paint2_linear_315_499" x1="594.55" y1="587.509" x2="594.55" y2="263.953" gradientUnits="userSpaceOnUse">
<stop stop-color="#9774AC"/>
<stop offset="0.401" stop-color="#47A6D3"/>
<stop offset="0.501" stop-color="#A7A7AE"/>
<stop offset="0.591" stop-color="#E89AC0"/>
<stop offset="1" stop-color="#BFE7D1"/>
</linearGradient>
<linearGradient id="paint3_linear_315_499" x1="49138" y1="-60150.3" x2="49138" y2="-136804" gradientUnits="userSpaceOnUse">
<stop stop-color="#9774AC"/>
<stop offset="0.401" stop-color="#47A6D3"/>
<stop offset="0.501" stop-color="#A7A7AE"/>
<stop offset="0.591" stop-color="#E89AC0"/>
<stop offset="1" stop-color="#BFE7D1"/>
</linearGradient>
<linearGradient id="paint4_linear_315_499" x1="38250.5" y1="-49704.2" x2="38250.5" y2="-68252.8" gradientUnits="userSpaceOnUse">
<stop stop-color="#EA979A"/>
<stop offset="0.409" stop-color="#F2D38B"/>
<stop offset="0.499" stop-color="#7E9DAE"/>
<stop offset="0.599" stop-color="#90979D"/>
<stop offset="1" stop-color="#7EBDDB"/>
</linearGradient>
<linearGradient id="paint5_linear_315_499" x1="14573.4" y1="-28637.9" x2="14573.4" y2="-65392.8" gradientUnits="userSpaceOnUse">
<stop stop-color="#9774AC"/>
<stop offset="0.401" stop-color="#47A6D3"/>
<stop offset="0.501" stop-color="#A7A7AE"/>
<stop offset="0.591" stop-color="#E89AC0"/>
<stop offset="1" stop-color="#BFE7D1"/>
</linearGradient>
<linearGradient id="paint6_linear_315_499" x1="8915.98" y1="-8630.37" x2="8915.98" y2="-20009.9" gradientUnits="userSpaceOnUse">
<stop stop-color="#9774AC"/>
<stop offset="0.401" stop-color="#47A6D3"/>
<stop offset="0.501" stop-color="#A7A7AE"/>
<stop offset="0.591" stop-color="#E89AC0"/>
<stop offset="1" stop-color="#BFE7D1"/>
</linearGradient>
</defs>
</svg>
