<svg width="30" height="28" viewBox="0 0 30 28" fill="none" xmlns="http://www.w3.org/2000/svg">
<g clip-path="url(#clip0_310_1311)">
<path d="M10.7008 7.77911L14.3044 0.702236C14.7846 -0.241632 16.1317 -0.224549 16.5864 0.736403L19.986 7.91578C20.1645 8.29589 20.5215 8.56069 20.9337 8.62902L28.7443 9.88466C29.7855 10.0512 30.1849 11.3496 29.42 12.0756L23.6789 17.5424C23.3729 17.8328 23.2327 18.2514 23.2964 18.6699L24.5245 26.5241C24.686 27.5704 23.5854 28.352 22.659 27.8481L15.711 24.047C15.3413 23.8462 14.8994 23.8377 14.5254 24.0299L7.47118 27.6302C6.53203 28.1086 5.4484 27.2971 5.64388 26.255L7.09297 18.4393C7.16946 18.025 7.03773 17.5979 6.74451 17.3032L1.15213 11.6656C0.408459 10.914 0.841911 9.63268 1.8873 9.49174L9.73193 8.46246C10.1484 8.40693 10.5096 8.15068 10.7008 7.77911Z" fill="#FCCC21"/>
</g>
<defs>
<clipPath id="clip0_310_1311">
<rect width="29.037" height="28" fill="white" transform="translate(0.777771 0.000976562)"/>
</clipPath>
</defs>
</svg>
