<svg width="268" height="242" viewBox="0 0 268 242" fill="none" xmlns="http://www.w3.org/2000/svg">
<path d="M185.353 175.02C185.232 174.988 185.114 174.946 184.997 174.889C184.131 174.457 183.782 173.408 184.214 172.544C184.271 172.426 190.141 160.463 190.647 144.31C190.943 134.883 189.377 125.879 185.996 117.552C181.765 107.136 174.655 97.7315 164.863 89.5949C155.354 81.6967 144.996 76.6749 134.075 74.663C125.333 73.0547 116.193 73.3567 106.91 75.5656C91.0008 79.3479 80.0446 87.5226 79.9364 87.6052C79.1666 88.1869 78.0691 88.0343 77.4869 87.2652C76.9047 86.496 77.0542 85.3995 77.8241 84.8178C78.2886 84.4682 89.3815 76.1695 105.972 72.1966C115.748 69.8541 125.387 69.5236 134.628 71.2113C146.176 73.3217 157.104 78.6041 167.099 86.9092C177.365 95.4399 184.825 105.337 189.269 116.322C192.829 125.123 194.467 134.626 194.14 144.565C193.58 161.448 187.602 173.596 187.348 174.107C186.972 174.854 186.136 175.217 185.353 175.02Z" fill="#479CEF"/>
<path d="M232.569 145.632C232.324 145.572 232.089 145.454 231.879 145.283L97.5987 33.7096C96.8543 33.093 96.7557 31.9901 97.3728 31.2464C97.99 30.5027 99.0939 30.4041 99.8383 31.0207L234.118 142.591C234.863 143.207 234.961 144.31 234.344 145.054C233.899 145.588 233.202 145.791 232.569 145.632Z" fill="#479CEF"/>
<path d="M91.2565 84.9651L77.9793 73.9341L66.739 87.4387L80.0161 98.4697L91.2565 84.9651Z" fill="#00D8DD"/>
<path d="M93.0336 39.0113C89.3688 35.9664 88.8662 30.5283 91.917 26.8636L92.1174 26.6221C95.165 22.9606 100.608 22.4584 104.276 25.5065C107.941 28.5513 108.444 33.9895 105.393 37.6541L105.192 37.8957C102.141 41.5572 96.6984 42.0593 93.0336 39.0113Z" fill="#00D8DD"/>
<path d="M227.317 150.581C223.652 147.536 223.149 142.098 226.2 138.433L226.4 138.192C229.448 134.53 234.891 134.028 238.559 137.076C242.224 140.121 242.727 145.559 239.676 149.224L239.475 149.466C236.425 153.127 230.981 153.629 227.317 150.581Z" fill="#00D8DD"/>
<path d="M178.787 87.5232L165.51 76.4922L154.27 89.9968L167.547 101.028L178.787 87.5232Z" fill="#00D8DD"/>
<path d="M197.265 173.043L183.988 162.012L172.747 175.516L186.024 186.547L197.265 173.043Z" fill="#00D8DD"/>
<path d="M122.474 121.308L28.178 206.72C26.1435 208.563 25.9909 211.703 27.8336 213.735L30.0068 216.131C31.8518 218.163 34.9937 218.316 37.0282 216.475L131.405 130.989L122.474 121.308Z" fill="#479CEF"/>
<path d="M167.751 91.9082L167.208 91.3099L148.382 108.361C149.048 109.886 148.71 111.727 147.408 112.907C145.776 114.386 143.254 114.261 141.774 112.632C140.294 111.002 140.419 108.481 142.049 107.003C143.351 105.823 145.219 105.668 146.673 106.479L165.5 89.4274L164.956 88.8291L134.834 98.9648L127.865 113.122L127.297 112.496L120.102 119.012L133.516 133.675L140.65 127.212L139.927 126.415L154.71 120.869L167.751 91.9082Z" fill="#479CEF"/>
</svg>
