<svg width="379" height="491" viewBox="0 0 379 491" fill="none" xmlns="http://www.w3.org/2000/svg">
<path d="M1.4442 90.0807C14.8457 99.9341 30.0663 107.803 44.2216 116.551C59.4018 125.929 76.1368 134.694 89.6362 146.292C96.9711 152.589 104.629 140.988 109.976 136.032C122.952 124.013 135.096 111.153 146.492 97.6302C148.001 95.8416 145.241 93.4581 143.729 95.2543C133.87 106.947 123.466 118.159 112.425 128.747C109.666 131.39 106.871 134.001 104.044 136.573C102.21 138.241 98.1677 143.377 95.814 143.868C92.3898 144.584 83.842 137.369 80.59 135.332C68.1439 127.533 55.631 119.832 43.1071 112.155C29.8828 104.057 16.7086 94.8251 2.70022 88.1647C1.56114 87.6246 0.360799 89.2817 1.4442 90.0807Z" fill="#00D5E4"/>
<path d="M1.53091 90.0763C12.1281 92.522 23.9999 92.1371 34.8739 92.7905C46.8687 93.5109 58.8684 94.1541 70.8679 94.7783C94.8781 96.0229 118.895 97.0318 142.921 97.7917C145.267 97.8644 145.015 94.2301 142.688 94.1573C119.166 93.4126 95.649 92.4832 72.1413 91.3236C60.6346 90.7563 49.1382 90.0907 37.6413 89.3875C25.9256 88.6715 13.3801 86.5392 1.69818 87.565C0.258882 87.69 0.124468 89.7484 1.53091 90.0763Z" fill="#00D5E4"/>
<path d="M4.18403 88.8444C16.7711 90.4578 30.3688 88.0198 43.1223 88.2701C57.479 88.5597 71.8536 89.4674 86.2035 89.9927C112.864 90.9654 142.067 93.747 168.344 88.0212C170.504 87.5529 169.647 84.2853 167.603 84.3413C153.789 84.7473 140.034 86.5271 126.177 86.7526C112.314 86.9799 98.4361 86.689 84.5777 86.2715C70.6872 85.8525 56.8511 85.7553 42.9603 85.8284C30.5308 85.8951 16.1048 84.4185 4.13372 88.0229C3.73336 88.1423 3.76862 88.7924 4.18403 88.8444Z" fill="#00D5E4"/>
<path d="M146.42 96.7089C147.486 103.266 152.321 108.863 155.735 114.439C160.223 121.769 164.51 129.233 169.076 136.518C170.355 138.561 173.261 136.472 172.131 134.422C168.215 127.341 163.916 120.462 159.641 113.601C156.015 107.776 152.774 100.33 146.987 96.4313C146.772 96.2847 146.372 96.3851 146.42 96.7089Z" fill="#00D5E4"/>
<path d="M166.783 86.296C167.359 94.6497 168.637 102.66 168.501 111.09C168.365 119.519 168.08 127.861 169.124 136.255C169.44 138.814 173.454 138.563 173.13 136.001C171.118 120.038 176.266 100.347 168.784 85.605C168.266 84.5981 166.71 85.2994 166.783 86.296Z" fill="#00D5E4"/>
<path d="M121.128 122.713C128.307 125.728 136.542 126.977 144.024 129.244C148.413 130.572 152.796 131.903 157.183 133.226C159.374 133.889 161.56 134.591 163.765 135.205C164.645 135.468 165.519 135.734 166.398 135.998C167.541 136.221 168.07 135.414 167.981 133.585C167.519 133.58 167.2 133.974 167.08 134.375C167.06 134.445 167.038 134.509 167.018 134.579C166.867 135.092 167.227 135.712 167.687 135.931C167.748 135.961 167.814 135.988 167.875 136.018C168.953 136.529 170.204 135.693 170.138 134.498C170.131 134.368 170.122 134.233 170.115 134.103C170.069 133.311 169.435 132.571 168.655 132.431C153.425 129.687 137.163 119.623 121.442 121.066C120.636 121.142 120.295 122.364 121.128 122.713Z" fill="#00D5E4"/>
<path d="M1.5093 88.2416C19.5268 88.7744 38.5849 85.4156 56.5008 83.5172C75.5601 81.4952 94.6316 79.5636 113.701 77.5697C151.837 73.5953 189.964 69.504 228.063 65.2019C230.995 64.8704 230.545 60.1693 227.781 60.7139C226.977 60.8716 226.174 61.0292 225.376 61.1849C223.521 61.5481 222.903 64.4358 225.139 64.7924C225.921 64.9197 226.707 65.0394 227.489 65.1667C227.588 63.6818 227.687 62.1969 227.788 60.7176C189.144 64.773 150.525 69.0468 111.919 73.4354C92.8656 75.6007 73.8159 77.8149 54.7579 79.95C37.2404 81.9063 18.3778 82.744 1.26836 87.0508C0.555657 87.2338 0.871742 88.2222 1.5093 88.2416Z" fill="#00D5E4"/>
<path d="M166.365 87.4056C177.238 85.1517 187.97 79.0549 198.434 75.2141C209.194 71.2646 220.113 67.8657 231.018 64.352C233.521 63.5444 232.197 59.7822 229.689 60.5032C218.224 63.8193 206.936 67.8689 195.789 72.1224C185.867 75.9083 174.05 79.2264 165.425 85.5416C164.401 86.2861 165.245 87.6345 166.365 87.4056Z" fill="#00D5E4"/>
<path d="M188.859 141.121C188.571 141.22 188.266 141.269 187.949 141.264L187.197 141.259C185.717 141.247 184.523 140.038 184.536 138.558C184.548 137.078 185.751 135.887 187.237 135.897L188.016 135.905C189.499 135.923 190.683 137.142 190.665 138.624C190.649 139.783 189.896 140.763 188.859 141.121Z" fill="#00D5E4"/>
<path d="M382.534 394.286C381.542 394.629 380.406 394.371 379.66 393.544C379.33 393.173 378.996 392.809 378.657 392.446C377.645 391.364 377.708 389.664 378.793 388.659C379.876 387.648 381.574 387.705 382.581 388.795C382.941 389.182 383.304 389.574 383.655 389.97C384.642 391.073 384.551 392.764 383.449 393.756C383.178 393.994 382.867 394.171 382.534 394.286ZM373.71 385.703C372.842 386.003 371.843 385.85 371.091 385.207C370.714 384.883 370.326 384.563 369.945 384.247C368.806 383.303 368.639 381.614 369.582 380.474C370.524 379.329 372.218 379.173 373.356 380.111C373.763 380.45 374.17 380.788 374.571 381.129C375.698 382.09 375.829 383.785 374.868 384.912C374.55 385.287 374.144 385.553 373.71 385.703ZM302.307 402.547C300.926 403.024 299.41 402.305 298.909 400.927C298.404 399.537 299.126 397.995 300.518 397.495C300.962 397.336 301.401 397.165 301.837 396.983C303.184 396.41 304.771 397.061 305.344 398.427C305.917 399.793 305.266 401.362 303.9 401.934C303.387 402.149 302.871 402.353 302.343 402.541C302.33 402.54 302.319 402.544 302.307 402.547ZM291.73 404.27C291.42 404.377 291.085 404.43 290.74 404.417C290.197 404.396 289.653 404.357 289.11 404.299C287.65 404.147 286.554 402.854 286.682 401.397C286.809 399.94 288.054 398.848 289.516 398.955C290.097 399.012 290.537 399.044 290.973 399.063C292.452 399.126 293.602 400.375 293.539 401.854C293.485 402.977 292.739 403.922 291.73 404.27ZM312.95 396.431C311.913 396.789 310.716 396.483 309.988 395.581C309.059 394.425 309.241 392.742 310.389 391.809C310.765 391.509 311.131 391.2 311.495 390.885C312.616 389.911 314.309 390.026 315.275 391.144C316.247 392.259 316.131 393.951 315.016 394.923C314.603 395.28 314.182 395.633 313.758 395.975C313.508 396.182 313.232 396.334 312.95 396.431ZM363.848 378.317C363.092 378.578 362.226 378.499 361.508 378.028C361.085 377.751 360.663 377.481 360.242 377.21C358.991 376.418 358.62 374.761 359.412 373.51C360.204 372.259 361.861 371.889 363.112 372.68C363.556 372.962 363.995 373.246 364.436 373.535C365.674 374.344 366.027 376.007 365.218 377.245C364.881 377.765 364.389 378.13 363.848 378.317ZM321.336 387.448C320.547 387.721 319.642 387.623 318.909 387.107C317.698 386.251 317.411 384.578 318.267 383.368C318.551 382.967 318.824 382.57 319.093 382.161C319.91 380.927 321.577 380.585 322.808 381.409C324.042 382.225 324.379 383.894 323.56 385.122C323.261 385.572 322.955 386.019 322.647 386.459C322.309 386.942 321.848 387.271 321.336 387.448ZM280.199 400.4C279.427 400.667 278.538 400.576 277.811 400.077C277.332 399.75 276.866 399.406 276.416 399.051C275.259 398.132 275.062 396.447 275.979 395.285C276.902 394.121 278.589 393.93 279.746 394.848C280.094 395.126 280.459 395.397 280.829 395.647C282.051 396.481 282.363 398.152 281.529 399.373C281.197 399.872 280.729 400.217 280.199 400.4ZM353.143 372.219C352.49 372.444 351.748 372.417 351.081 372.092C350.639 371.872 350.186 371.657 349.735 371.447C348.395 370.818 347.824 369.218 348.452 367.878C349.081 366.539 350.681 365.967 352.021 366.595C352.503 366.82 352.978 367.047 353.45 367.281C354.781 367.938 355.323 369.542 354.671 370.871C354.343 371.527 353.786 371.997 353.143 372.219ZM327.087 376.594C326.518 376.791 325.877 376.798 325.267 376.567C323.883 376.048 323.178 374.5 323.703 373.114C323.873 372.658 324.038 372.204 324.193 371.74C324.674 370.338 326.201 369.59 327.598 370.072C329 370.553 329.746 372.074 329.266 373.476C329.09 373.991 328.911 374.495 328.72 375.002C328.429 375.784 327.814 376.343 327.087 376.594ZM341.767 367.481C341.221 367.67 340.608 367.686 340.014 367.481C339.54 367.317 339.064 367.16 338.592 367.001C337.188 366.533 336.42 365.02 336.887 363.616C337.347 362.208 338.87 361.449 340.272 361.911C340.772 362.079 341.272 362.247 341.771 362.415C343.168 362.898 343.911 364.426 343.428 365.823C343.152 366.631 342.522 367.22 341.767 367.481ZM272.543 390.978C271.173 391.451 269.668 390.747 269.16 389.384L268.958 388.836C268.829 388.464 268.71 388.082 268.604 387.703C268.206 386.276 269.02 384.796 270.473 384.402C271.9 384.004 273.374 384.838 273.772 386.265C273.849 386.541 273.931 386.815 274.026 387.091L274.176 387.506C274.698 388.89 273.996 390.438 272.605 390.957C272.588 390.963 272.565 390.971 272.543 390.978ZM330.031 364.659C329.648 364.792 329.229 364.842 328.805 364.78C328.202 364.698 327.673 364.427 327.269 364.024C327.18 364.004 327.093 363.99 327.004 363.97C325.551 363.69 324.605 362.282 324.885 360.829C325.136 359.563 326.237 358.678 327.474 358.661C328.022 358.131 328.792 357.84 329.61 357.924C331.082 358.077 332.154 359.391 332 360.864C331.946 361.4 331.88 361.94 331.812 362.474C331.68 363.516 330.961 364.338 330.031 364.659ZM272.742 378.951C272.144 379.157 271.475 379.155 270.842 378.894C269.473 378.326 268.824 376.759 269.386 375.392C269.614 374.846 269.863 374.306 270.137 373.783C270.818 372.469 272.44 371.959 273.752 372.635C275.066 373.317 275.582 374.936 274.9 376.25C274.699 376.635 274.514 377.033 274.351 377.436C274.04 378.181 273.446 378.708 272.742 378.951ZM317.712 362.417C317.374 362.534 317.007 362.585 316.624 362.553C316.131 362.515 315.633 362.479 315.137 362.449C313.661 362.359 312.533 361.084 312.629 359.606C312.718 358.131 313.988 357.005 315.472 357.098C316 357.13 316.53 357.168 317.057 357.213C318.531 357.335 319.633 358.626 319.516 360.097C319.421 361.19 318.687 362.08 317.712 362.417ZM305.401 362.26C305.17 362.34 304.927 362.386 304.675 362.404C304.179 362.43 303.68 362.464 303.18 362.497C301.703 362.604 300.424 361.494 300.312 360.019C300.206 358.542 301.312 357.251 302.797 357.149C303.326 357.111 303.85 357.075 304.378 357.05C305.857 356.968 307.12 358.103 307.201 359.582C307.264 360.803 306.5 361.881 305.401 362.26ZM280.624 369.701C279.52 370.082 278.254 369.705 277.553 368.699C276.705 367.484 277.003 365.811 278.22 364.968C278.673 364.654 279.139 364.341 279.611 364.046C280.857 363.269 282.516 363.635 283.309 364.888C284.095 366.143 283.715 367.8 282.466 368.585C282.067 368.836 281.672 369.099 281.29 369.363C281.075 369.507 280.855 369.621 280.624 369.701ZM330.38 352.353C330.165 352.427 329.93 352.477 329.697 352.495C328.219 352.601 326.938 351.486 326.832 350.009C326.8 349.515 326.755 349.02 326.71 348.524C326.574 347.051 327.652 345.752 329.134 345.606C330.607 345.469 331.916 346.556 332.047 348.031C332.098 348.562 332.138 349.097 332.176 349.626C332.262 350.864 331.496 351.968 330.38 352.353ZM293.226 364.049C293.164 364.071 293.102 364.092 293.038 364.108C292.57 364.232 292.105 364.367 291.643 364.508C290.228 364.94 288.728 364.139 288.301 362.722C287.875 361.305 288.666 359.796 290.087 359.381C290.606 359.221 291.128 359.072 291.655 358.934C293.088 358.553 294.554 359.402 294.935 360.835C295.303 362.19 294.539 363.596 293.226 364.049ZM328.448 340.185C328.369 340.212 328.294 340.232 328.213 340.253C326.778 340.61 325.321 339.732 324.97 338.296C324.853 337.812 324.725 337.333 324.598 336.854C324.211 335.423 325.055 333.958 326.491 333.569C327.922 333.183 329.395 334.03 329.776 335.463C329.915 335.976 330.049 336.491 330.177 337.008C330.507 338.364 329.744 339.737 328.448 340.185ZM324.529 328.508C323.21 328.963 321.747 328.327 321.19 327.024C320.995 326.568 320.8 326.112 320.593 325.66C319.988 324.311 320.588 322.722 321.937 322.118C323.285 321.507 324.875 322.112 325.485 323.459C325.704 323.945 325.916 324.433 326.123 324.923C326.702 326.288 326.072 327.861 324.707 328.44C324.645 328.461 324.585 328.488 324.529 328.508ZM318.845 317.585C317.69 317.984 316.373 317.549 315.697 316.47C315.433 316.051 315.168 315.632 314.898 315.214C314.09 313.973 314.444 312.312 315.686 311.504C316.927 310.697 318.588 311.051 319.396 312.292C319.681 312.736 319.969 313.185 320.249 313.631C321.036 314.886 320.654 316.538 319.399 317.324C319.215 317.432 319.031 317.52 318.845 317.585ZM311.508 307.7C310.51 308.044 309.359 307.779 308.612 306.933C308.288 306.56 307.952 306.19 307.618 305.826C306.616 304.734 306.692 303.036 307.787 302.04C308.881 301.044 310.577 301.114 311.573 302.209C311.93 302.602 312.287 302.996 312.64 303.398C313.617 304.511 313.507 306.202 312.394 307.179C312.134 307.414 311.829 307.589 311.508 307.7ZM302.614 299.191C301.774 299.481 300.813 299.346 300.068 298.758C299.676 298.446 299.286 298.139 298.885 297.836C297.71 296.936 297.488 295.253 298.394 294.076C299.299 292.899 300.979 292.685 302.154 293.585C302.574 293.906 302.989 294.23 303.405 294.559C304.562 295.478 304.759 297.163 303.836 298.327C303.505 298.738 303.082 299.029 302.614 299.191ZM222.476 323.272C222.464 323.276 222.448 323.281 222.436 323.285L220.963 323.769C219.558 324.229 218.043 323.459 217.583 322.054C217.126 320.66 217.878 319.164 219.253 318.689C219.27 318.683 219.287 318.678 219.298 318.674L220.754 318.196C222.16 317.736 223.678 318.498 224.139 319.903C224.606 321.293 223.857 322.795 222.476 323.272ZM232.666 319.753C231.285 320.229 229.774 319.509 229.273 318.13C228.768 316.74 229.485 315.2 230.875 314.695L232.314 314.166C232.33 314.16 232.347 314.154 232.364 314.149C233.739 313.674 235.246 314.383 235.751 315.754C236.262 317.142 235.553 318.686 234.159 319.199L232.703 319.733C232.694 319.743 232.683 319.747 232.666 319.753ZM210.717 326.979C210.683 326.991 210.649 327.003 210.621 327.013L209.142 327.46C207.725 327.887 206.228 327.079 205.802 325.662C205.376 324.245 206.187 322.741 207.601 322.322L209.069 321.878C210.484 321.446 211.984 322.247 212.411 323.664C212.827 325.052 212.075 326.51 210.717 326.979ZM244.168 315.301C242.837 315.76 241.363 315.109 240.819 313.789C240.252 312.421 240.903 310.853 242.271 310.286L243.672 309.701C245.037 309.141 246.609 309.765 247.187 311.13C247.765 312.494 247.122 314.066 245.758 314.645L244.32 315.248C244.267 315.26 244.218 315.283 244.168 315.301ZM198.886 330.441C198.829 330.46 198.773 330.48 198.72 330.492L197.209 330.9C195.776 331.282 194.309 330.432 193.928 329C193.547 327.567 194.389 326.097 195.829 325.719L197.294 325.32C198.723 324.928 200.199 325.768 200.591 327.197C200.97 328.567 200.216 329.982 198.886 330.441ZM255.42 310.273C254.152 310.711 252.732 310.142 252.136 308.91C251.492 307.574 252.049 305.975 253.378 305.327L254.738 304.662C256.079 303.997 257.676 304.549 258.33 305.875C258.983 307.201 258.44 308.808 257.116 309.467L255.719 310.151C255.615 310.2 255.516 310.24 255.42 310.273ZM186.867 333.141C186.721 333.192 186.57 333.231 186.409 333.255C185.881 333.336 185.354 333.418 184.831 333.491C183.362 333.695 182.011 332.667 181.808 331.205C181.604 329.736 182.623 328.394 184.095 328.182C184.583 328.115 185.074 328.04 185.565 327.964C187.024 327.732 188.402 328.726 188.637 330.19C188.847 331.492 188.074 332.724 186.867 333.141ZM266.31 304.526C265.121 304.936 263.771 304.463 263.116 303.333C262.377 302.049 262.813 300.41 264.097 299.67L265.403 298.904C266.675 298.149 268.322 298.57 269.073 299.85C269.828 301.122 269.406 302.769 268.127 303.52L266.777 304.307C266.626 304.398 266.468 304.471 266.31 304.526ZM174.581 333.896C174.265 334.005 173.917 334.056 173.564 334.039C173.025 334.011 172.481 333.972 171.934 333.921C170.458 333.794 169.371 332.491 169.498 331.016C169.632 329.538 170.934 328.451 172.404 328.58C172.886 328.622 173.371 328.656 173.846 328.681C175.325 328.763 176.461 330.024 176.379 331.503C176.325 332.625 175.584 333.55 174.581 333.896ZM276.699 297.891C275.6 298.271 274.344 297.904 273.639 296.904C272.781 295.7 273.067 294.024 274.278 293.164C274.689 292.877 275.092 292.581 275.501 292.288C276.695 291.415 278.376 291.68 279.249 292.873C280.124 294.072 279.857 295.747 278.663 296.62C278.24 296.93 277.81 297.236 277.385 297.541C277.16 297.694 276.93 297.812 276.699 297.891ZM292.499 292.17C291.772 292.421 290.944 292.36 290.234 291.93C289.811 291.673 289.384 291.423 288.951 291.175C288.24 290.758 287.785 290.064 287.658 289.313C287.524 289.435 287.395 289.555 287.261 289.677C286.17 290.666 284.47 290.584 283.472 289.484C282.482 288.388 282.564 286.689 283.665 285.696C284.035 285.361 284.405 285.025 284.767 284.685C285.857 283.678 287.55 283.737 288.555 284.821C288.969 285.271 289.203 285.821 289.258 286.383C290.011 286.06 290.888 286.097 291.645 286.536C292.102 286.8 292.556 287.073 293.01 287.345C294.277 288.112 294.682 289.757 293.915 291.025C293.577 291.583 293.069 291.973 292.499 292.17ZM162.583 331.322C161.997 331.525 161.341 331.524 160.722 331.284C160.21 331.082 159.701 330.867 159.195 330.644C157.838 330.041 157.235 328.458 157.833 327.103C158.432 325.749 160.02 325.143 161.369 325.743C161.803 325.94 162.245 326.122 162.69 326.297C164.064 326.844 164.741 328.401 164.194 329.776C163.9 330.533 163.293 331.077 162.583 331.322ZM281.586 286.471C280.961 286.687 280.255 286.672 279.613 286.383C279.156 286.175 278.696 285.975 278.236 285.774C276.877 285.184 276.257 283.607 276.842 282.25C277.433 280.892 279.01 280.272 280.366 280.856C280.849 281.068 281.327 281.282 281.81 281.493C283.161 282.099 283.761 283.689 283.155 285.04C282.84 285.736 282.263 286.238 281.586 286.471ZM294.901 281.387C294.039 281.685 293.047 281.536 292.301 280.91C291.165 279.959 291.017 278.269 291.968 277.133C292.285 276.753 292.601 276.372 292.91 275.988C293.843 274.834 295.528 274.655 296.681 275.582C297.834 276.508 298.02 278.197 297.087 279.352C296.756 279.763 296.419 280.176 296.075 280.585C295.756 280.959 295.346 281.234 294.901 281.387ZM152.218 324.798C151.293 325.117 150.228 324.917 149.479 324.192C149.071 323.797 148.674 323.398 148.291 322.981C147.286 321.897 147.354 320.195 148.439 319.19C149.524 318.185 151.218 318.249 152.231 319.338C152.543 319.677 152.866 320.008 153.205 320.332C154.272 321.357 154.303 323.056 153.272 324.125C152.964 324.439 152.601 324.666 152.218 324.798ZM302.021 271.353C301.305 271.6 300.484 271.543 299.778 271.125C298.503 270.373 298.08 268.728 298.838 267.451C299.088 267.024 299.338 266.597 299.584 266.159C300.311 264.867 301.947 264.416 303.239 265.143C304.53 265.87 304.982 267.505 304.254 268.797C303.992 269.26 303.723 269.725 303.453 270.184C303.12 270.753 302.602 271.153 302.021 271.353ZM270.098 282.012C269.563 282.197 268.963 282.215 268.386 282.023C267.909 281.866 267.427 281.711 266.944 281.556C265.535 281.109 264.755 279.6 265.202 278.191C265.648 276.781 267.158 276.001 268.568 276.448C269.071 276.608 269.569 276.771 270.066 276.933C271.47 277.401 272.239 278.914 271.771 280.318C271.501 281.143 270.865 281.747 270.098 282.012ZM258.23 278.681C257.768 278.84 257.257 278.878 256.749 278.757C256.255 278.644 255.762 278.53 255.269 278.417C253.821 278.097 252.915 276.663 253.235 275.215C253.557 273.773 254.99 272.862 256.438 273.182C256.95 273.295 257.464 273.414 257.971 273.529C259.411 273.864 260.308 275.308 259.972 276.748C259.749 277.69 259.07 278.391 258.23 278.681ZM307.35 260.26C306.775 260.459 306.134 260.466 305.524 260.235C304.138 259.71 303.444 258.159 303.971 256.779C304.147 256.32 304.315 255.859 304.476 255.393C304.967 254 306.503 253.261 307.896 253.751C309.289 254.242 310.026 255.772 309.538 257.171C309.358 257.674 309.179 258.178 308.986 258.679C308.691 259.45 308.077 260.009 307.35 260.26ZM145.855 314.412C145.804 314.43 145.759 314.445 145.712 314.455C144.287 314.859 142.804 314.034 142.4 312.609C142.238 312.047 142.1 311.483 141.984 310.911C141.686 309.463 142.609 308.046 144.077 307.747C145.528 307.455 146.943 308.391 147.235 309.842C147.323 310.278 147.433 310.707 147.551 311.139C147.947 312.523 147.185 313.953 145.855 314.412ZM246.121 276.335C245.721 276.473 245.282 276.517 244.829 276.447L243.324 276.216C241.86 275.996 240.848 274.636 241.066 273.167C241.286 271.703 242.646 270.691 244.115 270.909L245.66 271.145C247.122 271.378 248.125 272.747 247.892 274.209C247.739 275.227 247.035 276.019 246.121 276.335ZM310.622 248.401C310.205 248.545 309.747 248.59 309.283 248.504C307.824 248.245 306.851 246.853 307.111 245.394C307.196 244.911 307.28 244.421 307.352 243.936C307.577 242.471 308.941 241.47 310.412 241.693C311.878 241.919 312.881 243.288 312.653 244.748C312.57 245.275 312.487 245.802 312.391 246.327C312.211 247.323 311.513 248.094 310.622 248.401ZM233.89 274.8C233.54 274.921 233.154 274.972 232.762 274.931L231.244 274.793C229.768 274.666 228.681 273.363 228.809 271.888C228.942 270.41 230.244 269.323 231.715 269.452L233.266 269.598C234.741 269.738 235.822 271.042 235.683 272.522C235.581 273.598 234.848 274.469 233.89 274.8ZM145.789 302.237C145.315 302.4 144.784 302.432 144.26 302.304C142.823 301.943 141.953 300.483 142.317 299.052C142.456 298.506 142.603 297.963 142.776 297.424C143.223 296.014 144.723 295.225 146.139 295.67C147.554 296.114 148.337 297.616 147.892 299.031C147.756 299.476 147.63 299.917 147.52 300.365C147.285 301.272 146.611 301.953 145.789 302.237ZM221.584 273.947C221.274 274.054 220.939 274.107 220.586 274.09L219.062 274.024C217.585 273.966 216.429 272.719 216.492 271.24C216.55 269.763 217.803 268.605 219.276 268.671L220.831 268.733C222.312 268.802 223.456 270.053 223.387 271.533C223.341 272.659 222.599 273.597 221.584 273.947ZM209.266 273.641C208.984 273.739 208.687 273.791 208.37 273.787L206.848 273.783C205.366 273.784 204.169 272.582 204.168 271.1C204.167 269.618 205.374 268.419 206.851 268.42L208.405 268.426C209.885 268.439 211.076 269.642 211.072 271.126C211.065 272.295 210.308 273.281 209.266 273.641ZM311.667 236.138C311.397 236.232 311.105 236.282 310.803 236.285C309.323 236.292 308.115 235.095 308.114 233.613C308.112 233.115 308.107 232.625 308.094 232.131C308.056 230.649 309.223 229.426 310.71 229.386C312.192 229.347 313.423 230.518 313.461 231.999C313.475 232.531 313.482 233.064 313.484 233.6C313.478 234.769 312.721 235.774 311.667 236.138ZM151.122 291.211C150.316 291.49 149.389 291.381 148.651 290.835C147.458 289.954 147.211 288.273 148.094 287.085C148.421 286.644 148.762 286.205 149.106 285.777C150.038 284.622 151.726 284.449 152.879 285.376C154.028 286.31 154.212 287.994 153.279 289.148C152.978 289.517 152.686 289.895 152.407 290.276C152.063 290.722 151.618 291.04 151.122 291.211ZM196.943 273.779C196.689 273.866 196.422 273.914 196.141 273.923L194.625 273.973C193.144 274.031 191.9 272.877 191.843 271.396C191.785 269.915 192.947 268.675 194.423 268.619L195.987 268.564C197.467 268.52 198.703 269.689 198.747 271.169C198.783 272.367 198.019 273.407 196.943 273.779ZM184.65 274.624C184.469 274.687 184.283 274.732 184.089 274.755C183.592 274.813 183.097 274.877 182.609 274.944C181.138 275.143 179.789 274.121 179.59 272.65C179.386 271.182 180.414 269.83 181.884 269.632C182.408 269.558 182.933 269.49 183.455 269.43C184.928 269.255 186.261 270.303 186.435 271.775C186.584 273.048 185.816 274.221 184.65 274.624ZM159.984 282.733C158.862 283.12 157.578 282.725 156.88 281.692C156.058 280.462 156.385 278.797 157.613 277.97C158.074 277.659 158.544 277.358 159.02 277.074C160.282 276.31 161.935 276.71 162.701 277.979C163.467 279.247 163.064 280.893 161.796 281.659C161.389 281.907 160.99 282.158 160.597 282.426C160.408 282.555 160.198 282.659 159.984 282.733ZM172.571 277.023C172.532 277.037 172.492 277.051 172.451 277.059C171.981 277.196 171.515 277.344 171.049 277.492C169.644 277.952 168.129 277.183 167.669 275.777C167.212 274.383 167.964 272.888 169.339 272.413C169.356 272.407 169.373 272.401 169.384 272.397C169.895 272.233 170.406 272.069 170.929 271.92C172.348 271.5 173.839 272.309 174.26 273.728C174.674 275.111 173.918 276.558 172.571 277.023ZM310.602 223.866C310.461 223.915 310.316 223.953 310.168 223.979C308.707 224.224 307.326 223.238 307.08 221.778C306.999 221.288 306.913 220.801 306.821 220.316C306.545 218.859 307.496 217.465 308.956 217.182C310.412 216.906 311.816 217.865 312.084 219.318C312.182 219.839 312.277 220.368 312.363 220.893C312.589 222.203 311.814 223.448 310.602 223.866ZM307.636 211.917C307.619 211.923 307.608 211.926 307.591 211.932C306.185 212.392 304.67 211.623 304.21 210.217C304.074 209.804 303.935 209.385 303.793 208.974L303.733 208.799C303.25 207.401 303.99 205.872 305.394 205.387C306.797 204.903 308.321 205.644 308.805 207.047L308.866 207.222C309.018 207.661 309.166 208.109 309.312 208.55C309.766 209.938 309.017 211.44 307.636 211.917ZM302.984 200.511C301.722 200.947 300.303 200.384 299.702 199.153C299.484 198.705 299.26 198.259 299.033 197.82C298.357 196.502 298.885 194.888 300.197 194.214C301.519 193.53 303.136 194.063 303.804 195.378C304.048 195.848 304.282 196.323 304.515 196.797C305.163 198.125 304.614 199.734 303.286 200.382C303.191 200.434 303.091 200.474 302.984 200.511ZM296.843 189.835C295.716 190.224 294.429 189.823 293.737 188.788C293.461 188.372 293.18 187.959 292.898 187.545C292.055 186.329 292.362 184.659 293.578 183.816C294.795 182.973 296.465 183.279 297.31 184.501C297.611 184.934 297.908 185.373 298.203 185.808C299.025 187.037 298.692 188.704 297.462 189.526C297.262 189.658 297.051 189.763 296.843 189.835ZM289.348 180.061C288.351 180.405 287.199 180.14 286.453 179.294C286.121 178.917 285.791 178.546 285.455 178.176C284.459 177.082 284.54 175.382 285.642 174.39C286.742 173.392 288.436 173.475 289.429 174.577C289.784 174.965 290.135 175.361 290.481 175.759C291.458 176.872 291.348 178.563 290.234 179.54C289.969 179.777 289.669 179.95 289.348 180.061ZM280.624 171.367C279.751 171.669 278.742 171.506 277.988 170.858C277.611 170.534 277.235 170.21 276.852 169.888C275.716 168.937 275.568 167.247 276.514 166.114C277.465 164.978 279.155 164.829 280.289 165.775C280.696 166.114 281.099 166.46 281.495 166.802C282.613 167.773 282.736 169.464 281.766 170.582C281.455 170.96 281.058 171.217 280.624 171.367ZM270.842 163.884C270.07 164.151 269.189 164.064 268.455 163.567C268.043 163.287 267.625 163.008 267.209 162.736C265.969 161.921 265.629 160.26 266.444 159.02C267.26 157.786 268.919 157.44 270.159 158.254C270.6 158.543 271.035 158.835 271.472 159.132C272.699 159.963 273.017 161.632 272.183 162.853C271.843 163.349 271.372 163.701 270.842 163.884ZM260.277 157.548C259.6 157.782 258.831 157.745 258.152 157.387C257.704 157.15 257.264 156.917 256.815 156.694C255.497 156.02 254.976 154.403 255.65 153.085C256.325 151.767 257.941 151.241 259.258 151.915C259.725 152.151 260.193 152.393 260.658 152.642C261.968 153.331 262.466 154.957 261.777 156.267C261.439 156.895 260.897 157.334 260.277 157.548ZM249.103 152.356C248.511 152.561 247.842 152.559 247.219 152.307C246.755 152.114 246.287 151.929 245.814 151.745C244.435 151.206 243.758 149.648 244.298 148.27C244.838 146.891 246.395 146.215 247.774 146.754C248.263 146.945 248.747 147.143 249.238 147.34C250.609 147.894 251.271 149.463 250.708 150.831C250.411 151.577 249.808 152.113 249.103 152.356ZM237.487 148.238C236.968 148.417 236.395 148.438 235.831 148.267C235.351 148.118 234.867 147.976 234.382 147.834C232.958 147.418 232.146 145.926 232.565 144.507C232.981 143.083 234.468 142.273 235.892 142.689C236.397 142.837 236.897 142.986 237.398 143.141C238.815 143.572 239.61 145.07 239.184 146.485C238.918 147.34 238.27 147.967 237.487 148.238ZM225.553 145.137C225.102 145.293 224.61 145.331 224.111 145.219L222.628 144.905C221.18 144.604 220.249 143.185 220.548 141.732C220.849 140.284 222.268 139.353 223.722 139.652L225.254 139.98C226.7 140.295 227.617 141.725 227.303 143.171C227.094 144.12 226.41 144.842 225.553 145.137ZM213.428 142.961C213.039 143.095 212.613 143.141 212.177 143.084L210.674 142.878C209.206 142.684 208.172 141.332 208.371 139.863C208.57 138.394 209.919 137.367 211.386 137.561L212.936 137.776C214.402 137.982 215.425 139.338 215.213 140.805C215.064 141.835 214.346 142.644 213.428 142.961ZM201.17 141.644C200.837 141.759 200.476 141.808 200.1 141.78L198.581 141.674C197.104 141.578 195.981 140.301 196.082 138.822C196.178 137.344 197.457 136.228 198.935 136.323L200.494 136.434C201.969 136.543 203.077 137.832 202.968 139.307C202.89 140.413 202.151 141.305 201.17 141.644Z" fill="#00D5E4"/>
</svg>
