<svg width="88" height="88" viewBox="0 0 88 88" fill="none" xmlns="http://www.w3.org/2000/svg">
<path d="M44 88C41.6661 88 39.6292 86.4178 39.0539 84.1582C35.5508 70.4241 32.7576 64.0025 28.3775 59.6225C23.9975 55.2424 17.5759 52.4492 3.84182 48.9461C1.5822 48.3708 0 46.3339 0 44C0 41.6661 1.5822 39.6292 3.84182 39.0539C17.5759 35.5554 23.9975 32.7576 28.3775 28.3775C32.7576 23.9975 35.5508 17.5759 39.0539 3.84182C39.6292 1.5822 41.6661 0 44 0C46.3339 0 48.3708 1.5822 48.9461 3.84182C52.4446 17.5759 55.2424 23.9975 59.6225 28.3775C64.0025 32.7576 70.4241 35.5508 84.1582 39.0539C86.4178 39.6292 88 41.6661 88 44C88 46.3339 86.4178 48.3708 84.1582 48.9461C70.4241 52.4492 64.0025 55.2424 59.6225 59.6225C55.2424 64.0025 52.4492 70.4241 48.9461 84.1582C48.3708 86.4178 46.3339 88 44 88ZM22.2854 44C27.663 46.19 32.0013 48.8023 35.5972 52.4028C39.1977 56.0034 41.81 60.337 44 65.7146C46.19 60.337 48.8023 55.9987 52.4028 52.4028C56.0034 48.8023 60.337 46.19 65.7146 44C60.337 41.81 55.9987 39.1977 52.4028 35.5972C48.8069 31.9966 46.19 27.663 44 22.2854C41.81 27.663 39.1977 32.0013 35.5972 35.5972C31.9966 39.1931 27.663 41.81 22.2854 44Z" fill="url(#paint0_linear_310_1560)"/>
<defs>
<linearGradient id="paint0_linear_310_1560" x1="44.0001" y1="88.0005" x2="44.0001" y2="0" gradientUnits="userSpaceOnUse">
<stop stop-color="#2E8FFC"/>
<stop offset="0.0554" stop-color="#339DF8"/>
<stop offset="0.1823" stop-color="#3DB7F0"/>
<stop offset="0.3226" stop-color="#45CBEA"/>
<stop offset="0.4817" stop-color="#4BD9E5"/>
<stop offset="0.6751" stop-color="#4EE1E3"/>
<stop offset="1" stop-color="#4FE4E2"/>
</linearGradient>
</defs>
</svg>
