<svg width="24" height="24" viewBox="0 0 24 24" fill="none" xmlns="http://www.w3.org/2000/svg">
<path d="M12 5.81152C13.0547 5.81152 14.0566 6.12793 15.0059 6.65527C15.9551 7.18262 16.6934 7.9209 17.2207 8.87012C17.748 9.81934 18.0645 10.8213 18.0645 11.876C18.0645 12.9834 17.748 13.9854 17.2207 14.9346C16.6934 15.8838 15.9551 16.6221 15.0059 17.1494C14.0566 17.6768 13.0547 17.9404 12 17.9404C10.8926 17.9404 9.89062 17.6768 8.94141 17.1494C7.99219 16.6221 7.25391 15.8838 6.72656 14.9346C6.19922 13.9854 5.93555 12.9834 5.93555 11.876C5.93555 10.8213 6.19922 9.81934 6.72656 8.87012C7.25391 7.9209 7.99219 7.18262 8.94141 6.65527C9.89062 6.12793 10.8926 5.81152 12 5.81152ZM12 15.8311C13.0547 15.8311 14.0039 15.4619 14.7949 14.6709C15.5332 13.9326 15.9551 12.9834 15.9551 11.876C15.9551 10.8213 15.5332 9.87207 14.7949 9.08105C14.0039 8.34277 13.0547 7.9209 12 7.9209C10.8926 7.9209 9.94336 8.34277 9.20508 9.08105C8.41406 9.87207 8.04492 10.8213 8.04492 11.876C8.04492 12.9834 8.41406 13.9326 9.20508 14.6709C9.94336 15.4619 10.8926 15.8311 12 15.8311ZM19.752 5.54785C19.752 5.17871 19.5938 4.8623 19.3301 4.5459C19.0137 4.28223 18.6973 4.12402 18.3281 4.12402C17.9062 4.12402 17.5898 4.28223 17.3262 4.5459C17.0098 4.8623 16.9043 5.17871 16.9043 5.54785C16.9043 5.96973 17.0098 6.28613 17.3262 6.5498C17.5898 6.86621 17.9062 6.97168 18.3281 6.97168C18.6973 6.97168 19.0137 6.86621 19.2773 6.5498C19.541 6.28613 19.6992 5.96973 19.752 5.54785ZM23.7598 6.97168C23.7598 7.97363 23.8125 9.6084 23.8125 11.876C23.8125 14.1963 23.7598 15.8311 23.707 16.833C23.6543 17.835 23.4961 18.6787 23.2852 19.417C22.9688 20.3135 22.4414 21.1045 21.8086 21.7373C21.1758 22.3701 20.3848 22.8447 19.541 23.1611C18.8027 23.4248 17.9062 23.583 16.9043 23.6357C15.9023 23.6885 14.2676 23.6885 12 23.6885C9.67969 23.6885 8.04492 23.6885 7.04297 23.6357C6.04102 23.583 5.19727 23.4248 4.45898 23.1084C3.5625 22.8447 2.77148 22.3701 2.13867 21.7373C1.50586 21.1045 1.03125 20.3135 0.714844 19.417C0.451172 18.6787 0.292969 17.835 0.240234 16.833C0.1875 15.8311 0.1875 14.1963 0.1875 11.876C0.1875 9.6084 0.1875 7.97363 0.240234 6.97168C0.292969 5.96973 0.451172 5.07324 0.714844 4.33496C1.03125 3.49121 1.50586 2.7002 2.13867 2.06738C2.77148 1.43457 3.5625 0.907227 4.45898 0.59082C5.19727 0.379883 6.04102 0.22168 7.04297 0.168945C8.04492 0.116211 9.67969 0.0634766 12 0.0634766C14.2676 0.0634766 15.9023 0.116211 16.9043 0.168945C17.9062 0.22168 18.8027 0.379883 19.541 0.59082C20.3848 0.907227 21.1758 1.43457 21.8086 2.06738C22.4414 2.7002 22.9688 3.49121 23.2852 4.33496C23.4961 5.07324 23.6543 5.96973 23.7598 6.97168ZM21.2285 18.8369C21.4395 18.2568 21.5449 17.3076 21.6504 15.9893C21.6504 15.251 21.7031 14.1436 21.7031 12.7197V11.0322C21.7031 9.6084 21.6504 8.50098 21.6504 7.7627C21.5449 6.44434 21.4395 5.49512 21.2285 4.91504C20.8066 3.86035 20.0156 3.06934 18.9609 2.64746C18.3809 2.43652 17.4316 2.33105 16.1133 2.22559C15.3223 2.22559 14.2148 2.17285 12.8438 2.17285H11.1562C9.73242 2.17285 8.625 2.22559 7.88672 2.22559C6.56836 2.33105 5.61914 2.43652 5.03906 2.64746C3.93164 3.06934 3.19336 3.86035 2.77148 4.91504C2.56055 5.49512 2.40234 6.44434 2.34961 7.7627C2.29688 8.55371 2.29688 9.66113 2.29688 11.0322V12.7197C2.29688 14.1436 2.29688 15.251 2.34961 15.9893C2.40234 17.3076 2.56055 18.2568 2.77148 18.8369C3.19336 19.9443 3.98438 20.6826 5.03906 21.1045C5.61914 21.3154 6.56836 21.4736 7.88672 21.5264C8.625 21.5791 9.73242 21.5791 11.1562 21.5791H12.8438C14.2676 21.5791 15.375 21.5791 16.1133 21.5264C17.4316 21.4736 18.3809 21.3154 18.9609 21.1045C20.0156 20.6826 20.8066 19.8916 21.2285 18.8369Z" fill="white"/>
</svg>
