<svg width="258" height="52" viewBox="0 0 258 52" fill="none" xmlns="http://www.w3.org/2000/svg">
<path d="M83.5005 42.1106C82.2024 42.1808 80.9185 41.8122 79.8558 41.0642C79.4118 40.7354 79.0545 40.3036 78.815 39.806C78.5754 39.3084 78.4608 38.7601 78.4809 38.2084V17.9998C78.4703 17.9142 78.4793 17.8274 78.5074 17.7458C78.5354 17.6643 78.5817 17.5903 78.6428 17.5293C78.7038 17.4683 78.7779 17.4221 78.8596 17.3941C78.9412 17.366 79.0281 17.357 79.1138 17.3676H82.7803C83.195 17.3676 83.3914 17.5856 83.3914 17.9998V36.6388C83.3914 37.4672 83.7624 37.8814 84.5263 37.8814C84.8501 37.8947 85.174 37.8579 85.4866 37.7724C85.9231 37.7724 86.1632 37.9032 86.185 38.2956L86.5124 41.0206C86.5281 41.1 86.5266 41.1819 86.508 41.2607C86.4893 41.3395 86.454 41.4135 86.4044 41.4775C86.3548 41.5415 86.292 41.5942 86.2202 41.632C86.1485 41.6697 86.0695 41.6917 85.9886 41.6964C85.1855 41.9613 84.3463 42.101 83.5005 42.1106Z" fill="#394149"/>
<path d="M104.125 39.7778C102.282 41.2983 99.9673 42.13 97.5774 42.13C95.1875 42.13 92.8723 41.2983 91.03 39.7778C89.4106 38.1449 88.5022 35.9395 88.5022 33.6411C88.5022 31.3427 89.4106 29.1373 91.03 27.5044C92.8759 25.9918 95.1897 25.165 97.5774 25.165C99.965 25.165 102.279 25.9918 104.125 27.5044C105.707 29.1523 106.59 31.3471 106.59 33.6302C106.59 35.9133 105.707 38.1081 104.125 39.756V39.7778ZM94.4783 36.9002C95.3332 37.6738 96.4456 38.1022 97.5992 38.1022C98.7528 38.1022 99.8652 37.6738 100.72 36.9002C101.494 36.0115 101.92 34.8734 101.92 33.6956C101.92 32.5178 101.494 31.3797 100.72 30.491C99.8652 29.7174 98.7528 29.289 97.5992 29.289C96.4456 29.289 95.3332 29.7174 94.4783 30.491C93.7045 31.3797 93.2783 32.5178 93.2783 33.6956C93.2783 34.8734 93.7045 36.0115 94.4783 36.9002Z" fill="#394149"/>
<path d="M126.779 25.7168C127.194 25.7168 127.39 25.9348 127.39 26.349V41.9796C127.428 43.0345 127.23 44.0847 126.811 45.0538C126.392 46.023 125.762 46.8867 124.967 47.5822C123.203 49.0852 120.933 49.8642 118.616 49.7622C116.524 49.8356 114.459 49.2649 112.702 48.1272C111.952 47.635 111.311 46.994 110.819 46.2439C110.327 45.4939 109.995 44.6509 109.843 43.7672C109.843 43.3312 109.843 43.135 110.432 43.135H114.099C114.254 43.1403 114.405 43.1904 114.533 43.2794C114.661 43.3683 114.76 43.4923 114.819 43.6364C115.057 44.2985 115.531 44.8496 116.15 45.1842C116.905 45.5732 117.745 45.768 118.595 45.751C119.107 45.779 119.62 45.7048 120.103 45.5326C120.587 45.3604 121.031 45.0937 121.41 44.7482C121.756 44.3866 122.026 43.9588 122.202 43.4905C122.378 43.0222 122.458 42.523 122.436 42.0232V40.6498C121.123 41.6143 119.525 42.113 117.896 42.0668C116.756 42.1082 115.619 41.919 114.554 41.5107C113.489 41.1024 112.518 40.4833 111.698 39.6906C110.125 38.0646 109.245 35.8916 109.245 33.6302C109.245 31.3687 110.125 29.1958 111.698 27.5698C112.522 26.7841 113.494 26.171 114.559 25.7666C115.623 25.3622 116.758 25.1748 117.896 25.2154C119.572 25.1712 121.213 25.7021 122.545 26.7196V26.3708C122.535 26.2872 122.544 26.2025 122.57 26.1228C122.597 26.043 122.642 25.9702 122.7 25.9097C122.759 25.8491 122.83 25.8024 122.909 25.7728C122.988 25.7432 123.072 25.7315 123.156 25.7386L126.779 25.7168ZM118.311 38.1864C118.873 38.2038 119.432 38.0976 119.949 37.8753C120.466 37.6531 120.927 37.3202 121.301 36.9002C122.026 35.9642 122.42 34.814 122.42 33.6302C122.42 32.4464 122.026 31.2962 121.301 30.3602C120.928 29.9458 120.47 29.6179 119.957 29.3995C119.444 29.1811 118.89 29.0774 118.333 29.0958C117.764 29.0779 117.198 29.1837 116.674 29.4058C116.151 29.6278 115.681 29.9609 115.299 30.382C114.495 31.2773 114.073 32.4503 114.121 33.652C114.081 34.8418 114.494 36.0024 115.277 36.9002C115.66 37.3201 116.13 37.6524 116.653 37.8744C117.177 38.0963 117.742 38.2028 118.311 38.1864Z" fill="#394149"/>
<path d="M146.225 39.7773C144.379 41.2899 142.065 42.1167 139.677 42.1167C137.29 42.1167 134.976 41.2899 133.13 39.7773C131.546 38.1257 130.663 35.9273 130.663 33.6406C130.663 31.3539 131.546 29.1554 133.13 27.5039C134.978 25.9951 137.291 25.1709 139.677 25.1709C142.064 25.1709 144.377 25.9951 146.225 27.5039C147.807 29.1518 148.69 31.3466 148.69 33.6297C148.69 35.9128 147.807 38.1076 146.225 39.7555V39.7773ZM136.556 36.8997C136.975 37.2973 137.468 37.608 138.007 37.8138C138.547 38.0196 139.122 38.1164 139.699 38.0987C140.273 38.1135 140.844 38.0153 141.379 37.8095C141.915 37.6038 142.404 37.2946 142.82 36.8997C143.581 36.005 143.999 34.8692 143.999 33.6951C143.999 32.521 143.581 31.3852 142.82 30.4905C142.404 30.0956 141.915 29.7864 141.379 29.5806C140.844 29.3749 140.273 29.2766 139.699 29.2915C139.122 29.2737 138.547 29.3706 138.007 29.5764C137.468 29.7822 136.975 30.0929 136.556 30.4905C135.795 31.3852 135.377 32.521 135.377 33.6951C135.377 34.8692 135.795 36.005 136.556 36.8997Z" fill="#394149"/>
<path d="M156.57 22.0105C155.993 22.5149 155.252 22.7929 154.486 22.7929C153.719 22.7929 152.978 22.5149 152.401 22.0105C152.14 21.7639 151.931 21.4666 151.789 21.1367C151.646 20.8068 151.573 20.4513 151.573 20.0921C151.573 19.7328 151.646 19.3774 151.789 19.0475C151.931 18.7176 152.14 18.4203 152.401 18.1737C152.984 17.6819 153.723 17.4121 154.486 17.4121C155.249 17.4121 155.987 17.6819 156.57 18.1737C156.831 18.4203 157.04 18.7176 157.182 19.0475C157.325 19.3774 157.398 19.7328 157.398 20.0921C157.398 20.4513 157.325 20.8068 157.182 21.1367C157.04 21.4666 156.831 21.7639 156.57 22.0105ZM157.028 42.1101C155.731 42.1736 154.449 41.8056 153.383 41.0637C152.946 40.73 152.595 40.2967 152.36 39.7999C152.124 39.3031 152.011 38.7572 152.03 38.2079V26.3487C152.02 26.2631 152.029 26.1763 152.057 26.0947C152.085 26.0132 152.131 25.9392 152.192 25.8782C152.253 25.8172 152.327 25.771 152.409 25.743C152.491 25.7149 152.578 25.7059 152.663 25.7165H156.33C156.744 25.7165 156.941 25.9345 156.941 26.3487V36.6383C156.941 37.4667 157.312 37.8809 158.054 37.8809C158.385 37.8928 158.716 37.856 159.036 37.7719C159.472 37.7719 159.713 37.9027 159.734 38.2951L160.062 41.0201C160.077 41.0995 160.076 41.1814 160.057 41.2602C160.039 41.3391 160.003 41.413 159.954 41.477C159.904 41.541 159.841 41.5937 159.77 41.6315C159.698 41.6692 159.619 41.6912 159.538 41.6959C158.728 41.9624 157.881 42.1021 157.028 42.1101Z" fill="#394149"/>
<path d="M173.549 25.1934C174.695 25.1482 175.837 25.3334 176.91 25.7378C177.982 26.1422 178.962 26.7578 179.791 27.5478C181.335 29.2023 182.193 31.3796 182.193 33.6409C182.193 35.9023 181.335 38.0796 179.791 39.734C178.966 40.5311 177.987 41.1527 176.914 41.5611C175.841 41.9695 174.697 42.1563 173.549 42.1102C171.915 42.1465 170.314 41.649 168.988 40.6932V48.563C168.988 48.9772 168.77 49.1734 168.355 49.1734H164.689C164.605 49.189 164.519 49.1841 164.437 49.1589C164.356 49.1338 164.282 49.0892 164.222 49.0291C164.162 48.969 164.117 48.8951 164.092 48.8139C164.067 48.7327 164.062 48.6466 164.078 48.563V30.687C164.103 30.5122 164.088 30.3338 164.032 30.166C163.976 29.9983 163.882 29.8458 163.757 29.7208C163.632 29.5959 163.479 29.5019 163.311 29.4463C163.144 29.3908 162.965 29.3752 162.79 29.4008H162.07C161.589 29.4008 161.349 29.2264 161.349 28.8776V26.3052C161.338 26.1461 161.382 25.9878 161.473 25.8569C161.564 25.726 161.698 25.6303 161.851 25.5858C162.606 25.3117 163.405 25.1787 164.208 25.1934C165.009 25.1226 165.813 25.2923 166.517 25.6807C167.221 26.0691 167.792 26.6585 168.159 27.3734C168.862 26.6631 169.702 26.1034 170.629 25.7286C171.556 25.3538 172.55 25.1717 173.549 25.1934ZM170.145 36.9C170.534 37.3063 171.001 37.6296 171.519 37.8504C172.037 38.0713 172.594 38.1852 173.157 38.1852C173.719 38.1852 174.277 38.0713 174.794 37.8504C175.312 37.6296 175.779 37.3063 176.168 36.9C176.988 35.9868 177.419 34.7902 177.369 33.5646C177.426 32.338 176.994 31.1388 176.168 30.2292C175.779 29.823 175.312 29.4997 174.794 29.2788C174.277 29.058 173.719 28.9441 173.157 28.9441C172.594 28.9441 172.037 29.058 171.519 29.2788C171.001 29.4997 170.534 29.823 170.145 30.2292C169.351 31.1548 168.937 32.3467 168.988 33.5646C168.944 34.7816 169.356 35.9712 170.145 36.9Z" fill="#394149"/>
<path d="M192.493 42.11C190.534 42.1904 188.591 41.7223 186.884 40.7584C186.199 40.3463 185.616 39.7855 185.178 39.1175C184.74 38.4495 184.457 37.6916 184.353 36.8998C184.353 36.4638 184.505 36.2458 184.985 36.2458H188.194C188.346 36.2517 188.494 36.2997 188.621 36.3843C188.748 36.4689 188.85 36.587 188.914 36.7254C189.372 37.9026 190.573 38.4912 192.493 38.4912C193.163 38.5218 193.83 38.387 194.436 38.0988C194.644 38.0046 194.824 37.8554 194.955 37.6673C195.085 37.4791 195.162 37.2591 195.178 37.0306C195.178 36.4638 194.828 36.0714 194.13 35.8098C193.302 35.5344 192.445 35.3516 191.577 35.2648C190.547 35.1484 189.527 34.9664 188.521 34.7198C187.543 34.4987 186.654 33.9899 185.968 33.2592C185.564 32.7625 185.266 32.1882 185.094 31.5718C184.922 30.9555 184.878 30.3103 184.966 29.6765C185.054 29.0426 185.272 28.4336 185.606 27.8874C185.939 27.3411 186.382 26.8693 186.906 26.5012C188.479 25.5002 190.325 25.0127 192.188 25.106C193.991 25.0451 195.776 25.4907 197.338 26.3922C197.968 26.7485 198.51 27.2406 198.926 27.8327C199.341 28.4248 199.619 29.1019 199.739 29.8148C199.739 30.2508 199.543 30.4688 199.15 30.4688H195.92C195.784 30.4768 195.648 30.4437 195.532 30.3737C195.415 30.3037 195.322 30.2001 195.265 30.0764C195.049 29.5601 194.643 29.1464 194.13 28.921C193.552 28.6187 192.906 28.4687 192.253 28.485C191.613 28.4502 190.975 28.5777 190.398 28.8556C190.195 28.934 190.019 29.0714 189.895 29.2501C189.77 29.4288 189.702 29.6407 189.7 29.8584C189.714 30.1565 189.823 30.4423 190.011 30.6738C190.2 30.9053 190.458 31.0703 190.747 31.1446C191.585 31.4601 192.457 31.6795 193.344 31.7986C194.365 31.9328 195.378 32.122 196.378 32.3654C197.356 32.5865 198.245 33.0953 198.931 33.826C199.298 34.2286 199.582 34.6998 199.765 35.2124C199.949 35.725 200.029 36.2689 200.001 36.8126C200.02 37.5662 199.843 38.3118 199.487 38.9766C199.131 39.6414 198.609 40.2027 197.971 40.6058C196.341 41.6514 194.43 42.1761 192.493 42.11Z" fill="#394149"/>
<path d="M223.07 41.0204C223.082 41.0978 223.079 41.1769 223.06 41.253C223.041 41.3292 223.008 41.4008 222.961 41.4638C222.914 41.5267 222.855 41.5797 222.788 41.6196C222.72 41.6595 222.645 41.6856 222.568 41.6962C221.771 41.956 220.94 42.0956 220.101 42.1104C219.272 42.1962 218.434 42.0667 217.67 41.7344C216.905 41.4022 216.239 40.8784 215.736 40.2138C214.195 41.5377 212.201 42.217 210.171 42.1104C209.228 42.1538 208.287 41.9997 207.408 41.658C206.528 41.3164 205.73 40.7947 205.064 40.1266C204.403 39.4265 203.89 38.6003 203.557 37.6976C203.223 36.7948 203.075 35.834 203.122 34.8728V26.349C203.122 25.9348 203.318 25.7168 203.733 25.7168H207.399C207.814 25.7168 208.01 25.9348 208.01 26.349V34.2188C207.971 35.1993 208.306 36.1581 208.949 36.9002C209.27 37.2401 209.66 37.5075 210.093 37.6842C210.526 37.861 210.991 37.943 211.459 37.9248C211.937 37.9457 212.415 37.8717 212.864 37.7071C213.314 37.5424 213.726 37.2904 214.078 36.9656C214.41 36.6232 214.669 36.2164 214.838 35.7702C215.007 35.324 215.082 34.8479 215.06 34.3714V26.349C215.06 25.9348 215.256 25.7168 215.671 25.7168H219.381C219.796 25.7168 219.992 25.9348 219.992 26.349V36.6168C219.992 37.467 220.363 37.8812 221.083 37.8812C221.422 37.8943 221.76 37.8575 222.087 37.7722C222.17 37.7491 222.257 37.7449 222.341 37.7601C222.425 37.7752 222.505 37.8092 222.574 37.8595C222.644 37.9099 222.701 37.9753 222.741 38.0507C222.781 38.1262 222.804 38.2099 222.808 38.2954L223.07 41.0204Z" fill="#394149"/>
<path d="M257.749 41.0204C257.768 41.0985 257.77 41.1799 257.755 41.2587C257.739 41.3376 257.706 41.412 257.658 41.4766C257.61 41.5412 257.548 41.5944 257.477 41.6324C257.406 41.6703 257.327 41.6921 257.247 41.6962C256.436 41.9597 255.59 42.0994 254.737 42.1104C253.439 42.1773 252.157 41.809 251.092 41.064C250.632 40.7449 250.258 40.3173 250.003 39.8191C249.748 39.321 249.62 38.7676 249.63 38.2082V33.0852C249.676 32.1076 249.348 31.1492 248.714 30.4038C248.407 30.0631 248.029 29.7945 247.607 29.6173C247.184 29.4401 246.727 29.3588 246.269 29.3792C245.856 29.3636 245.446 29.4419 245.067 29.608C244.689 29.7742 244.354 30.0239 244.087 30.3384C243.511 31.0689 243.216 31.9818 243.257 32.9108V40.955C243.257 41.3692 243.061 41.5872 242.646 41.5872H238.958C238.872 41.5978 238.785 41.5887 238.704 41.5607C238.622 41.5327 238.548 41.4865 238.487 41.4255C238.426 41.3645 238.38 41.2905 238.352 41.2089C238.323 41.1274 238.314 41.0406 238.325 40.955V33.0852C238.373 32.1183 238.071 31.1666 237.474 30.4038C237.208 30.0834 236.874 29.8255 236.497 29.6484C236.12 29.4713 235.708 29.3794 235.291 29.3792C234.846 29.3613 234.402 29.4374 233.988 29.6027C233.575 29.768 233.201 30.0187 232.891 30.3384C232.266 31.0456 231.945 31.9693 231.996 32.9108V40.955C232.006 41.0406 231.997 41.1274 231.969 41.2089C231.941 41.2905 231.895 41.3645 231.834 41.4255C231.773 41.4865 231.699 41.5327 231.617 41.5607C231.536 41.5887 231.449 41.5978 231.363 41.5872H227.806C227.391 41.5872 227.194 41.3692 227.194 40.955V30.6872C227.22 30.5124 227.205 30.3339 227.149 30.1662C227.093 29.9984 226.999 29.846 226.874 29.721C226.749 29.5961 226.596 29.502 226.428 29.4465C226.26 29.3909 226.082 29.3753 225.907 29.401H225.187C224.706 29.401 224.466 29.2266 224.466 28.8778V26.3054C224.455 26.1462 224.499 25.988 224.59 25.8571C224.681 25.7262 224.815 25.6305 224.968 25.586C225.723 25.3119 226.522 25.1789 227.325 25.1936C228.096 25.128 228.87 25.2815 229.558 25.6364C230.245 25.9912 230.818 26.533 231.21 27.1992C231.946 26.5021 232.819 25.9642 233.773 25.6192C234.726 25.2741 235.741 25.1292 236.754 25.1936C237.737 25.1457 238.718 25.3299 239.616 25.7314C240.515 26.1329 241.306 26.7403 241.926 27.5044C242.648 26.7203 243.536 26.1062 244.525 25.7066C245.514 25.307 246.579 25.1318 247.644 25.1936C248.597 25.1491 249.548 25.3024 250.439 25.6438C251.329 25.9853 252.139 26.5075 252.817 27.1774C253.48 27.8761 253.994 28.702 254.328 29.6051C254.662 30.5083 254.808 31.4697 254.759 32.4312V36.6386C254.759 37.467 255.13 37.8812 255.828 37.8812C256.167 37.897 256.505 37.8602 256.832 37.7722C257.283 37.7722 257.523 37.9466 257.553 38.2954L257.749 41.0204Z" fill="#394149"/>
<path d="M1.83231 22.8828C3.44247 16.4184 7.17157 10.6779 12.4258 6.57537C17.6801 2.47284 24.1574 0.244141 30.8265 0.244141C37.4955 0.244141 43.9729 2.47284 49.2271 6.57537C54.4814 10.6779 58.2105 16.4184 59.8206 22.8828H57.2017C52.7836 22.8178 48.4562 24.1367 44.827 26.6542C44.6176 26.8057 44.3989 26.944 44.1723 27.0684H43.8668C43.6401 26.944 43.4215 26.8057 43.212 26.6542C39.5507 24.195 35.2386 22.8815 30.8265 22.8815C26.4143 22.8815 22.1023 24.195 18.4409 26.6542C18.2315 26.8057 18.0128 26.944 17.7862 27.0684H17.4806C17.254 26.944 17.0354 26.8057 16.8259 26.6542C13.1967 24.1367 8.8693 22.8178 4.45128 22.8828H1.83231ZM52.4875 36.5514C53.8319 35.5056 55.4982 34.9585 57.2017 35.0036H60.7154V28.0058H57.2017C54.2013 27.9696 51.2694 28.9024 48.8428 30.6654C47.4772 31.671 45.8252 32.2136 44.1286 32.2136C42.4321 32.2136 40.7801 31.671 39.4145 30.6654C36.9263 28.9353 33.9673 28.0078 30.9356 28.0078C27.9039 28.0078 24.9449 28.9353 22.4567 30.6654C21.0911 31.671 19.4391 32.2136 17.7425 32.2136C16.046 32.2136 14.394 31.671 13.0284 30.6654C10.5718 28.8798 7.59796 27.9458 4.56041 28.0058H0.9375V35.0036H4.45128C6.15472 34.9585 7.821 35.5056 9.16543 36.5514C11.6491 38.2827 14.6048 39.2109 17.6334 39.2109C20.6621 39.2109 23.6178 38.2827 26.1014 36.5514C27.4476 35.5088 29.1127 34.9621 30.8156 35.0036C32.5195 34.9548 34.187 35.5023 35.5297 36.5514C38.0179 38.2815 40.9769 39.209 44.0086 39.209C47.0403 39.209 49.9993 38.2815 52.4875 36.5514ZM52.4875 49.0646C53.8319 48.0188 55.4982 47.4717 57.2017 47.5168H60.7154V40.519H57.2017C54.2013 40.4828 51.2694 41.4156 48.8428 43.1786C47.4772 44.1842 45.8252 44.7267 44.1286 44.7267C42.4321 44.7267 40.7801 44.1842 39.4145 43.1786C36.9263 41.4485 33.9673 40.521 30.9356 40.521C27.9039 40.521 24.9449 41.4485 22.4567 43.1786C21.0911 44.1842 19.4391 44.7267 17.7425 44.7267C16.046 44.7267 14.394 44.1842 13.0284 43.1786C10.5718 41.393 7.59796 40.459 4.56041 40.519H0.9375V47.5168H4.45128C6.15472 47.4717 7.821 48.0188 9.16543 49.0646C11.6491 50.7959 14.6048 51.7241 17.6334 51.7241C20.6621 51.7241 23.6178 50.7959 26.1014 49.0646C27.4476 48.022 29.1127 47.4753 30.8156 47.5168C32.5195 47.468 34.187 48.0155 35.5297 49.0646C38.0179 50.7947 40.9769 51.7222 44.0086 51.7222C47.0403 51.7222 49.9993 50.7947 52.4875 49.0646Z" fill="#394149"/>
</svg>
