<svg width="451" height="61" viewBox="0 0 451 61" fill="none" xmlns="http://www.w3.org/2000/svg">
<g clip-path="url(#clip0_310_1405)">
<path d="M62.6499 12.9375H83.6914C90.2592 12.9375 95.2812 16.7842 95.2812 22.8186C95.2812 26.932 92.6097 30.1368 89.3507 31.3121C93.2471 32.1664 96.1852 35.4797 96.1852 40.1762C96.1852 46.3191 90.9508 50.324 84.3287 50.324H62.6499V12.9375ZM82.8913 28.4237C86.521 28.4237 88.6591 26.6608 88.6591 23.5102C88.6591 20.5721 86.4713 18.755 82.8913 18.755H69.2177V28.4237H82.8913ZM83.262 44.4975C87.1629 44.4975 89.5631 42.5222 89.5631 39.2631C89.5631 36.0583 87.1584 34.2954 83.262 34.2954H69.2177V44.4975H83.262Z" fill="white"/>
<path d="M102.703 23.6182H108.738V28.9068C110.071 25.2771 112.209 23.6182 116.481 23.6182H120.915V29.3859H116.11C111.572 29.3859 109.009 32.0031 109.009 36.9166V50.3235H102.708V23.6182H102.703Z" fill="white"/>
<path d="M133.468 34.2459L142.974 33.6583V32.908C142.974 29.8613 140.519 28.207 136.406 28.207H135.552C132.347 28.207 130.105 29.5404 129.73 31.6785H123.32C123.853 26.7108 128.875 23.0811 135.976 23.0811C144.361 23.0811 149.117 27.2442 149.117 33.2289V44.4435C149.117 46.1521 149.225 48.1274 149.492 50.3197H143.616C143.507 49.7321 143.403 48.9863 143.349 48.0235C143.295 47.0064 143.24 46.3691 143.24 46.1024C141.957 48.5614 138.218 50.8576 133.468 50.8576C126.47 50.8576 122.574 47.5443 122.574 42.9518C122.57 37.3423 126.791 34.6708 133.468 34.2459ZM134.747 45.7272C138.86 45.7272 142.974 43.8559 142.974 40.1719V38.3051L135.122 38.7842C130.688 39.1594 128.925 40.3346 128.925 42.4682C128.925 44.6559 130.579 45.7272 133.947 45.7272H134.747Z" fill="white"/>
<path d="M156.43 23.6183H162.732V27.7317C164.707 24.9518 167.912 23.085 172.558 23.085C179.981 23.085 183.985 27.6232 183.985 34.0871V50.3236H177.689V35.3663C177.689 30.932 175.768 28.2109 171.709 28.2109H170.963C166.637 28.2109 162.736 31.7909 162.736 36.8625V50.3191H156.435V23.6183H156.43Z" fill="white"/>
<path d="M203.752 23.0805C208.399 23.0805 212.137 24.8433 213.9 27.352V12.9326H220.201V50.3191H213.9V46.7391C211.979 49.2478 208.078 50.8525 203.861 50.8525C195.688 50.8525 189.6 45.4599 189.6 36.9665C189.6 28.0481 195.634 23.0805 203.752 23.0805ZM205.086 45.7266C210.108 45.7266 213.9 42.4676 213.9 36.9665C213.9 31.4654 210.108 28.2064 205.086 28.2064H204.34C199.372 28.2064 196.009 31.4654 196.009 36.9665C196.009 42.4676 199.372 45.7266 204.34 45.7266H205.086Z" fill="white"/>
<path d="M260.738 12.3994C271.311 12.3994 277.938 18.1129 279.004 25.0062H272.061C271.099 20.7346 266.615 18.2214 261.168 18.2214H260.313C251.983 18.2214 246.803 24.0976 246.803 31.6283C246.803 39.2132 251.983 45.0352 260.313 45.0352H261.168C266.777 45.0352 270.995 42.6847 272.061 38.2504H279.004C277.829 45.6725 271.044 50.8572 260.738 50.8572C248.082 50.8572 240.176 42.7932 240.176 31.6283C240.013 20.7301 248.452 12.2954 260.738 12.3994Z" fill="white"/>
<path d="M293.957 34.2459L303.463 33.6583V32.908C303.463 29.8613 301.009 28.207 296.895 28.207H296.041C292.836 28.207 290.594 29.5404 290.219 31.6785H283.809C284.343 26.7108 289.365 23.0811 296.466 23.0811C304.851 23.0811 309.606 27.2442 309.606 33.2289V44.4435C309.606 46.1521 309.715 48.1274 309.981 50.3197H304.105C303.997 49.7321 303.893 48.9863 303.838 48.0235C303.784 47.0064 303.73 46.3691 303.73 46.1024C302.446 48.5614 298.708 50.8576 293.957 50.8576C286.96 50.8576 283.063 47.5443 283.063 42.9518C283.059 37.3423 287.281 34.6708 293.957 34.2459ZM295.236 45.7272C299.35 45.7272 303.463 43.8559 303.463 40.1719V38.3051L295.612 38.7842C291.177 39.1594 289.414 40.3346 289.414 42.4682C289.414 44.6559 291.069 45.7272 294.436 45.7272H295.236Z" fill="white"/>
<path d="M316.92 23.6183H323.221V27.1983C325.196 24.6896 329.043 23.085 333.26 23.085C341.487 23.085 347.522 28.4776 347.522 36.971C347.522 45.8893 341.433 50.857 333.423 50.857C328.776 50.857 325.092 49.0941 323.221 46.5854V61.0049H316.92V23.6183ZM332.786 45.7266C337.699 45.7266 341.171 42.4675 341.171 36.9665C341.171 31.4654 337.699 28.2063 332.786 28.2063H332.04C327.018 28.2063 323.225 31.4654 323.225 36.9665C323.225 42.4675 327.018 45.7266 332.04 45.7266H332.786Z" fill="white"/>
<path d="M355.911 28.7986H349.289V23.6184H355.911V14.9668H362.212V23.6184H370.597V28.7986H362.212V42.8428C362.212 44.3933 362.8 44.9809 364.35 44.9809H371.827V50.3237H362.375C358.049 50.3237 355.911 48.2399 355.911 44.4475V28.7986Z" fill="white"/>
<path d="M385.871 34.2459L395.377 33.6583V32.908C395.377 29.8613 392.922 28.207 388.809 28.207H387.955C384.75 28.207 382.508 29.5404 382.133 31.6785H375.723C376.256 26.7108 381.278 23.0811 388.38 23.0811C396.764 23.0811 401.52 27.2442 401.52 33.2289V44.4435C401.52 46.1521 401.628 48.1274 401.895 50.3197H396.019C395.91 49.7321 395.806 48.9863 395.752 48.0235C395.698 47.0064 395.643 46.3691 395.643 46.1024C394.36 48.5614 390.621 50.8576 385.871 50.8576C378.874 50.8576 374.977 47.5443 374.977 42.9518C374.977 37.3423 379.194 34.6708 385.871 34.2459ZM387.155 45.7272C391.268 45.7272 395.381 43.8559 395.381 40.1719V38.3051L387.53 38.7842C383.095 39.1594 381.333 40.3346 381.333 42.4682C381.333 44.6559 382.987 45.7272 386.354 45.7272H387.155Z" fill="white"/>
<path d="M415.514 12.9375V19.7178H408.625L415.514 12.9375Z" fill="white"/>
<path d="M422.774 23.6183H429.075V27.7317C431.05 24.9518 434.255 23.085 438.902 23.085C446.324 23.085 450.333 27.6232 450.333 34.0871V50.3236H444.032V35.3663C444.032 30.932 442.111 28.2109 438.052 28.2109H437.302C432.976 28.2109 429.075 31.7909 429.075 36.8625V50.3191H422.774V23.6183Z" fill="white"/>
<path d="M415.139 23.6182H408.838V50.3235H415.139V23.6182Z" fill="white"/>
<path d="M18.1079 26.5924C19.3362 26.5924 20.3318 25.5967 20.3318 24.3685C20.3318 23.1402 19.3362 22.1445 18.1079 22.1445C16.8797 22.1445 15.884 23.1402 15.884 24.3685C15.884 25.5967 16.8797 26.5924 18.1079 26.5924Z" fill="white"/>
<path d="M11.9017 30.5977V32.243H13.1944C13.5922 34.9009 15.893 36.944 18.6594 36.944V35.3032C16.5168 35.3032 14.7765 33.5629 14.7765 31.4203V30.5977H11.9017Z" fill="white"/>
<path d="M20.3544 10.3887H0.329974L0.23053 33.062L7.77473 28.0717C7.77473 28.0717 7.74309 28.0897 7.69337 28.1169C8.04142 27.9089 8.37592 27.6603 8.67425 27.362L7.51256 26.2003C6.22431 27.4886 4.12242 27.4886 2.83416 26.2003C2.21037 25.5765 1.86684 24.7448 1.86684 23.8588C1.86684 22.9729 2.21037 22.1457 2.83416 21.5174C4.12694 20.2291 6.22431 20.2291 7.51256 21.5174L7.74309 21.7479L8.06854 21.757C8.29908 21.766 13.7323 21.8971 17.3395 18.403C19.3283 16.4774 20.3499 13.8511 20.3906 10.5876L20.3544 10.3887Z" fill="white"/>
<path d="M18.935 3.35463C18.935 1.24822 17.0185 -0.338365 14.9482 0.0594123L2.52223 2.64044C0.664429 3.02466 -0.393296 4.99546 0.302814 6.75834H18.935" fill="#FF2B53"/>
<path d="M18.9351 6.73542H29.4039V6.74446C35.931 6.92074 41.1654 12.2591 41.1654 18.8269C41.1654 24.3868 37.4091 29.0697 32.2968 30.48C37.4543 32.2519 41.1654 37.1428 41.1654 42.9015C41.1654 48.4794 37.6894 53.2437 32.785 55.1467C31.2978 55.7253 29.7022 55.9603 28.1066 55.9648L0 56.0326V47.4985L7.9239 40.9352H16.4942C20.8517 40.9352 24.3864 37.4004 24.3864 33.0429V30.4981H29.3225L20.3544 10.3877H23.731L18.9351 6.73542V6.34668V6.73542Z" fill="#4FE4E2"/>
</g>
<defs>
<clipPath id="clip0_310_1405">
<rect width="450.333" height="61" fill="white" transform="translate(0 0.000976562)"/>
</clipPath>
</defs>
</svg>
