<svg width="287" height="60" viewBox="0 0 287 60" fill="none" xmlns="http://www.w3.org/2000/svg">
<path d="M44.7511 26.4487C43.924 27.2799 43.2906 28.2831 42.896 29.3867C42.5014 30.4904 42.3553 31.6674 42.4682 32.8339L42.4289 32.7947C42.545 34.1677 42.3596 35.5496 41.8858 36.8437C41.412 38.1378 40.6611 39.3131 39.6857 40.2875C38.7102 41.2618 37.5336 42.0118 36.238 42.4851C34.9423 42.9584 33.5589 43.1435 32.1843 43.0276L32.2236 43.0668C30.5792 42.914 28.9277 43.2714 27.4942 44.0904C26.0606 44.9094 24.9149 46.1501 24.2131 47.6433C23.5114 49.1365 23.2878 50.8096 23.5729 52.4344C23.858 54.0592 24.6378 55.5567 25.8061 56.7225C26.9744 57.8884 28.4742 58.666 30.1011 58.9493C31.7281 59.2326 33.4028 59.0077 34.8972 58.3055C36.3915 57.6032 37.6325 56.4576 38.4512 55.025C39.2698 53.5924 39.6262 51.9424 39.4716 50.3001L39.5131 50.3393C39.3971 48.9662 39.5824 47.5844 40.0562 46.2903C40.53 44.9961 41.2809 43.8209 42.2564 42.8465C43.2318 41.8721 44.4084 41.1222 45.7041 40.6489C46.9997 40.1756 48.3831 39.9905 49.7578 40.1064L49.7163 40.0671C51.0595 40.1878 52.4115 39.9678 53.6469 39.4276C54.8824 38.8874 55.9613 38.0444 56.7837 36.9768C57.6061 35.9092 58.1454 34.6514 58.3517 33.3202C58.5579 31.9889 58.4243 30.6272 57.9634 29.3612C57.5024 28.0953 56.729 26.966 55.7147 26.0781C54.7005 25.1902 53.4783 24.5724 52.1614 24.282C50.8445 23.9915 49.4755 24.0378 48.1812 24.4166C46.887 24.7953 45.7094 25.4943 44.7576 26.4487H44.7511Z" fill="#394149"/>
<path d="M28.6509 37.9267L28.6094 37.8874C29.7777 38.005 30.9577 37.8618 32.0638 37.4681C33.1699 37.0744 34.1747 36.4401 35.0053 35.611C35.836 34.7819 36.4718 33.7788 36.8668 32.6743C37.2617 31.5697 37.406 30.3912 37.2892 29.2241L37.3307 29.2634C37.2146 27.8903 37.4 26.5084 37.8738 25.2143C38.3476 23.9202 39.0984 22.7449 40.0739 21.7705C41.0494 20.7962 42.226 20.0462 43.5216 19.5729C44.8172 19.0997 46.2006 18.9145 47.5753 19.0304L47.5338 18.9912C49.1783 19.1455 50.8304 18.7892 52.2647 17.9712C53.6991 17.1531 54.8458 15.913 55.5487 14.42C56.2515 12.927 56.4761 11.2537 56.1918 9.62853C55.9076 8.00333 55.1284 6.50527 53.9605 5.33867C52.7925 4.17207 51.2928 3.39375 49.6657 3.10985C48.0386 2.82595 46.3635 3.05029 44.8688 3.75229C43.374 4.45429 42.1325 5.59977 41.3135 7.03247C40.4945 8.46518 40.1379 10.1154 40.2923 11.758L40.253 11.7165C40.3694 13.0897 40.1844 14.4717 39.7107 15.766C39.237 17.0603 38.4862 18.2357 37.5106 19.2102C36.535 20.1846 35.3583 20.9346 34.0625 21.4077C32.7667 21.8809 31.3831 22.0657 30.0084 21.9495L30.0477 21.9909C28.8793 21.8733 27.6994 22.0165 26.5932 22.4102C25.4871 22.8039 24.4824 23.4382 23.6517 24.2673C22.8211 25.0964 22.1853 26.0995 21.7903 27.2041C21.3953 28.3086 21.251 29.4871 21.3679 30.6542L21.3286 30.615C21.4442 31.9879 21.2586 33.3696 20.7847 34.6636C20.3107 35.9575 19.5599 37.1326 18.5845 38.1069C17.6091 39.0812 16.4326 39.8312 15.1372 40.3046C13.8417 40.778 12.4585 40.9634 11.0839 40.8479L11.1232 40.8871C9.47876 40.7329 7.82668 41.0891 6.39233 41.9071C4.95798 42.7252 3.8112 43.9653 3.10839 45.4583C2.40559 46.9514 2.18098 48.6246 2.46521 50.2498C2.74943 51.875 3.52866 53.373 4.69659 54.5396C5.86452 55.7062 7.3643 56.4846 8.99137 56.7685C10.6184 57.0524 12.2936 56.828 13.7883 56.126C15.283 55.424 16.5246 54.2785 17.3436 52.8458C18.1626 51.4131 18.5192 49.7629 18.3648 48.1204L18.4062 48.1596C18.2902 46.7865 18.4755 45.4047 18.9493 44.1106C19.4231 42.8164 20.174 41.6412 21.1495 40.6668C22.125 39.6924 23.3016 38.9424 24.5972 38.4692C25.8928 37.9959 27.2762 37.8108 28.6509 37.9267Z" fill="#394149"/>
<path d="M14.0237 33.5515C14.851 32.7204 15.4843 31.7172 15.8785 30.6134C16.2728 29.5097 16.4182 28.3326 16.3045 27.1662L16.3459 27.2055C16.2298 25.832 16.4152 24.4498 16.8893 23.1553C17.3634 21.8608 18.1146 20.6853 19.0906 19.7109C20.0665 18.7364 21.2437 17.9865 22.5399 17.5136C23.836 17.0406 25.2199 16.856 26.5949 16.9725L26.5535 16.9333C28.1974 17.0871 29.8488 16.7307 31.2824 15.9127C32.7161 15.0947 33.8623 13.8549 34.5647 12.3623C35.2671 10.8698 35.4915 9.19718 35.2072 7.57258C34.923 5.94798 34.1441 4.45049 32.9766 3.28432C31.809 2.11815 30.3098 1.34007 28.6834 1.05618C27.0569 0.772292 25.3824 0.996419 23.8881 1.698C22.3939 2.39957 21.1526 3.54444 20.3337 4.97649C19.5147 6.40853 19.1579 8.05804 19.3119 9.70006L19.2727 9.66082C19.3887 11.0339 19.2033 12.4157 18.7295 13.7099C18.2557 15.004 17.5049 16.1793 16.5294 17.1536C15.5539 18.128 14.3773 18.878 13.0817 19.3512C11.7861 19.8245 10.4027 20.0097 9.02801 19.8937L9.0673 19.933C7.72413 19.8127 6.37228 20.033 5.13703 20.5734C3.90178 21.1139 2.82309 21.957 2.00092 23.0248C1.17875 24.0925 0.639701 25.3503 0.433727 26.6815C0.227753 28.0127 0.361517 29.3743 0.822623 30.6401C1.28373 31.906 2.05726 33.035 3.07153 33.9228C4.0858 34.8105 5.308 35.4282 6.62487 35.7185C7.94174 36.0088 9.31066 35.9624 10.6048 35.5836C11.8989 35.2048 13.0764 34.5058 14.0281 33.5515H14.0237Z" fill="#394149"/>
<path d="M81.631 11.8076H88.113V43.3152H81.631V11.8076Z" fill="#394149"/>
<path d="M91.784 32.5267C91.7749 30.2625 92.4388 28.0465 93.6916 26.1594C94.9444 24.2724 96.7297 22.7992 98.8214 21.9264C100.913 21.0536 103.217 20.8205 105.441 21.2567C107.666 21.6929 109.711 22.7787 111.317 24.3765C112.923 25.9744 114.018 28.0124 114.464 30.2325C114.909 32.4526 114.685 34.7548 113.82 36.8476C112.954 38.9404 111.487 40.7295 109.602 41.9885C107.718 43.2474 105.502 43.9194 103.236 43.9194C101.731 43.9365 100.238 43.6539 98.8437 43.088C97.4495 42.5221 96.1823 41.6843 95.1161 40.6236C94.0499 39.5629 93.2061 38.3005 92.634 36.9102C92.0618 35.52 91.7729 34.0298 91.784 32.5267ZM108.205 32.5267C108.178 31.5507 107.864 30.6044 107.301 29.8059C106.738 29.0075 105.953 28.3924 105.042 28.0376C104.132 27.6828 103.136 27.6039 102.181 27.8109C101.226 28.018 100.353 28.5017 99.6714 29.2015C98.9898 29.9014 98.53 30.7865 98.3492 31.746C98.1685 32.7055 98.275 33.697 98.6553 34.5964C99.0357 35.4958 99.673 36.2632 100.488 36.8028C101.302 37.3424 102.258 37.6302 103.236 37.6301C103.905 37.648 104.571 37.5271 105.191 37.2751C105.811 37.0231 106.373 36.6454 106.84 36.1659C107.307 35.6865 107.669 35.1155 107.904 34.4892C108.139 33.8628 108.242 33.1946 108.205 32.5267Z" fill="#394149"/>
<path d="M140.521 21.7357V42.2277C140.521 49.4784 134.86 52.5434 129.113 52.5434C127.09 52.6947 125.064 52.2865 123.258 51.3636C121.451 50.4406 119.934 49.0387 118.873 47.3114L124.404 44.1177C124.85 45.0181 125.56 45.7609 126.441 46.2467C127.321 46.7325 128.329 46.9382 129.329 46.8362C129.969 46.9247 130.62 46.8685 131.235 46.6716C131.85 46.4748 132.412 46.1424 132.881 45.6991C133.35 45.2557 133.713 44.7128 133.943 44.1104C134.173 43.508 134.265 42.8616 134.212 42.219V40.2461C133.453 41.1737 132.487 41.9108 131.391 42.398C130.295 42.8852 129.1 43.1091 127.902 43.0517C125.051 42.9619 122.347 41.7676 120.363 39.7216C118.378 37.6756 117.268 34.9385 117.268 32.0896C117.268 29.2407 118.378 26.5035 120.363 24.4575C122.347 22.4116 125.051 21.2173 127.902 21.1275C129.1 21.07 130.295 21.2939 131.391 21.7812C132.487 22.2684 133.453 23.0055 134.212 23.9331V21.7313L140.521 21.7357ZM134.214 32.0929C134.257 31.0494 133.987 30.0168 133.438 29.128C132.89 28.2392 132.087 27.5347 131.134 27.1054C130.181 26.6761 129.121 26.5415 128.09 26.719C127.06 26.8964 126.106 27.3778 125.352 28.1012C124.598 28.8246 124.078 29.7568 123.859 30.778C123.64 31.7991 123.731 32.8624 124.122 33.831C124.513 34.7996 125.185 35.6292 126.052 36.213C126.919 36.7968 127.941 37.1081 128.987 37.1069C129.668 37.1543 130.351 37.0588 130.993 36.8264C131.635 36.594 132.221 36.2299 132.713 35.7576C133.206 35.2853 133.594 34.7151 133.852 34.0839C134.111 33.4528 134.234 32.7745 134.214 32.0929Z" fill="#394149"/>
<path d="M144.192 32.5267C144.183 30.2625 144.847 28.0465 146.1 26.1594C147.353 24.2724 149.138 22.7992 151.23 21.9264C153.321 21.0536 155.625 20.8205 157.85 21.2567C160.074 21.6929 162.119 22.7787 163.725 24.3765C165.331 25.9744 166.426 28.0124 166.872 30.2325C167.317 32.4526 167.093 34.7548 166.228 36.8476C165.363 38.9404 163.895 40.7295 162.011 41.9885C160.126 43.2474 157.911 43.9194 155.644 43.9194C154.139 43.9365 152.646 43.6539 151.252 43.088C149.858 42.5221 148.591 41.6843 147.524 40.6236C146.458 39.5629 145.614 38.3005 145.042 36.9102C144.47 35.52 144.181 34.0298 144.192 32.5267ZM160.613 32.5267C160.586 31.5507 160.272 30.6044 159.709 29.8059C159.147 29.0075 158.361 28.3924 157.45 28.0376C156.54 27.6828 155.545 27.6039 154.589 27.8109C153.634 28.018 152.761 28.5017 152.08 29.2015C151.398 29.9014 150.938 30.7865 150.757 31.746C150.577 32.7055 150.683 33.697 151.064 34.5964C151.444 35.4958 152.081 36.2632 152.896 36.8028C153.71 37.3424 154.666 37.6302 155.644 37.6301C156.313 37.648 156.979 37.5271 157.599 37.2751C158.22 37.0231 158.781 36.6454 159.248 36.1659C159.715 35.6865 160.077 35.1155 160.312 34.4892C160.547 33.8628 160.65 33.1946 160.613 32.5267Z" fill="#394149"/>
<path d="M170.118 15.9521C170.118 15.1838 170.346 14.4327 170.774 13.7939C171.201 13.155 171.808 12.6571 172.519 12.3631C173.23 12.0691 174.012 11.9921 174.766 12.142C175.521 12.2919 176.214 12.6619 176.757 13.2052C177.301 13.7485 177.672 14.4407 177.822 15.1943C177.972 15.9478 177.895 16.7289 177.601 17.4388C177.306 18.1486 176.808 18.7553 176.168 19.1822C175.529 19.6091 174.777 19.8369 174.007 19.8369C172.979 19.8267 171.996 19.4141 171.269 18.6878C170.541 17.9615 170.128 16.9793 170.118 15.9521ZM170.773 21.7357H177.257V43.3177H170.764L170.773 21.7357Z" fill="#394149"/>
<path d="M205.245 32.527C205.32 33.9533 205.112 35.3804 204.633 36.7261C204.154 38.0718 203.413 39.3097 202.453 40.3684C201.494 41.4272 200.334 42.286 199.041 42.8954C197.747 43.5049 196.346 43.853 194.918 43.9197C193.717 43.9852 192.516 43.7828 191.403 43.3273C190.289 42.8718 189.292 42.1746 188.482 41.2862V51.9486H182V21.736H188.482V23.7634C189.292 22.8757 190.29 22.179 191.403 21.7239C192.516 21.2689 193.717 21.0667 194.918 21.1321C196.347 21.1986 197.748 21.5465 199.041 22.156C200.335 22.7655 201.495 23.6245 202.455 24.6836C203.415 25.7426 204.155 26.9808 204.634 28.3269C205.113 29.673 205.321 31.1004 205.245 32.527ZM198.763 32.527C198.738 31.517 198.415 30.5368 197.835 29.7092C197.254 28.8816 196.443 28.2434 195.501 27.8744C194.559 27.5053 193.53 27.4219 192.541 27.6346C191.552 27.8472 190.648 28.3465 189.942 29.0698C189.235 29.7932 188.759 30.7086 188.571 31.7013C188.383 32.6941 188.492 33.7202 188.885 34.6512C189.278 35.5822 189.937 36.3767 190.78 36.9353C191.623 37.4939 192.612 37.7918 193.624 37.7917C194.318 37.8226 195.011 37.7065 195.658 37.451C196.304 37.1956 196.889 36.8066 197.374 36.3095C197.86 35.8124 198.234 35.2184 198.474 34.5666C198.713 33.9147 198.812 33.2197 198.763 32.527Z" fill="#394149"/>
<path d="M225.248 36.8408C225.248 41.8046 220.929 43.9192 216.263 43.9192C214.377 44.0898 212.484 43.6915 210.828 42.7759C209.172 41.8603 207.828 40.4694 206.972 38.7831L212.587 35.5894C212.815 36.3689 213.302 37.0469 213.97 37.5103C214.637 37.9737 215.443 38.1945 216.254 38.1357C217.808 38.1357 218.587 37.6604 218.587 36.7993C218.587 34.4231 207.956 35.6766 207.956 28.2101C207.956 23.5035 211.933 21.1317 216.426 21.1317C218.116 21.0783 219.788 21.4785 221.27 22.2906C222.752 23.1027 223.988 24.297 224.851 25.7489L219.32 28.7268C219.078 28.1615 218.674 27.68 218.159 27.3423C217.645 27.0047 217.042 26.8258 216.426 26.828C215.302 26.828 214.611 27.264 214.611 28.0357C214.619 30.497 225.248 28.8554 225.248 36.8408Z" fill="#394149"/>
<path d="M248.926 21.7354V43.3174H242.444V41.2878C241.696 42.1833 240.747 42.889 239.673 43.3468C238.599 43.8045 237.432 44.0014 236.267 43.9212C231.902 43.9212 228.192 40.8147 228.192 34.9832V21.7354H234.674V34.0349C234.62 34.5489 234.678 35.0686 234.846 35.5577C235.013 36.0468 235.285 36.4936 235.643 36.8671C236 37.2406 236.435 37.5317 236.917 37.7203C237.399 37.9088 237.916 37.9903 238.432 37.9589C240.809 37.9589 242.45 36.579 242.45 33.5139V21.7419L248.926 21.7354Z" fill="#394149"/>
<path d="M286.094 30.0657V43.3157H279.612V30.6259C279.612 28.4677 278.575 27.0878 276.502 27.0878C274.341 27.0878 273.13 28.5985 273.13 31.1448V43.3157H266.65V30.6259C266.65 28.4677 265.613 27.0878 263.538 27.0878C261.377 27.0878 260.168 28.5985 260.168 31.1448V43.3157H253.686V21.7337H260.168V23.7175C260.84 22.8374 261.722 22.1395 262.733 21.6875C263.745 21.2354 264.853 21.0437 265.958 21.1298C267.067 21.0757 268.172 21.3094 269.163 21.8084C270.155 22.3074 271.001 23.0545 271.617 23.9769C272.336 23.0119 273.287 22.2446 274.383 21.7466C275.479 21.2487 276.683 21.0365 277.883 21.1298C282.844 21.132 286.094 24.6702 286.094 30.0657Z" fill="#394149"/>
</svg>
