<svg width="326" height="32" viewBox="0 0 326 32" fill="none" xmlns="http://www.w3.org/2000/svg">
<path d="M162.428 30.7155H151.282V0.875681H162.428V30.7155ZM152.37 29.6255H161.339V1.96568H152.37V29.6255ZM177.936 30.7155H167.014V0.875681H189.832C193.101 0.610586 196.356 1.52961 199.006 3.46552C200.146 4.51042 201.03 5.80507 201.588 7.24846C202.147 8.69186 202.365 10.245 202.225 11.7866C202.388 14.4505 201.541 17.0778 199.855 19.1441C197.858 21.4374 194.536 22.619 189.982 22.6604C188.835 22.6909 180.239 22.6604 177.942 22.6604L177.936 30.7155ZM168.096 29.6255H176.847V21.5595H177.394C177.505 21.5595 188.665 21.5944 189.956 21.5595C194.199 21.5225 197.249 20.4695 199.032 18.4138C200.533 16.5443 201.279 14.1784 201.122 11.7844C201.255 10.4031 201.07 9.00946 200.579 7.7116C200.088 6.41374 199.305 5.24651 198.292 4.30046C195.835 2.53487 192.83 1.7061 189.817 1.9635H168.103L168.096 29.6255ZM187.52 15.9569H176.773V7.83424H187.592C188.359 7.72811 189.14 7.81775 189.863 8.09482C190.587 8.37189 191.228 8.82741 191.728 9.4191C192.182 10.1754 192.396 11.0519 192.342 11.9326C192.383 12.7504 192.206 13.5643 191.831 14.2914C191.314 14.9146 190.647 15.3944 189.892 15.6845C189.137 15.9747 188.32 16.0655 187.52 15.9482V15.9569ZM177.862 14.8669H187.52C189.305 14.8669 190.411 14.4941 190.901 13.7268C191.171 13.169 191.293 12.5512 191.256 11.9326C191.304 11.2831 191.163 10.6337 190.851 10.0622L190.838 10.0426C190.32 9.27958 189.29 8.92424 187.592 8.92424H177.862V14.8669ZM222.089 31.1559C212.315 31.1559 206.481 28.7252 204.258 23.7264C203.895 22.761 203.648 21.7554 203.523 20.7311L203.427 20.1033H215.056L215.132 20.5611C215.221 21.0259 215.418 21.4634 215.707 21.8386C216.166 22.3945 217.698 23.3275 222.784 23.3275C228.896 23.3275 228.896 22.2528 228.896 21.6751C228.896 20.7006 228.189 20.3671 223.204 19.8351L222.257 19.7458C220.38 19.5692 218.008 19.3446 216.923 19.2509C207.781 18.4225 203.699 15.5776 203.699 10.0295C203.699 4.20236 210.645 0.4375 221.397 0.4375C230.168 0.4375 235.819 2.75266 238.189 7.32412C238.752 8.38748 239.129 9.53898 239.306 10.7293L239.382 11.3419H227.74L227.692 10.8492C227.647 10.4642 227.482 10.1029 227.222 9.81586C226.787 9.23162 225.411 8.26588 221.14 8.26588C215.896 8.26588 215.173 8.93732 215.173 9.66108C215.173 10.6268 216.83 10.9691 222.139 11.5381C224.353 11.719 227.912 12.0852 229.131 12.2335C236.796 13.0662 240.216 15.8414 240.216 21.2347C240.218 25.7582 237.073 31.1559 222.089 31.1559ZM204.698 21.1933C204.807 21.9122 204.995 22.6169 205.258 23.2948C207.282 27.8488 212.79 30.0659 222.089 30.0659C229.865 30.0659 239.136 28.5399 239.136 21.2347C239.136 16.454 236.11 14.0865 229.016 13.3169C227.797 13.1687 224.259 12.8046 222.05 12.6215C216.39 12.0068 214.089 11.6798 214.089 9.66108C214.089 7.57264 216.569 7.17588 221.144 7.17588C224.76 7.17588 227.096 7.82988 228.086 9.14878C228.357 9.47371 228.561 9.84844 228.687 10.2519H238.122C237.932 9.40874 237.632 8.59439 237.229 7.82988C235.052 3.64646 229.734 1.5275 221.401 1.5275C211.311 1.5275 204.792 4.86508 204.792 10.0295C204.792 14.9563 208.451 17.3892 217.024 18.1653C218.112 18.259 220.483 18.4835 222.363 18.6623L223.317 18.7517C227.947 19.24 229.989 19.5452 229.989 21.6751C229.989 23.9684 227.348 24.4175 222.788 24.4175C218.569 24.4175 215.905 23.7831 214.875 22.534C214.557 22.1357 214.318 21.6808 214.17 21.1933H204.698ZM260.896 31.1188C249.533 31.1188 243.264 26.5168 243.264 18.1587V0.875681H254.261V18.1587C254.261 21.0254 256.823 22.6691 261.288 22.6691C265.555 22.6691 268.204 20.9535 268.204 18.1958V0.875681H279.088V19.0743C279.099 26.7283 272.462 31.1188 260.89 31.1188H260.896ZM244.352 1.96568V18.1587C244.352 28.4876 254.71 30.0288 260.896 30.0288C267.292 30.0288 278.017 28.6053 278.017 19.0743V1.96568H269.31V18.1958C269.31 21.5748 266.166 23.7591 261.306 23.7591C256.225 23.7591 253.19 21.6663 253.19 18.1587V1.96568H244.352ZM325.212 30.7155H314.833V17.2431L308.946 30.7155H299.893L294.067 17.2693V30.7155H283.651V0.875681H297.352L304.471 17.3281L311.933 0.875681H325.225L325.212 30.7155ZM315.921 29.6255H324.123V1.96568H312.625L304.436 20.0139L296.63 1.96568H284.731V29.6255H292.97V12.0242L300.589 29.6321H308.208L315.908 12.0504L315.921 29.6255ZM10.8324 1.42068H0.918945V30.1705H28.3127V22.5165H10.8324V1.42068ZM48.3225 0.766682C35.6684 0.766682 29.0137 6.77258 29.0137 15.5907C29.0137 25.5533 35.9992 30.6065 48.3225 30.6065C61.8888 30.6065 67.5944 24.7467 67.5944 15.5907C67.5944 6.29298 61.1573 0.762316 48.3225 0.762316V0.766682ZM48.2855 8.23754C49.1469 8.23348 50.0078 8.28372 50.8629 8.38796L39.7805 19.4863C39.256 18.2984 39.0002 17.0091 39.0316 15.7106C39.0316 11.2002 41.2999 8.23318 48.2855 8.23318V8.23754ZM48.3225 23.2534C47.4925 23.257 46.6631 23.2105 45.8387 23.1139L56.9407 11.9959C57.4457 13.1641 57.6872 14.4295 57.6482 15.7019C57.6482 20.0902 55.5584 23.249 48.3225 23.249V23.2534ZM87.2363 19.3294H97.4393C97.2892 20.0385 96.9761 20.7028 96.525 21.2696C94.4098 22.9953 91.7101 23.8351 88.9908 23.6131C87.6221 23.7597 86.2379 23.61 84.932 23.1741C83.6261 22.7382 82.429 22.0262 81.4218 21.0865C80.3903 19.5711 79.9002 17.7513 80.0308 15.922C79.864 14.0053 80.3969 12.0929 81.5307 10.5396C82.9565 8.92642 85.3707 8.231 88.919 8.231C91.1767 8.0438 93.4315 8.62444 95.319 9.87908C95.9139 10.3523 96.3586 10.9885 96.599 11.7103H106.062C105.993 10.521 105.708 9.35441 105.219 8.26806C102.953 3.653 97.6853 0.9062 88.7274 0.9062C80.9364 0.9062 75.7076 3.28676 72.8188 6.87722C70.911 9.47003 69.9317 12.6312 70.039 15.8501C69.9156 19.1418 70.8696 22.3837 72.7557 25.0824C75.6096 28.7884 80.6926 30.6109 86.8009 30.6109C90.862 30.8945 94.8952 29.7555 98.2099 27.3888L98.4668 30.1705H106.327V13.1404H87.2363V19.3294ZM128.638 0.760137C115.986 0.760137 109.329 6.76604 109.329 15.5841C109.329 25.5467 116.313 30.6 128.638 30.6C142.207 30.6 147.912 24.7401 147.912 15.5841C147.912 6.29298 141.475 0.762316 128.638 0.762316V0.760137ZM128.603 8.231C129.442 8.22851 130.28 8.27656 131.113 8.37488L120.074 19.4362C119.566 18.2615 119.319 16.9904 119.349 15.7106C119.341 11.2002 121.618 8.23318 128.603 8.23318V8.231ZM128.638 23.2468C127.786 23.2504 126.935 23.2009 126.089 23.0986L137.228 11.9414C137.752 13.1252 138.003 14.412 137.962 15.7062C137.966 20.0902 135.885 23.249 128.638 23.249V23.2468Z" fill="#394149"/>
</svg>
