<svg width="190" height="93" viewBox="0 0 190 93" fill="none" xmlns="http://www.w3.org/2000/svg">
<path d="M45.5248 45.632L45.9343 45.5459H79.9973L92.7968 58.2701H58.2381L45.5248 45.632Z" fill="black"/>
<path d="M34.5589 45.5459L0 45.5461L12.7995 58.2702H34.5585L34.5589 45.5459Z" fill="black"/>
<path d="M104.691 8.99463H109.999V25.3916H119.115V29.8337H104.691V8.99463Z" fill="black"/>
<path d="M128.754 30.2804C126.974 30.2804 125.415 29.9625 124.075 29.3263C122.734 28.6705 121.695 27.7763 120.957 26.6433C120.235 25.4906 119.876 24.1689 119.876 22.6782C119.876 21.1876 120.235 19.8758 120.957 18.743C121.695 17.5903 122.734 16.6959 124.075 16.06C125.415 15.404 126.974 15.0762 128.754 15.0762C130.534 15.0762 132.092 15.404 133.433 16.06C134.771 16.6959 135.8 17.5903 136.52 18.743C137.26 19.8758 137.631 21.1876 137.631 22.6782C137.631 24.1689 137.26 25.4906 136.52 26.6433C135.8 27.7763 134.771 28.6705 133.433 29.3263C132.092 29.9625 130.534 30.2804 128.754 30.2804ZM128.754 26.1962C129.814 26.1962 130.653 25.8881 131.272 25.2721C131.913 24.6359 132.233 23.7715 132.233 22.6782C132.233 21.5851 131.913 20.7305 131.272 20.1143C130.653 19.4783 129.814 19.1604 128.754 19.1604C127.694 19.1604 126.844 19.4783 126.203 20.1143C125.584 20.7305 125.275 21.5851 125.275 22.6782C125.275 23.7715 125.584 24.6359 126.203 25.2721C126.844 25.8881 127.694 26.1962 128.754 26.1962Z" fill="black"/>
<path d="M147.544 36.6901C146.585 36.6901 145.616 36.6008 144.634 36.4218C143.676 36.243 142.847 36.0044 142.147 35.7063V32.0692C143.725 32.7449 145.525 33.083 147.544 33.083C149.004 33.083 150.054 32.7847 150.693 32.1883C151.353 31.5922 151.683 30.7179 151.683 29.565V28.7003C151.103 29.1972 150.384 29.5848 149.524 29.863C148.684 30.1414 147.783 30.2804 146.824 30.2804C145.307 30.2804 143.966 29.9624 142.807 29.3263C141.646 28.6906 140.737 27.796 140.077 26.6433C139.438 25.4906 139.118 24.1689 139.118 22.6782C139.118 21.1677 139.438 19.8361 140.077 18.6833C140.718 17.5306 141.617 16.6463 142.776 16.03C143.935 15.3941 145.265 15.0762 146.765 15.0762C148.825 15.0762 150.524 15.702 151.864 16.9542V15.5233H156.96V28.8495C156.96 31.3339 156.193 33.2617 154.652 34.6332C153.133 36.0044 150.763 36.6901 147.544 36.6901ZM148.144 26.2259C148.965 26.2259 149.693 26.0172 150.334 25.5998C150.973 25.1825 151.423 24.6261 151.683 23.9303V21.4262C151.402 20.7305 150.943 20.1839 150.303 19.7865C149.664 19.3691 148.944 19.1604 148.144 19.1604C147.066 19.1604 146.195 19.4783 145.536 20.1143C144.876 20.7305 144.546 21.5753 144.546 22.6485C144.546 23.7415 144.876 24.616 145.536 25.272C146.195 25.908 147.066 26.2259 148.144 26.2259Z" fill="black"/>
<path d="M167.178 30.2804C165.398 30.2804 163.837 29.9625 162.499 29.3263C161.158 28.6705 160.119 27.7763 159.379 26.6433C158.659 25.4906 158.3 24.1689 158.3 22.6782C158.3 21.1876 158.659 19.8758 159.379 18.743C160.119 17.5903 161.158 16.6959 162.499 16.06C163.837 15.404 165.398 15.0762 167.178 15.0762C168.958 15.0762 170.514 15.404 171.857 16.06C173.195 16.6959 174.224 17.5903 174.944 18.743C175.684 19.8758 176.055 21.1876 176.055 22.6782C176.055 24.1689 175.684 25.4906 174.944 26.6433C174.224 27.7763 173.195 28.6705 171.857 29.3263C170.514 29.9625 168.958 30.2804 167.178 30.2804ZM167.178 26.1962C168.238 26.1962 169.075 25.8881 169.696 25.2721C170.337 24.6359 170.657 23.7715 170.657 22.6782C170.657 21.5851 170.337 20.7305 169.696 20.1143C169.075 19.4783 168.238 19.1604 167.178 19.1604C166.118 19.1604 165.268 19.4783 164.627 20.1143C164.008 20.7305 163.699 21.5851 163.699 22.6782C163.699 23.7715 164.008 24.6359 164.627 25.2721C165.268 25.8881 166.118 26.1962 167.178 26.1962Z" fill="black"/>
<path d="M104.691 37.5039H109.999V58.343H104.691V37.5039Z" fill="black"/>
<path d="M112.686 44.0325H117.784V45.4635C119.124 44.2115 120.825 43.5854 122.883 43.5854C124.382 43.5854 125.712 43.9034 126.871 44.5395C128.03 45.1555 128.929 46.0399 129.57 47.1926C130.21 48.3255 130.529 49.6473 130.529 51.1577C130.529 52.6483 130.21 53.98 129.57 55.1526C128.929 56.3053 128.03 57.1999 126.871 57.8356C125.733 58.4717 124.401 58.7897 122.883 58.7897C121.922 58.7897 121.002 58.6407 120.124 58.3426C119.264 58.0644 118.544 57.6768 117.965 57.1798V64.8716H112.686V44.0325ZM121.503 54.7055C122.584 54.7055 123.452 54.3875 124.112 53.7514C124.772 53.1155 125.102 52.2508 125.102 51.1577C125.102 50.0647 124.772 49.21 124.112 48.5938C123.452 47.9579 122.584 47.6399 121.503 47.6399C120.703 47.6399 119.984 47.8486 119.344 48.266C118.705 48.6633 118.244 49.21 117.965 49.9056V52.4396C118.244 53.1354 118.705 53.6918 119.344 54.1091C119.984 54.5068 120.703 54.7055 121.503 54.7055Z" fill="black"/>
<path d="M138.399 58.7897C137.24 58.7897 136.029 58.6704 134.769 58.432C133.511 58.2134 132.511 57.8955 131.771 57.4781V53.6323C132.59 54.1091 133.569 54.5068 134.709 54.8248C135.87 55.1229 136.93 55.2719 137.889 55.2719C138.588 55.2719 139.1 55.2221 139.419 55.1228C139.739 55.0234 139.898 54.8248 139.898 54.5265C139.898 54.2881 139.788 54.0993 139.568 53.9603C139.368 53.8012 138.988 53.6421 138.429 53.4831C137.889 53.3043 137.258 53.1155 136.539 52.9166C135.32 52.5589 134.359 52.1911 133.66 51.8135C132.961 51.4359 132.441 50.9591 132.101 50.3826C131.763 49.8064 131.591 49.0807 131.591 48.2061C131.591 46.6561 132.2 45.5032 133.421 44.7482C134.66 43.9729 136.351 43.5854 138.487 43.5854C139.527 43.5854 140.617 43.6947 141.758 43.9132C142.917 44.132 143.787 44.4202 144.366 44.7779V48.5641C143.766 48.1666 142.968 47.8386 141.968 47.5803C140.987 47.322 140.069 47.1926 139.207 47.1926C138.528 47.1926 137.999 47.2621 137.619 47.4013C137.24 47.5206 137.05 47.7394 137.05 48.0573C137.05 48.3554 137.24 48.584 137.619 48.7428C137.999 48.9019 138.679 49.1008 139.659 49.3392C140.298 49.4981 140.568 49.5678 140.469 49.5479C141.747 49.8857 142.737 50.2633 143.436 50.6807C144.135 51.0983 144.626 51.595 144.907 52.1715C145.206 52.7278 145.356 53.4433 145.356 54.3178C145.356 55.6893 144.756 56.7825 143.556 57.5972C142.376 58.3922 140.657 58.7897 138.399 58.7897Z" fill="black"/>
<path d="M153.238 58.7898C151.258 58.7898 149.769 58.2433 148.769 57.1502C147.79 56.057 147.299 54.6162 147.299 52.8274V44.0327H152.578V52.2311C152.578 53.8807 153.329 54.7056 154.826 54.7056C155.506 54.7056 156.127 54.5465 156.686 54.2286C157.247 53.9106 157.704 53.4434 158.065 52.8274V44.0327H163.342V58.3427H158.247V56.7923C157.626 57.4483 156.875 57.9452 155.997 58.2831C155.116 58.6209 154.197 58.7898 153.238 58.7898Z" fill="black"/>
<path d="M166.046 44.0326H170.935V45.5828C171.533 44.9469 172.224 44.46 173.003 44.1219C173.783 43.7642 174.614 43.5854 175.492 43.5854C176.573 43.5854 177.433 43.7443 178.072 44.0623C178.732 44.3804 179.26 44.8573 179.66 45.4934C180.26 44.897 180.99 44.4301 181.85 44.0922C182.71 43.7544 183.58 43.5854 184.459 43.5854C186.358 43.5854 187.709 44.0723 188.509 45.0461C189.309 46.0001 189.709 47.3814 189.709 49.1902V58.3426H184.669V49.9355C184.669 49.1405 184.519 48.5641 184.22 48.2062C183.92 47.8486 183.419 47.6697 182.72 47.6697C181.821 47.6697 181.091 47.9878 180.53 48.6235C180.551 48.9616 180.561 49.4784 180.561 50.174V58.3426H175.523V49.7269C175.523 48.9913 175.391 48.4647 175.134 48.1467C174.874 47.8287 174.412 47.6697 173.754 47.6697C172.733 47.6697 171.853 48.2361 171.115 49.3689V58.3426H166.046V44.0326Z" fill="black"/>
<path d="M45.9347 45.5457L45.525 45.632L58.2377 58.2699V92.625H47.358L34.5585 79.9008H45.4381V45.5455H34.5585V34.7303H45.4381V0.375L58.2377 13.0991V34.7301L45.4381 34.7303V45.5455L45.9347 45.5457Z" fill="#555555"/>
<path d="M79.9976 45.5456L92.7971 58.2697V47.4541L79.9976 34.73V45.5456Z" fill="#555555"/>
<path d="M105.441 68.1245H113.208C115.407 68.1245 117.116 68.6413 118.337 69.6749C119.575 70.7083 120.196 72.2387 120.196 74.2659C120.196 76.313 119.586 77.8435 118.367 78.8573C117.146 79.8708 115.427 80.3776 113.208 80.3776H107.78V88.9636H105.441V68.1245ZM113.028 78.41C114.528 78.41 115.708 78.1119 116.567 77.5156C117.427 76.8995 117.856 75.8163 117.856 74.2659C117.856 72.6958 117.427 71.6126 116.567 71.0164C115.708 70.4002 114.528 70.0923 113.028 70.0923H107.78V78.41H113.028Z" fill="#555555"/>
<path d="M123.188 66.9316H125.498V88.9632H123.188V66.9316Z" fill="#555555"/>
<path d="M135.509 89.4106C133.59 89.4106 132.109 88.8938 131.07 87.8602C130.049 86.8268 129.542 85.4455 129.542 83.7164V74.6533H131.849V83.8357C131.849 86.3399 133.159 87.5921 135.778 87.5921C136.879 87.5921 137.838 87.3534 138.658 86.8766C139.496 86.3994 140.246 85.6442 140.906 84.6108V74.6533H143.216V88.9633H140.966V86.8168C139.667 88.5459 137.848 89.4106 135.509 89.4106Z" fill="#555555"/>
<path d="M152.417 89.411C151.477 89.411 150.466 89.2718 149.388 88.9936C148.307 88.7351 147.468 88.4073 146.868 88.0096V86.072C147.629 86.5291 148.499 86.8967 149.478 87.1749C150.477 87.4532 151.435 87.5922 152.357 87.5922C153.597 87.5922 154.485 87.4233 155.026 87.0855C155.587 86.7277 155.865 86.2011 155.865 85.5055C155.865 84.9688 155.745 84.5515 155.506 84.2534C155.265 83.9352 154.867 83.6571 154.306 83.4186C153.747 83.18 152.877 82.9018 151.697 82.5839C150.536 82.2659 149.608 81.9379 148.909 81.6001C148.229 81.2422 147.709 80.795 147.348 80.2584C146.987 79.7219 146.81 79.0361 146.81 78.2014C146.81 76.9095 147.328 75.9257 148.367 75.25C149.427 74.5542 150.827 74.2065 152.566 74.2065C153.506 74.2065 154.386 74.2959 155.205 74.4747C156.044 74.6338 156.745 74.8623 157.304 75.1606V77.0983C156.725 76.7803 156.026 76.5319 155.205 76.3529C154.386 76.1543 153.535 76.0548 152.656 76.0548C151.497 76.0548 150.617 76.2237 150.017 76.5616C149.417 76.8996 149.118 77.4462 149.118 78.2014C149.118 78.7182 149.219 79.1157 149.417 79.3939C149.637 79.6721 150.027 79.9306 150.588 80.169C151.167 80.3877 152.087 80.6659 153.347 81.0037C155.145 81.5007 156.395 82.087 157.094 82.7628C157.814 83.4186 158.175 84.3329 158.175 85.5055C158.175 86.7177 157.696 87.6718 156.735 88.3676C155.795 89.0631 154.355 89.411 152.417 89.411Z" fill="#555555"/>
</svg>
