<svg width="414" height="366" viewBox="0 0 414 366" fill="none" xmlns="http://www.w3.org/2000/svg">
<g clip-path="url(#clip0_310_1468)">
<path d="M241.634 248.742C243.508 255.239 247.195 261.544 250.032 267.676C252.662 273.351 254.859 279.76 258.368 284.945C258.811 285.603 259.641 284.924 259.464 284.291C257.645 277.8 253.861 271.487 251.027 265.376C248.388 259.69 246.133 253.354 242.656 248.134C242.248 247.515 241.463 248.15 241.634 248.742Z" fill="#00D5E4"/>
<path d="M255.87 255.317C255.168 260.274 256.062 265.655 256.449 270.629C256.823 275.413 256.579 281.316 258.618 285.703C258.856 286.216 259.602 286.101 259.69 285.547C260.402 280.968 259.015 275.774 258.644 271.157C258.232 265.988 258.557 260.316 257.278 255.296C257.088 254.54 255.989 254.471 255.87 255.317Z" fill="#00D5E4"/>
<path d="M242.725 248.79C239.985 245.435 235.349 243.367 231.682 241.148C227.355 238.53 223.009 235.943 218.654 233.374C218.495 234.011 218.337 234.651 218.18 235.286C239.379 229.881 260.985 226.464 282.589 223.17C293.265 221.541 303.933 219.863 314.573 218.004C324.717 216.23 335.938 215.056 345.591 211.383C346.276 211.124 345.942 210.115 345.256 210.187C339.822 210.741 334.365 212.355 328.991 213.406C323.832 214.416 318.66 215.343 313.475 216.221C302.828 218.02 292.138 219.553 281.461 221.179C260.128 224.427 238.799 227.825 217.874 233.181C217.086 233.384 216.509 234.573 217.399 235.094C222.014 237.81 226.613 240.552 231.2 243.317C234.74 245.454 238.382 248.372 242.447 249.289C242.719 249.35 242.883 248.982 242.725 248.79Z" fill="#00D5E4"/>
<path d="M256.107 256.211C262.273 260.778 269.22 264.391 275.831 268.268C282.491 272.173 289.16 276.062 295.824 279.955C296.341 280.255 297.015 280.246 297.392 279.708C313.356 256.947 329.56 234.313 346.074 211.951C346.708 211.093 345.381 210.124 344.735 210.978C327.962 233.18 311.551 255.603 295.576 278.39C296.099 278.309 296.622 278.223 297.145 278.142C290.222 274.098 283.307 270.042 276.377 266.012C269.924 262.26 263.556 258.114 256.731 255.065C256.045 254.749 255.514 255.77 256.107 256.211Z" fill="#00D5E4"/>
<path d="M258.835 285.504C262.393 285.054 265.343 281.433 268.051 279.258C271.795 276.252 275.592 273.25 279.13 270.002C280.038 269.167 278.944 267.766 277.933 268.5C274.05 271.32 270.356 274.451 266.669 277.523C263.978 279.765 259.851 281.925 258.7 285.334C258.672 285.423 258.741 285.516 258.835 285.504Z" fill="#00D5E4"/>
<path d="M257.222 256.221C264.762 252.461 271.776 248.103 279.57 244.775C286.803 241.683 294.161 238.881 301.303 235.585C316.237 228.698 330.237 219.947 344.983 212.69C345.688 212.344 345.241 211.287 344.506 211.568C328.873 217.589 314.855 226.913 299.675 233.912C292.273 237.321 284.652 240.221 277.173 243.454C270.145 246.495 262.157 249.669 256.356 254.774C255.669 255.379 256.319 256.673 257.222 256.221Z" fill="#00D5E4"/>
<path d="M242.136 249.304C250.125 247.565 257.96 244.334 265.675 241.632C273.938 238.741 282.169 235.748 290.396 232.755C307.193 226.638 324.004 220.712 340.351 213.469C340.401 213.447 340.369 213.378 340.318 213.392C323.384 218.298 306.939 224.457 290.378 230.488C282.424 233.385 274.473 236.279 266.487 239.085C258.279 241.973 249.662 244.217 241.658 247.596C240.744 247.979 241.124 249.525 242.136 249.304Z" fill="#00D5E4"/>
<path d="M257.934 39.722C257.66 39.8335 257.356 39.8986 257.039 39.904L256.346 39.9151C254.987 39.9442 253.863 38.8686 253.841 37.5091C253.813 36.1517 254.891 35.0278 256.252 35.0037L256.97 34.9945C258.326 34.9725 259.447 36.0552 259.462 37.4117C259.48 38.4546 258.841 39.3522 257.934 39.722Z" fill="#00D5E4"/>
<path d="M189.658 299.727C188.401 300.239 186.963 299.64 186.449 298.38C185.938 297.126 186.54 295.689 187.801 295.174L189.091 294.642C189.096 294.64 189.102 294.638 189.107 294.636C190.358 294.126 191.787 294.717 192.307 295.963C192.828 297.213 192.233 298.653 190.981 299.175L189.658 299.727ZM180.421 303.233C180.385 303.248 180.345 303.264 180.302 303.276L178.951 303.744C177.663 304.181 176.268 303.499 175.828 302.215C175.392 300.93 176.113 299.539 177.362 299.094L178.673 298.642C179.954 298.191 181.357 298.864 181.808 300.143C182.249 301.385 181.627 302.742 180.421 303.233ZM199.988 295.179C198.787 295.668 197.395 295.138 196.842 293.954C196.259 292.729 196.79 291.262 198.02 290.684L199.276 290.083C200.465 289.492 201.968 290.006 202.561 291.227C203.154 292.449 202.635 293.916 201.412 294.51L200.12 295.125C200.069 295.145 200.029 295.162 199.988 295.179ZM169.656 306.631C169.57 306.666 169.482 306.696 169.392 306.721L168.01 307.102C166.695 307.455 165.346 306.684 164.994 305.37C164.638 304.064 165.423 302.712 166.726 302.357L168.065 301.988C169.374 301.62 170.731 302.382 171.098 303.689C171.436 304.909 170.801 306.164 169.656 306.631ZM210.068 290.101C208.918 290.57 207.577 290.108 206.974 288.991C206.333 287.796 206.784 286.308 207.982 285.666L209.216 284.998C210.424 284.352 211.904 284.793 212.55 285.986C213.197 287.18 212.752 288.671 211.557 289.317L210.307 289.992C210.228 290.03 210.149 290.068 210.068 290.101ZM158.688 309.298C158.546 309.356 158.403 309.396 158.246 309.431C157.777 309.528 157.307 309.619 156.836 309.711C155.5 309.972 154.211 309.1 153.951 307.766C153.691 306.433 154.566 305.144 155.903 304.888C156.357 304.797 156.806 304.709 157.264 304.616C158.595 304.345 159.896 305.201 160.166 306.53C160.404 307.708 159.763 308.86 158.688 309.298ZM147.544 311.11C147.346 311.191 147.128 311.25 146.908 311.275C146.429 311.335 145.954 311.387 145.479 311.439C144.126 311.584 142.918 310.607 142.77 309.258C142.621 307.908 143.598 306.696 144.957 306.549C145.415 306.498 145.873 306.447 146.328 306.391C147.676 306.231 148.899 307.189 149.06 308.539C149.189 309.667 148.542 310.703 147.544 311.11ZM136.288 311.912C136.014 312.024 135.72 312.085 135.41 312.093C134.924 312.103 134.442 312.11 133.966 312.116C132.606 312.128 131.498 311.034 131.49 309.68C131.479 308.322 132.571 307.216 133.931 307.204C134.39 307.2 134.849 307.195 135.306 307.186C136.666 307.157 137.79 308.232 137.817 309.59C137.84 310.631 137.2 311.54 136.288 311.912ZM125.01 311.514C124.65 311.66 124.255 311.721 123.844 311.683C123.364 311.636 122.882 311.585 122.405 311.532C121.055 311.38 120.087 310.164 120.235 308.818C120.388 307.469 121.6 306.498 122.955 306.647C123.407 306.699 123.865 306.748 124.325 306.79C125.679 306.923 126.666 308.125 126.53 309.472C126.442 310.417 125.826 311.181 125.01 311.514ZM113.888 309.671C113.427 309.859 112.905 309.913 112.385 309.783C111.908 309.671 111.434 309.551 110.962 309.425C109.652 309.08 108.868 307.736 109.212 306.422C109.557 305.107 110.91 304.325 112.221 304.67C112.658 304.787 113.099 304.896 113.537 305C114.855 305.319 115.668 306.645 115.35 307.966C115.157 308.77 114.592 309.384 113.888 309.671ZM103.188 306.141C102.6 306.38 101.92 306.392 101.29 306.124C100.839 305.93 100.391 305.73 99.9477 305.527C98.713 304.962 98.1708 303.502 98.7374 302.268C99.3039 301.034 100.761 300.493 102.001 301.056C102.409 301.243 102.819 301.424 103.235 301.603C104.482 302.139 105.059 303.584 104.521 304.83C104.26 305.45 103.766 305.905 103.188 306.141ZM93.1724 300.968C92.4833 301.249 91.6714 301.214 90.9791 300.807C90.5641 300.557 90.1491 300.307 89.7372 300.05C88.5828 299.335 88.2313 297.821 88.9487 296.667C89.661 295.515 91.1827 295.16 92.3391 295.881C92.7256 296.118 93.1141 296.361 93.5036 296.592C94.6669 297.285 95.0458 298.794 94.3519 299.962C94.0703 300.431 93.6487 300.774 93.1724 300.968ZM83.8749 294.6C83.0844 294.923 82.1522 294.825 81.4326 294.263C81.0529 293.969 80.6762 293.669 80.2995 293.368C79.2389 292.52 79.069 290.973 79.919 289.913C80.7741 288.85 82.3182 288.681 83.3789 289.529C83.7372 289.813 84.1006 290.096 84.4589 290.38C85.5306 291.212 85.7178 292.758 84.8841 293.829C84.6109 294.188 84.26 294.443 83.8749 294.6ZM75.3928 287.175C74.5111 287.534 73.4596 287.361 72.734 286.654C72.3896 286.317 72.0482 285.972 71.7068 285.627C70.7562 284.658 70.7732 283.106 71.7376 282.152C72.7142 281.199 74.2687 281.214 75.2173 282.179C75.5382 282.502 75.8592 282.825 76.1852 283.147C77.152 284.098 77.1615 285.657 76.2083 286.624C75.9761 286.866 75.6968 287.051 75.3928 287.175ZM67.8417 278.814C66.8587 279.215 65.6898 278.943 64.9937 278.076C64.6938 277.703 64.3989 277.328 64.102 276.947C63.2696 275.877 63.4604 274.33 64.5332 273.497C65.6061 272.665 67.1544 272.853 67.9869 273.924C68.2705 274.286 68.5541 274.648 68.8427 275.008C69.6883 276.068 69.5148 277.613 68.4552 278.464C68.26 278.609 68.0545 278.728 67.8417 278.814ZM61.3239 269.626C60.2395 270.068 58.9592 269.682 58.317 268.658C58.0616 268.248 57.8041 267.834 57.5588 267.421C56.8559 266.262 57.2328 264.752 58.3938 264.048C59.567 263.346 61.0718 263.718 61.7717 264.883C62.0067 265.271 62.2417 265.659 62.4888 266.048C63.212 267.199 62.8616 268.716 61.7118 269.433C61.5782 269.511 61.4506 269.574 61.3239 269.626ZM55.9558 259.721C54.7448 260.215 53.3487 259.675 52.7959 258.479C52.5942 258.042 52.3924 257.605 52.1957 257.166C51.6437 255.928 52.2028 254.473 53.4429 253.92C54.7469 253.336 56.1392 253.924 56.6912 255.162C56.8796 255.581 57.066 255.994 57.2595 256.411C57.8318 257.641 57.2941 259.105 56.0602 259.673C56.0268 259.692 55.9913 259.707 55.9558 259.721ZM51.8825 249.224C51.8217 249.248 51.7538 249.27 51.6909 249.29C50.393 249.701 49.0131 248.983 48.603 247.688C48.457 247.228 48.3139 246.761 48.1781 246.298C47.7953 244.997 48.5368 243.626 49.8399 243.243C51.143 242.859 52.5088 243.6 52.8966 244.899C53.0273 245.335 53.1579 245.772 53.2936 246.206C53.6841 247.439 53.053 248.746 51.8825 249.224ZM49.245 238.276C49.0778 238.344 48.9023 238.392 48.7207 238.425C47.3831 238.652 46.1108 237.749 45.8853 236.413C45.8072 235.932 45.7312 235.455 45.6602 234.977C45.457 233.638 46.378 232.389 47.729 232.181C49.0718 231.981 50.3229 232.905 50.521 234.246C50.5867 234.697 50.6575 235.146 50.7333 235.593C50.9384 236.748 50.2888 237.85 49.245 238.276ZM151.047 194.333C150.905 194.391 150.757 194.433 150.605 194.466C150.086 194.571 149.56 194.656 149.032 194.724C147.684 194.896 146.455 193.94 146.284 192.593C146.113 191.247 147.072 190.019 148.42 189.847C148.829 189.792 149.234 189.727 149.633 189.647C150.964 189.376 152.262 190.239 152.53 191.563C152.77 192.745 152.121 193.895 151.047 194.333ZM159.528 189.624C158.687 189.967 157.691 189.83 156.968 189.187C155.951 188.286 155.862 186.736 156.76 185.721C157.016 185.434 157.258 185.128 157.488 184.81C158.285 183.707 159.823 183.463 160.925 184.253C162.024 185.049 162.271 186.583 161.479 187.684C161.149 188.137 160.805 188.567 160.444 188.973C160.181 189.269 159.867 189.486 159.528 189.624ZM139.901 193.562C139.384 193.773 138.792 193.813 138.22 193.628C137.729 193.468 137.242 193.301 136.758 193.115C135.49 192.629 134.857 191.206 135.345 189.939C135.833 188.672 137.259 188.038 138.526 188.524C138.925 188.674 139.326 188.817 139.728 188.949C141.02 189.365 141.731 190.745 141.314 192.042C141.082 192.762 140.549 193.298 139.901 193.562ZM48.2009 227.062C47.9273 227.174 47.6279 227.237 47.311 227.242C45.9498 227.266 44.8309 226.189 44.8084 224.829C44.7994 224.343 44.7975 223.86 44.8007 223.375C44.8026 222.018 45.9084 220.918 47.2626 220.92C48.6219 220.921 49.7217 222.024 49.7198 223.381C49.7215 223.835 49.7232 224.289 49.7321 224.745C49.7496 225.788 49.118 226.689 48.2009 227.062ZM163.278 179.27C163.015 179.377 162.732 179.439 162.435 179.448C161.077 179.495 159.937 178.438 159.892 177.081C159.878 176.686 159.848 176.291 159.799 175.898C159.629 174.552 160.585 173.318 161.936 173.151C163.284 172.979 164.513 173.935 164.683 175.281C164.75 175.821 164.793 176.363 164.815 176.909C164.844 177.965 164.205 178.892 163.278 179.27ZM130.337 187.787C129.44 188.152 128.372 187.968 127.653 187.235C127.287 186.859 126.93 186.474 126.59 186.076C125.703 185.045 125.827 183.496 126.86 182.609C127.898 181.719 129.444 181.844 130.331 182.875C130.601 183.189 130.88 183.495 131.171 183.789C132.122 184.758 132.105 186.311 131.14 187.264C130.897 187.493 130.626 187.669 130.337 187.787ZM48.8816 215.818C48.4914 215.977 48.0549 216.037 47.6106 215.976C46.2634 215.788 45.3293 214.541 45.5214 213.2C45.5906 212.718 45.6618 212.24 45.7382 211.761C45.9495 210.424 47.2129 209.508 48.5582 209.72C49.8985 209.935 50.8123 211.19 50.5979 212.534C50.5265 212.982 50.4571 213.435 50.3928 213.886C50.262 214.783 49.667 215.498 48.8816 215.818ZM159.562 168.78C158.503 169.211 157.248 168.856 156.59 167.868C156.35 167.511 156.106 167.157 155.847 166.814C155.041 165.721 155.273 164.187 156.366 163.375C157.461 162.569 158.997 162.798 159.808 163.889C160.112 164.302 160.406 164.719 160.683 165.137C161.438 166.263 161.133 167.791 159.998 168.543C159.86 168.641 159.714 168.718 159.562 168.78ZM124.597 178.187C124.561 178.201 124.531 178.214 124.495 178.228C123.216 178.685 121.81 178.019 121.354 176.742C121.185 176.268 121.023 175.786 120.874 175.304C120.476 174.009 121.186 172.634 122.498 172.229C123.795 171.83 125.172 172.554 125.575 173.847C125.703 174.261 125.84 174.671 125.985 175.084C126.426 176.326 125.808 177.693 124.597 178.187ZM51.3538 204.823C50.8421 205.031 50.2602 205.068 49.6922 204.892C48.3986 204.488 47.6709 203.109 48.0827 201.814C48.2292 201.348 48.3828 200.884 48.5365 200.42C48.9696 199.134 50.3654 198.441 51.6541 198.877C52.9409 199.309 53.633 200.702 53.1948 201.989C53.0491 202.415 52.9104 202.843 52.7739 203.276C52.5457 204.006 52.0075 204.556 51.3538 204.823ZM151.827 160.648C151.041 160.969 150.111 160.876 149.394 160.319C149.042 160.049 148.686 159.787 148.326 159.527C147.224 158.737 146.975 157.199 147.767 156.097C148.564 154.994 150.1 154.745 151.202 155.535C151.604 155.825 152.008 156.121 152.399 156.427C153.475 157.257 153.673 158.798 152.841 159.875C152.566 160.229 152.212 160.491 151.827 160.648ZM122.503 167.153C122.255 167.254 121.985 167.317 121.707 167.33C120.349 167.406 119.191 166.362 119.118 165.011C119.095 164.519 119.072 164.027 119.064 163.529C119.031 162.174 120.102 161.047 121.464 161.011C122.821 160.977 123.95 162.05 123.983 163.406C123.995 163.855 124.01 164.297 124.032 164.742C124.086 165.818 123.446 166.769 122.503 167.153ZM55.6104 194.391C54.972 194.652 54.2364 194.645 53.57 194.315C52.3584 193.706 51.874 192.228 52.4854 191.017C52.7052 190.585 52.9302 190.151 53.1572 189.722C53.7971 188.524 55.2826 188.065 56.4852 188.696C57.6848 189.334 58.1418 190.817 57.507 192.014C57.292 192.414 57.0841 192.817 56.8783 193.226C56.6003 193.776 56.1425 194.175 55.6104 194.391ZM142.029 155.127C141.472 155.355 140.827 155.382 140.217 155.146C139.81 154.988 139.402 154.842 138.985 154.705C137.698 154.274 137.001 152.883 137.439 151.595C137.873 150.309 139.266 149.611 140.555 150.047C141.033 150.206 141.511 150.377 141.98 150.558C143.248 151.044 143.882 152.467 143.393 153.733C143.146 154.389 142.637 154.879 142.029 155.127ZM61.4617 184.756C60.7067 185.063 59.8143 184.991 59.098 184.48C57.991 183.693 57.7369 182.156 58.5287 181.055C58.8118 180.662 59.1 180.267 59.3851 179.88C60.1984 178.787 61.7371 178.561 62.8301 179.372C63.9159 180.18 64.1477 181.719 63.3345 182.812C63.0634 183.176 62.7944 183.546 62.5253 183.915C62.2524 184.303 61.8772 184.586 61.4617 184.756ZM123.029 155.907C122.644 156.064 122.22 156.125 121.783 156.067C120.435 155.891 119.487 154.655 119.667 153.313C119.723 152.884 119.788 152.45 119.85 152.023C119.561 152.153 119.299 152.207 118.991 152.22C118.538 152.24 118.082 152.267 117.633 152.296C116.275 152.384 115.107 151.362 115.021 150.005C114.936 148.653 115.962 147.486 117.318 147.393C117.807 147.359 118.292 147.332 118.775 147.312C120.131 147.248 121.28 148.296 121.342 149.652C121.345 149.762 121.342 149.87 121.334 149.979C121.74 149.802 122.199 149.739 122.669 149.806C124.016 150.007 124.94 151.258 124.735 152.598C124.666 153.051 124.602 153.502 124.542 153.951C124.421 154.856 123.825 155.583 123.029 155.907ZM131.069 152.523C130.684 152.68 130.255 152.743 129.815 152.68C129.366 152.621 128.917 152.563 128.471 152.514C127.123 152.368 126.15 151.154 126.296 149.802C126.45 148.454 127.666 147.48 129.016 147.632C129.505 147.686 129.989 147.742 130.477 147.809C131.822 147.992 132.767 149.223 132.584 150.572C132.463 151.477 131.86 152.2 131.069 152.523ZM68.6761 176.086C67.8046 176.441 66.7694 176.279 66.0429 175.584C65.0629 174.645 65.0311 173.088 65.9731 172.109C66.3092 171.759 66.6475 171.415 66.9908 171.068C67.9511 170.105 69.5095 170.1 70.4733 171.058C71.4371 172.016 71.4394 173.573 70.4842 174.535C70.16 174.855 69.845 175.184 69.5301 175.513C69.2776 175.764 68.9852 175.96 68.6761 176.086ZM77.037 168.518C76.0489 168.921 74.8708 168.64 74.1757 167.761C73.3382 166.693 73.5239 165.148 74.5947 164.31C74.9759 164.013 75.3622 163.714 75.7454 163.422C76.8275 162.598 78.3689 162.813 79.1932 163.893C80.0125 164.974 79.8003 166.512 78.7183 167.337C78.3532 167.615 77.9933 167.892 77.6353 168.174C77.4452 168.316 77.2447 168.433 77.037 168.518ZM108.629 153.49C108.498 153.543 108.357 153.589 108.215 153.617C107.768 153.711 107.326 153.815 106.884 153.918C105.562 154.227 104.236 153.411 103.928 152.091C103.619 150.766 104.435 149.448 105.762 149.137C106.236 149.026 106.708 148.922 107.185 148.816C108.512 148.535 109.824 149.375 110.106 150.705C110.359 151.876 109.714 153.047 108.629 153.49ZM86.3704 162.176C85.2557 162.63 83.9436 162.209 83.3195 161.143C82.6348 159.97 83.031 158.464 84.2074 157.784C84.6265 157.536 85.0497 157.299 85.4729 157.061C86.6728 156.395 88.1606 156.827 88.82 158.009C89.4814 159.196 89.0567 160.691 87.867 161.353C87.4721 161.573 87.0742 161.8 86.6814 162.025C86.5812 162.084 86.4769 162.132 86.3704 162.176ZM97.8182 156.7C97.7979 156.708 97.7827 156.714 97.7675 156.721C97.3428 156.882 96.9151 157.051 96.4945 157.222C95.2359 157.729 93.8008 157.123 93.2923 155.861C92.7859 154.605 93.3919 153.178 94.6485 152.665C94.6536 152.663 94.6536 152.663 94.6586 152.661C95.1096 152.477 95.5596 152.306 96.0147 152.132C97.2817 151.645 98.7047 152.28 99.1909 153.545C99.6658 154.796 99.0495 156.198 97.8182 156.7ZM125.22 144.843C124.749 145.036 124.22 145.086 123.693 144.953C122.376 144.622 121.576 143.285 121.909 141.969C122.026 141.503 122.145 141.041 122.269 140.578C122.614 139.263 123.962 138.483 125.278 138.826C126.588 139.171 127.373 140.515 127.028 141.829C126.913 142.271 126.795 142.721 126.682 143.168C126.478 143.959 125.919 144.558 125.22 144.843ZM128.471 134.049C127.934 134.268 127.321 134.3 126.728 134.093C125.446 133.643 124.774 132.241 125.221 130.962L125.701 129.616C126.162 128.342 127.57 127.68 128.85 128.137C130.125 128.597 130.789 130.007 130.327 131.281L129.861 132.586C129.623 133.279 129.1 133.793 128.471 134.049ZM132.66 123.581C132.057 123.827 131.362 123.833 130.719 123.546C129.481 122.989 128.929 121.533 129.489 120.296C129.684 119.863 129.883 119.422 130.085 118.991C130.659 117.76 132.118 117.224 133.355 117.794C134.587 118.365 135.122 119.822 134.548 121.053C134.352 121.47 134.162 121.889 133.973 122.308C133.705 122.913 133.222 123.352 132.66 123.581ZM137.73 113.508C137.061 113.781 136.283 113.756 135.603 113.379C134.418 112.718 133.991 111.222 134.654 110.037L135.357 108.789C136.027 107.607 137.532 107.195 138.709 107.865C139.891 108.533 140.303 110.035 139.63 111.212L138.948 112.422C138.665 112.932 138.227 113.306 137.73 113.508ZM143.613 103.877C142.883 104.175 142.022 104.119 141.315 103.646C140.185 102.891 139.884 101.369 140.636 100.242L141.439 99.0531C142.206 97.9324 143.735 97.6393 144.856 98.4033C145.977 99.1674 146.269 100.694 145.502 101.815L144.724 102.964C144.45 103.394 144.054 103.698 143.613 103.877ZM150.254 94.7572C149.463 95.0795 148.524 94.9787 147.804 94.4167C146.736 93.5782 146.551 92.0372 147.391 90.9688C147.688 90.5943 147.989 90.2177 148.286 89.8432C149.143 88.7858 150.687 88.6163 151.748 89.464C152.803 90.3138 152.973 91.8609 152.121 92.9163C151.831 93.2765 151.545 93.6347 151.262 93.998C150.985 94.347 150.639 94.6002 150.254 94.7572ZM157.587 86.1749C156.73 86.524 155.718 86.3761 154.992 85.7107C153.991 84.7915 153.925 83.2375 154.848 82.2416C155.177 81.8891 155.501 81.5387 155.83 81.1863C156.763 80.1984 158.32 80.1476 159.308 81.078C160.296 82.0084 160.345 83.5635 159.412 84.5514C159.094 84.8875 158.782 85.2216 158.471 85.5607C158.211 85.8376 157.911 86.0427 157.587 86.1749ZM165.551 78.1847C164.634 78.5586 163.533 78.3525 162.817 77.5824C161.893 76.5907 161.95 75.0338 162.944 74.1093L163.995 73.1378C164.993 72.2235 166.556 72.2883 167.47 73.2964C168.386 74.2973 168.312 75.8553 167.307 76.7667L166.284 77.7086C166.072 77.913 165.819 78.0752 165.551 78.1847ZM174.1 70.8173C173.117 71.2181 171.943 70.9475 171.25 70.0738C170.404 69.0146 170.583 67.4669 171.644 66.6211L172.771 65.7312C173.841 64.8935 175.39 65.0822 176.222 66.1527C177.06 67.2212 176.869 68.7679 175.796 69.6006L174.706 70.4639C174.518 70.6113 174.313 70.7305 174.1 70.8173ZM247.366 40.3256C247.153 40.4124 246.923 40.4709 246.678 40.4939L245.3 40.6368C243.949 40.7866 242.736 39.8122 242.588 38.4627C242.44 37.1133 243.422 35.8987 244.768 35.751C245.243 35.6989 245.718 35.6467 246.195 35.5997C247.548 35.4671 248.753 36.4507 248.884 37.8013C248.994 38.9126 248.349 39.9248 247.366 40.3256ZM183.188 64.1208C182.134 64.5505 180.893 64.2013 180.23 63.2269C179.465 62.1051 179.757 60.576 180.881 59.8109L182.067 59.0089C183.19 58.256 184.725 58.5564 185.477 59.6894C186.231 60.8153 185.927 62.3436 184.791 63.0955L183.642 63.8709C183.499 63.9704 183.345 64.0567 183.188 64.1208ZM236.195 41.9304C236.043 41.9924 235.885 42.0392 235.721 42.0708C235.265 42.1563 234.817 42.2448 234.363 42.3353C233.03 42.6016 231.738 41.7363 231.469 40.4121C231.204 39.0808 232.07 37.7839 233.398 37.5196C233.869 37.4279 234.338 37.3311 234.811 37.2445C236.145 36.9954 237.43 37.8699 237.683 39.2003C237.904 40.3666 237.255 41.4986 236.195 41.9304ZM192.754 58.132C191.63 58.5907 190.313 58.1598 189.697 57.0837C189.023 55.9075 189.426 54.4039 190.605 53.7287C191.021 53.4883 191.434 53.255 191.852 53.0196C193.027 52.3516 194.535 52.7749 195.2 53.9553C195.866 55.1406 195.442 56.6353 194.259 57.3003C193.856 57.5295 193.456 57.7515 193.055 57.9858C192.96 58.0423 192.856 58.0907 192.754 58.132ZM225.204 44.4948C225.117 44.5299 225.024 44.562 224.934 44.587C224.488 44.71 224.043 44.838 223.599 44.966C222.294 45.3448 220.931 44.5967 220.554 43.2935C220.176 41.9904 220.937 40.6242 222.232 40.2496C222.691 40.1154 223.153 39.9862 223.614 39.8571C224.925 39.4935 226.277 40.2579 226.645 41.5652C226.978 42.7743 226.344 44.0299 225.204 44.4948ZM202.758 52.8971C201.557 53.3867 200.172 52.86 199.611 51.6728C199.029 50.4473 199.555 48.9824 200.782 48.3992L202.078 47.7942C203.353 47.1975 204.775 47.7564 205.342 48.9882C205.914 50.2179 205.377 51.6819 204.143 52.2499L202.883 52.8404C202.842 52.8569 202.799 52.8806 202.758 52.8971ZM214.463 47.9654C214.438 47.9758 214.412 47.9861 214.387 47.9964C213.955 48.1548 213.52 48.3203 213.091 48.4837C211.822 48.9657 210.398 48.3307 209.917 47.0638C209.436 45.7969 210.096 44.3422 211.343 43.8928C211.793 43.7211 212.24 43.5566 212.687 43.392C213.96 42.9201 215.377 43.5694 215.843 44.8425C216.299 46.0903 215.684 47.4676 214.463 47.9654Z" fill="#00D5E4"/>
<path d="M220.059 284.429C218.954 284.88 217.653 284.472 217.023 283.419C216.325 282.259 216.702 280.748 217.87 280.048L218.462 279.688C219.618 278.987 221.14 279.357 221.838 280.518C222.541 281.677 222.166 283.192 221.003 283.891L220.396 284.256C220.288 284.324 220.175 284.382 220.059 284.429Z" fill="#00D5E4"/>
</g>
<defs>
<clipPath id="clip0_310_1468">
<rect width="342.37" height="254.393" fill="white" transform="translate(0.317383 129.927) rotate(-22.1818)"/>
</clipPath>
</defs>
</svg>
