<svg width="216" height="195" viewBox="0 0 216 195" fill="none" xmlns="http://www.w3.org/2000/svg">
<path d="M159.353 152.02C159.232 151.988 159.114 151.946 158.997 151.889C158.131 151.457 157.782 150.408 158.214 149.544C158.271 149.426 164.141 137.463 164.647 121.31C164.943 111.883 163.377 102.879 159.996 94.5517C155.765 84.1362 148.655 74.7315 138.863 66.5949C129.354 58.6967 118.996 53.6749 108.075 51.663C99.3327 50.0547 90.193 50.3567 80.9101 52.5656C65.0008 56.3479 54.0446 64.5226 53.9364 64.6052C53.1666 65.1869 52.0691 65.0343 51.4869 64.2652C50.9047 63.496 51.0542 62.3995 51.8241 61.8178C52.2886 61.4682 63.3815 53.1695 79.9717 49.1966C89.7476 46.8541 99.3868 46.5236 108.628 48.2113C120.176 50.3217 131.104 55.6041 141.099 63.9092C151.365 72.4399 158.825 82.3373 163.269 93.3217C166.829 102.123 168.467 111.626 168.14 121.565C167.58 138.448 161.602 150.596 161.348 151.107C160.972 151.854 160.136 152.217 159.353 152.02Z" fill="#479CEF"/>
<path d="M206.569 122.632C206.324 122.572 206.089 122.454 205.879 122.283L71.5987 10.7096C70.8543 10.093 70.7557 8.99013 71.3728 8.2464C71.99 7.50266 73.0939 7.40413 73.8383 8.02073L208.118 119.591C208.863 120.207 208.961 121.31 208.344 122.054C207.899 122.588 207.202 122.791 206.569 122.632Z" fill="#479CEF"/>
<path d="M65.2565 61.9651L51.9793 50.9341L40.739 64.4387L54.0161 75.4697L65.2565 61.9651Z" fill="#00D8DD"/>
<path d="M67.0336 16.0113C63.3688 12.9664 62.8662 7.52827 65.917 3.86362L66.1174 3.62207C69.165 -0.0393953 74.6081 -0.541575 78.2761 2.50647C81.9409 5.55133 82.4435 10.9895 79.3927 14.6541L79.1923 14.8957C76.1415 18.5572 70.6984 19.0593 67.0336 16.0113Z" fill="#00D8DD"/>
<path d="M201.317 127.581C197.652 124.536 197.149 119.098 200.2 115.433L200.4 115.192C203.448 111.53 208.891 111.028 212.559 114.076C216.224 117.121 216.727 122.559 213.676 126.224L213.475 126.466C210.425 130.127 204.981 130.629 201.317 127.581Z" fill="#00D8DD"/>
<path d="M152.787 64.5232L139.51 53.4922L128.27 66.9968L141.547 78.0278L152.787 64.5232Z" fill="#00D8DD"/>
<path d="M171.265 150.043L157.988 139.012L146.747 152.516L160.024 163.547L171.265 150.043Z" fill="#00D8DD"/>
<path d="M96.4738 98.3081L2.17805 183.72C0.143519 185.563 -0.00907093 188.703 1.83356 190.735L4.00681 193.131C5.85176 195.163 8.99372 195.316 11.0282 193.475L105.405 107.989L96.4738 98.3081Z" fill="#479CEF"/>
<path d="M141.751 68.9082L141.208 68.3099L122.382 85.3614C123.048 86.8859 122.71 88.7269 121.408 89.9072C119.776 91.3855 117.254 91.2608 115.774 89.6323C114.294 88.0016 114.419 85.4815 116.049 84.0032C117.351 82.8228 119.219 82.6681 120.673 83.4788L139.5 66.4274L138.956 65.8291L108.834 75.9648L101.865 90.122L101.297 89.496L94.1017 96.0122L107.516 110.675L114.65 104.212L113.927 103.415L128.71 97.8693L141.751 68.9082Z" fill="#479CEF"/>
</svg>
