<svg width="95" height="95" viewBox="0 0 95 95" fill="none" xmlns="http://www.w3.org/2000/svg">
<path d="M47.5 95C44.9805 95 42.7816 93.2919 42.1604 90.8526C38.3787 76.026 35.3633 69.0936 30.6348 64.3652C25.9064 59.6367 18.974 56.6213 4.14742 52.8396C1.70806 52.2184 0 50.0195 0 47.5C0 44.9805 1.70806 42.7816 4.14742 42.1604C18.974 38.3837 25.9064 35.3633 30.6348 30.6348C35.3633 25.9064 38.3787 18.974 42.1604 4.14742C42.7816 1.70806 44.9805 0 47.5 0C50.0195 0 52.2184 1.70806 52.8396 4.14742C56.6163 18.974 59.6367 25.9064 64.3652 30.6348C69.0936 35.3633 76.026 38.3787 90.8526 42.1604C93.2919 42.7816 95 44.9805 95 47.5C95 50.0195 93.2919 52.2184 90.8526 52.8396C76.026 56.6213 69.0936 59.6367 64.3652 64.3652C59.6367 69.0936 56.6213 76.026 52.8396 90.8526C52.2184 93.2919 50.0195 95 47.5 95ZM24.0581 47.5C29.8634 49.8642 34.5468 52.6843 38.4288 56.5712C42.3157 60.4582 45.1358 65.1366 47.5 70.9419C49.8642 65.1366 52.6843 60.4532 56.5712 56.5712C60.4582 52.6843 65.1366 49.8642 70.9419 47.5C65.1366 45.1358 60.4532 42.3157 56.5712 38.4288C52.6893 34.5418 49.8642 29.8634 47.5 24.0581C45.1358 29.8634 42.3157 34.5468 38.4288 38.4288C34.5418 42.3107 29.8634 45.1358 24.0581 47.5Z" fill="url(#paint0_linear_643_107)"/>
<defs>
<linearGradient id="paint0_linear_643_107" x1="47.5001" y1="95.0005" x2="47.5001" y2="0" gradientUnits="userSpaceOnUse">
<stop stop-color="#A2FFFE"/>
<stop offset="1" stop-color="#4BD9E5"/>
</linearGradient>
</defs>
</svg>
