<svg width="30" height="28" viewBox="0 0 30 28" fill="none" xmlns="http://www.w3.org/2000/svg">
<path d="M10.7009 7.77911L14.3045 0.702236C14.7847 -0.241632 16.1318 -0.224549 16.5865 0.736403L19.9861 7.91578C20.1646 8.29589 20.5215 8.56069 20.9337 8.62902L28.7444 9.88466C29.7855 10.0512 30.185 11.3496 29.4201 12.0756L23.6789 17.5424C23.373 17.8328 23.2327 18.2514 23.2965 18.6699L24.5246 26.5241C24.6861 27.5704 23.5854 28.352 22.659 27.8481L15.7111 24.047C15.3414 23.8462 14.8994 23.8377 14.5254 24.0299L7.47123 27.6302C6.53208 28.1086 5.44845 27.2971 5.64393 26.255L7.09302 18.4393C7.16951 18.025 7.03778 17.5979 6.74456 17.3032L1.15218 11.6656C0.408513 10.914 0.841965 9.63268 1.88735 9.49174L9.73198 8.46246C10.1484 8.40693 10.5096 8.15068 10.7009 7.77911Z" fill="#FFDF6B" fill-opacity="0.7"/>
</svg>
