<svg width="293" height="20" viewBox="0 0 293 20" fill="none" xmlns="http://www.w3.org/2000/svg">
<path d="M8.52765 19.1416C26.3552 16.9676 44.2848 15.1947 62.2904 13.8373C71.2954 13.1572 80.3151 12.5822 89.3496 12.1093C93.7802 11.8786 98.2136 11.6702 102.645 11.4871C103 11.4738 103.355 11.4574 103.71 11.4442C103.672 11.445 102.375 11.496 103.186 11.4661C103.718 11.4447 104.251 11.4232 104.783 11.4049C105.936 11.3611 107.089 11.3204 108.246 11.28C110.468 11.2029 112.684 11.1319 114.905 11.0643C133.025 10.5324 151.187 10.4107 169.359 10.7005C187.526 10.9899 205.706 11.691 223.856 12.8043C242.007 13.9177 260.133 15.4404 278.2 17.3766C280.415 17.6152 282.626 17.8567 284.84 18.1079C288.452 18.5135 292.08 16.0156 292.083 13.3326C292.087 10.3463 289.337 8.15373 285.47 7.71694C267.417 5.6867 249.302 4.05723 231.157 2.84313C212.928 1.6208 194.662 0.819634 176.404 0.429853C158.235 0.0422694 140.065 0.0655561 121.939 0.502259C103.28 0.950963 84.6518 1.80602 66.1025 3.09568C48.078 4.34764 30.1255 6.01165 12.2703 8.08609C9.99546 8.3495 7.72007 8.62237 5.44868 8.89864C1.89073 9.33391 -0.746603 12.3091 0.224013 14.9973C1.24196 17.8086 4.71071 19.6086 8.52765 19.1416Z" fill="#4AD6E6"/>
</svg>
