<svg width="30" height="28" viewBox="0 0 30 28" fill="none" xmlns="http://www.w3.org/2000/svg">
<path d="M9.92305 7.77911L13.5267 0.702236C14.0068 -0.241632 15.3539 -0.224549 15.8086 0.736403L19.2083 7.91578C19.3868 8.29589 19.7437 8.56069 20.1559 8.62902L27.9666 9.88466C29.0077 10.0512 29.4071 11.3496 28.6422 12.0756L22.9011 17.5424C22.5951 17.8328 22.4549 18.2514 22.5187 18.6699L23.7468 26.5241C23.9083 27.5704 22.8076 28.352 21.8812 27.8481L14.9332 24.047C14.5635 23.8462 14.1216 23.8377 13.7476 24.0299L6.69341 27.6302C5.75426 28.1086 4.67063 27.2971 4.86611 26.255L6.3152 18.4393C6.39169 18.025 6.25996 17.5979 5.96674 17.3032L0.374356 11.6656C-0.369312 10.914 0.0641403 9.63268 1.10952 9.49174L8.95416 8.46246C9.37061 8.40693 9.73182 8.15068 9.92305 7.77911Z" fill="#FCCC21"/>
</svg>
